<?xml version="1.0" encoding="UTF-8" standalone="no"?>
<svg
   viewBox="0 0 64 64"
   version="1.1"
   id="svg7"
   sodipodi:docname="partly-sunny-day.svg"
   inkscape:version="1.3.2 (091e20e, 2023-11-25, custom)"
   xmlns:inkscape="http://www.inkscape.org/namespaces/inkscape"
   xmlns:sodipodi="http://sodipodi.sourceforge.net/DTD/sodipodi-0.dtd"
   xmlns="http://www.w3.org/2000/svg"
   xmlns:svg="http://www.w3.org/2000/svg">
  <sodipodi:namedview
     id="namedview7"
     pagecolor="#ffffff"
     bordercolor="#666666"
     borderopacity="1.0"
     inkscape:showpageshadow="2"
     inkscape:pageopacity="0.0"
     inkscape:pagecheckerboard="0"
     inkscape:deskcolor="#d1d1d1"
     inkscape:zoom="12.65625"
     inkscape:cx="32"
     inkscape:cy="31.960494"
     inkscape:window-width="1920"
     inkscape:window-height="1009"
     inkscape:window-x="-8"
     inkscape:window-y="-8"
     inkscape:window-maximized="1"
     inkscape:current-layer="svg7" />
  <defs
     id="defs6">
    <linearGradient
       id="mostlysunnyday_a"
       x1="16.5"
       y1="19.67"
       x2="21.5"
       y2="28.33"
       gradientUnits="userSpaceOnUse">
      <stop
         offset="0"
         stop-color="#fbbf24"
         id="stop1" />
      <stop
         offset="0.45"
         stop-color="#fbbf24"
         id="stop2" />
      <stop
         offset="1"
         stop-color="#f59e0b"
         id="stop3" />
    </linearGradient>
    <linearGradient
       id="mostlysunnyday_b"
       x1="22.56"
       y1="21.96"
       x2="39.2"
       y2="50.8"
       gradientUnits="userSpaceOnUse"
       gradientTransform="matrix(0.85637667,0,0,0.85637667,7.7197534,6.5718393)">
      <stop
         offset="0"
         stop-color="#f3f7fe"
         id="stop4" />
      <stop
         offset="0.45"
         stop-color="#f3f7fe"
         id="stop5" />
      <stop
         offset="1"
         stop-color="#deeafb"
         id="stop6" />
    </linearGradient>
  </defs>
  <circle
     cx="19"
     cy="24"
     r="5"
     stroke="#f8af18"
     stroke-miterlimit="10"
     stroke-width="0.5"
     fill="url(#mostlysunnyday_a)"
     id="circle6" />
  <path
     d="M19,15.67V12.5m0,23V32.33m5.89-14.22,2.24-2.24M10.87,32.13l2.24-2.24m0-11.78-2.24-2.24M27.13,32.13l-2.24-2.24M7.5,24h3.17M30.5,24H27.33"
     fill="none"
     stroke="#fbbf24"
     stroke-linecap="round"
     stroke-miterlimit="10"
     stroke-width="2"
     id="path6" />
  <path
     d="m 47.541269,33.547705 h -0.274041 a 8.9833913,8.9833913 0 0 0 -16.365358,-6.851014 5.9946367,5.9946367 0 0 0 -9.051902,5.13826 6.1744758,6.1744758 0 0 0 0.08564,0.97627 6.4228251,6.4228251 0 0 0 1.198927,12.725757 3.5882183,3.5882183 0 0 0 0.428189,0 v 0 h 23.978547 a 5.9946367,5.9946367 0 0 0 0,-11.989273 z"
     stroke="#e6effc"
     stroke-miterlimit="10"
     stroke-width="0.428188"
     fill="url(#mostlysunnyday_b)"
     id="path7"
     style="fill:url(#mostlysunnyday_b)" />
</svg>
