<?xml version="1.0" encoding="UTF-8" standalone="no"?>
<svg
   viewBox="0 0 64 64"
   version="1.1"
   id="svg7"
   sodipodi:docname="mostly-clear-night.svg"
   inkscape:version="1.3.2 (091e20e, 2023-11-25, custom)"
   xmlns:inkscape="http://www.inkscape.org/namespaces/inkscape"
   xmlns:sodipodi="http://sodipodi.sourceforge.net/DTD/sodipodi-0.dtd"
   xmlns="http://www.w3.org/2000/svg"
   xmlns:svg="http://www.w3.org/2000/svg">
  <sodipodi:namedview
     id="namedview7"
     pagecolor="#ffffff"
     bordercolor="#666666"
     borderopacity="1.0"
     inkscape:showpageshadow="2"
     inkscape:pageopacity="0.0"
     inkscape:pagecheckerboard="0"
     inkscape:deskcolor="#d1d1d1"
     inkscape:zoom="12.65625"
     inkscape:cx="32"
     inkscape:cy="31.960494"
     inkscape:window-width="1920"
     inkscape:window-height="1009"
     inkscape:window-x="-8"
     inkscape:window-y="-8"
     inkscape:window-maximized="1"
     inkscape:current-layer="svg7" />
  <defs
     id="defs6">
    <linearGradient
       id="mostlyclearnight_a"
       x1="13.58"
       y1="15.57"
       x2="24.15"
       y2="33.87"
       gradientUnits="userSpaceOnUse">
      <stop
         offset="0"
         stop-color="#86c3db"
         id="stop1" />
      <stop
         offset="0.45"
         stop-color="#86c3db"
         id="stop2" />
      <stop
         offset="1"
         stop-color="#5eafcf"
         id="stop3" />
    </linearGradient>
    <linearGradient
       id="mostlyclearnight_b"
       x1="22.56"
       y1="21.96"
       x2="39.2"
       y2="50.8"
       gradientUnits="userSpaceOnUse"
       gradientTransform="matrix(0.76410973,0,0,0.76410973,12.620129,10.734768)">
      <stop
         offset="0"
         stop-color="#f3f7fe"
         id="stop4" />
      <stop
         offset="0.45"
         stop-color="#f3f7fe"
         id="stop5" />
      <stop
         offset="1"
         stop-color="#deeafb"
         id="stop6" />
    </linearGradient>
  </defs>
  <path
     d="M29.33,26.68A10.61,10.61,0,0,1,18.65,16.14,10.5,10.5,0,0,1,19,13.5,10.54,10.54,0,1,0,30.5,26.61,11.48,11.48,0,0,1,29.33,26.68Z"
     stroke="#72b9d5"
     stroke-linecap="round"
     stroke-linejoin="round"
     stroke-width="0.5"
     fill="url(#mostlyclearnight_a)"
     id="path6" />
  <path
     d="m 48.151232,34.804225 h -0.244515 a 8.0155111,8.0155111 0 0 0 -14.602137,-6.112878 5.3487681,5.3487681 0 0 0 -8.07664,4.584658 5.5092312,5.5092312 0 0 0 0.07641,0.871085 5.730823,5.730823 0 0 0 1.069753,11.354671 3.2016198,3.2016198 0 0 0 0.382055,0 v 0 h 21.395073 a 5.3487681,5.3487681 0 0 0 10e-7,-10.697536 z"
     stroke="#e6effc"
     stroke-miterlimit="10"
     stroke-width="0.382055"
     fill="url(#mostlyclearnight_b)"
     id="path7"
     style="fill:url(#mostlyclearnight_b)" />
</svg>
