<?xml version="1.0" encoding="UTF-8" standalone="no"?>
<svg
   viewBox="0 0 64 64"
   version="1.1"
   id="svg11"
   sodipodi:docname="overcast-night.svg"
   inkscape:version="1.3.2 (091e20e, 2023-11-25, custom)"
   xmlns:inkscape="http://www.inkscape.org/namespaces/inkscape"
   xmlns:sodipodi="http://sodipodi.sourceforge.net/DTD/sodipodi-0.dtd"
   xmlns="http://www.w3.org/2000/svg"
   xmlns:svg="http://www.w3.org/2000/svg">
  <sodipodi:namedview
     id="namedview11"
     pagecolor="#ffffff"
     bordercolor="#666666"
     borderopacity="1.0"
     inkscape:showpageshadow="2"
     inkscape:pageopacity="0.0"
     inkscape:pagecheckerboard="0"
     inkscape:deskcolor="#d1d1d1"
     inkscape:zoom="12.65625"
     inkscape:cx="32"
     inkscape:cy="31.960494"
     inkscape:window-width="1920"
     inkscape:window-height="1009"
     inkscape:window-x="-8"
     inkscape:window-y="-8"
     inkscape:window-maximized="1"
     inkscape:current-layer="svg11" />
  <defs
     id="defs9">
    <linearGradient
       id="overcastnight_a"
       x1="13.58"
       y1="15.57"
       x2="24.15"
       y2="33.87"
       gradientUnits="userSpaceOnUse"
       gradientTransform="translate(10.824691,2.95268)">
      <stop
         offset="0"
         stop-color="#86c3db"
         id="stop1" />
      <stop
         offset="0.45"
         stop-color="#86c3db"
         id="stop2" />
      <stop
         offset="1"
         stop-color="#5eafcf"
         id="stop3" />
    </linearGradient>
    <linearGradient
       id="overcastnight_b"
       x1="40.76"
       y1="23"
       x2="50.83"
       y2="40.46"
       gradientUnits="userSpaceOnUse">
      <stop
         offset="0"
         stop-color="#9ca3af"
         id="stop4" />
      <stop
         offset="0.45"
         stop-color="#9ca3af"
         id="stop5" />
      <stop
         offset="1"
         stop-color="#6b7280"
         id="stop6" />
    </linearGradient>
    <linearGradient
       id="overcastnight_c"
       x1="22.56"
       y1="21.96"
       x2="39.2"
       y2="50.8"
       gradientUnits="userSpaceOnUse">
      <stop
         offset="0"
         stop-color="#f3f7fe"
         id="stop7" />
      <stop
         offset="0.45"
         stop-color="#f3f7fe"
         id="stop8" />
      <stop
         offset="1"
         stop-color="#deeafb"
         id="stop9" />
    </linearGradient>
  </defs>
  <path
     d="m 40.154691,29.63268 a 10.61,10.61 0 0 1 -10.68,-10.54 10.5,10.5 0 0 1 0.35,-2.64 10.54,10.54 0 1 0 11.5,13.11 11.48,11.48 0 0 1 -1.17,0.07 z"
     stroke="#72b9d5"
     stroke-linecap="round"
     stroke-linejoin="round"
     stroke-width="0.5"
     fill="url(#overcastnight_a)"
     id="path9"
     style="fill:url(#overcastnight_a)" />
  <path
     d="M34.23,33.45a4.05,4.05,0,0,0,4.05,4H54.79a4.34,4.34,0,0,0,.81-8.61,3.52,3.52,0,0,0,.06-.66,4.06,4.06,0,0,0-6.13-3.48,6.08,6.08,0,0,0-11.25,3.19,6.34,6.34,0,0,0,.18,1.46h-.18A4.05,4.05,0,0,0,34.23,33.45Z"
     stroke="#848b98"
     stroke-miterlimit="10"
     stroke-width="0.5"
     fill="url(#overcastnight_b)"
     id="path10" />
  <path
     d="M46.5,31.5l-.32,0a10.49,10.49,0,0,0-19.11-8,7,7,0,0,0-10.57,6,7.21,7.21,0,0,0,.1,1.14A7.5,7.5,0,0,0,18,45.5a4.19,4.19,0,0,0,.5,0v0h28a7,7,0,0,0,0-14Z"
     stroke="#e6effc"
     stroke-miterlimit="10"
     stroke-width="0.5"
     fill="url(#overcastnight_c)"
     id="path11" />
</svg>
