<?xml version="1.0" encoding="UTF-8" standalone="no"?>
<svg
   width="24"
   height="24"
   viewBox="0 0 24 24"
   version="1.2"
   id="svg1"
   xmlns="http://www.w3.org/2000/svg"
   xmlns:svg="http://www.w3.org/2000/svg">
  <defs
     id="defs1" />
  <path
     d="m 16.493056,15.277344 c -0.398423,0.09078 -0.681218,0.444881 -0.681641,0.853515 v 2.337891 c 0,0.483729 0.391272,0.876953 0.875,0.876953 h 1.169922 c 1.168658,-6.11e-4 1.168658,-1.754517 0,-1.753906 h -0.292969 v -1.460938 c -6.81e-4,-0.561824 -0.522427,-0.977888 -1.070312,-0.853515 z"
     id="path13" />
  <path
     d="m 16.430556,12.363281 a 5.257915,5.257915 0 0 0 -4.708984,5.228516 5.257915,5.257915 0 0 0 10.515625,0 5.257915,5.257915 0 0 0 -5.806641,-5.228516 z m 0.548828,1.722657 a 3.5058594,3.5058594 0 0 1 0,7.011718 3.5058594,3.5058594 0 1 1 0,-7.011718 z"
     id="path11" />
  <path
     d="M 7.9246962,0.65039062 A 0.87631917,0.87631917 0 0 0 7.0477431,1.5253906 V 2.9863281 H 5.5868056 A 3.2131703,3.2131703 0 0 0 2.373915,6.1992187 V 19.052734 a 3.2131703,3.2131703 0 0 0 3.2128906,3.212891 h 4.6738284 a 0.87631917,0.87631917 0 0 0 0,-1.751953 H 5.5868056 c -0.8062128,0 -1.4609375,-0.654724 -1.4609375,-1.460938 V 11.166016 H 19.60829 a 0.87631917,0.87631917 0 0 0 0.876953,-0.876953 V 6.1992187 A 3.2131703,3.2131703 0 0 0 17.2704,2.9863281 H 15.811415 V 1.5253906 a 0.87695313,0.87695313 0 0 0 -1.753906,0 V 2.9863281 H 8.7996962 V 1.5253906 a 0.87631917,0.87631917 0 0 0 -0.875,-0.87499998 z M 5.5868056,4.7402344 h 1.4609375 v 1.4589843 a 0.87631917,0.87631917 0 0 0 1.7519531,0 V 4.7402344 h 5.2578128 v 1.4589843 a 0.87695313,0.87695313 0 0 0 1.753906,0 V 4.7402344 H 17.2704 c 0.806213,0 1.460937,0.6527715 1.460937,1.4589843 V 9.4140625 H 4.1258681 V 6.1992187 c 0,-0.8062128 0.6547247,-1.4589843 1.4609375,-1.4589843 z"
      id="path8" />
</svg>
