<svg xmlns="http://www.w3.org/2000/svg" width="32" height="32" viewBox="0 0 32 32">
  <path fill="currentColor" d="m 25.192388,25.192388 c 5.068542,-5.068541 5.068542,-13.316235 0,-18.3847762 -5.068541,-5.0685414 -13.316235,-5.0685414 -18.3847758,0 -5.068542,5.0685412 -5.068542,13.3162352 0,18.3847762 5.0685408,5.068542 13.3162348,5.068542 18.3847758,0 m -1.414213,-1.414213 c -4.304159,4.304159 -11.252191,4.304159 -15.5563498,0 -4.304159,-4.304159 -4.304159,-11.252191 0,-15.5563496 4.3041588,-4.304159 11.2521908,-4.304159 15.5563498,0 4.304159,4.3041586 4.304159,11.2521906 0,15.5563496 m -2.740039,-2.740039 v -1.018234 -8.041218 l -2.011719,-0.02333 v 5.656854 l -7.269058,-7.269057 -1.414213,1.414213 7.269057,7.269058 h -5.656854 l 0.02404,2.012426 8.041925,-7.07e-4 h 1.018234 z" id="path1" />
</svg>
