<svg viewBox="0 0 32 32" width="32" height="32" xmlns="http://www.w3.org/2000/svg">
  <g
     id="ev"
     transform="matrix(0.11309894,0,0,0.11632708,-12.942019,-13.505189)">
    <path
	   fill="currentColor"
       d="m 218.8,250.5 c 3.2,-3 7.7,-4.5 13.7,-4.5 6,0 10.5,1.5 13.6,4.5 3.1,3 4.8,7 4.8,12.4 v 8 a 16,16 0 0 1 -4.7,12.2 c -3.2,3 -7.8,4.5 -13.7,4.5 -5.9,0 -10.5,-1.6 -13.7,-4.6 -3.2,-3 -4.8,-7 -4.8,-12.2 v -8 c 0,-5.3 1.6,-9.4 4.8,-12.4 z m 71.2,-1.6 c 0.3,0.8 0.1,1.7 -0.6,2.6 l -53,73.3 c -1,1.5 -2,2.4 -2.8,2.8 -0.8,0.4 -2.3,0.6 -4.6,0.6 h -4.3 c -1.4,0 -2.2,-0.4 -2.5,-1.1 -0.3,-0.7 -0.2,-1.7 0.6,-2.8 l 53,-73.3 c 1,-1.5 1.8,-2.3 2.6,-2.7 0.8,-0.3 2.3,-0.5 4.4,-0.5 h 4.8 c 1.3,0 2,0.4 2.4,1.1 z m -57.5,7.6 c -5.2,0 -7.7,2.3 -7.7,7 v 6.7 c 0,4.6 2.5,7 7.7,7 5.2,0 7.6,-2.4 7.6,-7 v -6.8 c 0,-4.6 -2.5,-6.9 -7.6,-6.9 z m 33.4,36.4 c 3.1,-3 7.7,-4.5 13.6,-4.5 5.9,0 10.5,1.5 13.7,4.5 3.2,3 4.8,7.1 4.8,12.4 v 8 c 0,5.3 -1.6,9.3 -4.8,12.3 -3.2,3 -7.7,4.4 -13.7,4.4 -6,0 -10.5,-1.5 -13.6,-4.4 -3.2,-3 -4.8,-7 -4.8,-12.2 v -8 c 0,-5.4 1.6,-9.5 4.8,-12.5 z m 13.6,6 c -5,0 -7.6,2.4 -7.6,7 v 6.7 c 0,4.6 2.5,7 7.6,7 5.1,0 7.7,-2.4 7.7,-7 v -6.7 c 0,-4.6 -2.5,-7 -7.7,-7 z"
       id="path2" />
    <path
       fill="none"
       stroke="currentColor"
       stroke-miterlimit="10"
       stroke-width="15"
       d="m 255.9,136.58 c -48.7,72 -80,117 -80,160.7 0,43.7 35.8,79.3 80,79.3 44.2,0 80,-35.5 80,-79.3 0,-43.8 -31.3,-88.8 -80,-160.7 z"
       id="path1" />
  </g>
</svg>
