<?xml version="1.0" encoding="UTF-8" standalone="no"?>
<svg
   viewBox="0 0 24 24"
   version="1.1"
   id="svg1"
   width="24"
   height="24"
   xmlns="http://www.w3.org/2000/svg"
   xmlns:svg="http://www.w3.org/2000/svg">
  <defs
     id="defs1" />
  <rect
     width="24"
     height="24"
     fill="none"
     id="rect1"
     x="0"
     y="0"
     style="stroke-width:1;stroke-dasharray:none" />
  <line
     x1="9"
     y1="21"
     x2="15"
     y2="21"
     fill="none"
     stroke="currentColor"
     stroke-linecap="round"
     stroke-linejoin="round"
     stroke-width="1.125"
     id="line1"
     style="stroke-width:1;stroke-dasharray:none" />
  <path
     d="m 18.75,9.75 c 0,3.358125 0.778125,6.05625 1.396875,7.125 C 20.434968,17.373983 20.076175,17.997971 19.5,18 H 4.5 C 3.9246565,17.996539 3.5673126,17.373265 3.855,16.875 4.4728125,15.80625 5.25,13.107188 5.25,9.75 5.25,6.0220754 8.2720777,3.0000029 12,3.0000029"
     fill="none"
     stroke="currentColor"
     stroke-linecap="round"
     stroke-linejoin="round"
     stroke-width="1.125"
     id="path1"
     style="stroke-width:1;stroke-dasharray:none" />
  <path
     fill="none"
     stroke="currentColor"
     stroke-miterlimit="10"
     stroke-width="0.571426"
     d="m 16.86175,1.4313859 c -1.892853,0 -3.428565,1.5357114 -3.428565,3.4285647 0,1.8928533 1.535712,3.4285647 3.428565,3.4285647 1.892853,0 3.428565,-1.5357114 3.428565,-3.4285647 0,-1.8928533 -1.535712,-3.4285647 -3.428565,-3.4285647 z"
     id="path1-7"
     style="stroke-width:1;stroke-dasharray:none" />
  <path
     fill="none"
     stroke="currentColor"
     stroke-linecap="round"
     stroke-linejoin="round"
     stroke-width="0.571426"
     d="m 16.86175,2.9311182 v 2.2145461 h 1.714282"
     id="path2"
     style="stroke-width:1;stroke-dasharray:none" />
</svg>
