<?xml version="1.0" encoding="UTF-8" standalone="no"?>
<svg
   width="19.47604"
   height="20.093039"
   viewBox="0 0 19.47604 20.093039"
   version="1.1"
   id="svg2"
   xmlns="http://www.w3.org/2000/svg"
   xmlns:svg="http://www.w3.org/2000/svg">
  <defs
     id="defs2" />
  <path
     fill="none"
     stroke="currentColor"
     stroke-linecap="round"
     stroke-linejoin="round"
     stroke-width="1"
     d="m 9.7380202,5.5930386 c 0,0 4.9999998,5.9999994 4.9999998,8.9999994 0,2.76 -2.24,5 -4.9999998,5"
     id="path1" />
  <path
     fill="none"
     stroke="currentColor"
     stroke-linecap="round"
     stroke-linejoin="round"
     stroke-width="1"
     d="m 9.7380202,5.5930386 c 0,0 -5,5.9999994 -5,8.9999994 0,2.76 2.24,5 5,5"
     id="path2" />
  <text
     style="font-size:11px;font-family:Georgia;text-anchor:middle"
     x="9.7380199"
     y="17.093037"
     id="text4"><tspan
       id="tspan2">!</tspan></text>
  <path
     d="m 13.282923,0.50424521 c 3.266835,-0.123733 5.812606,2.42203749 5.688873,5.68887249 m -5.802651,-2.730658 c 1.633418,-0.06187 2.907014,1.211729 2.844436,2.844435"
     style="fill:none;stroke:#000000;stroke-width:1;stroke-linecap:round;stroke-dasharray:none;stroke-opacity:1"
     id="path1-8" />
  <path
     d="M 0.50424439,6.1931175 C 0.38051139,2.9262825 2.9262819,0.38051141 6.1931171,0.50424441 M 3.4624584,6.3068955 c -0.061867,-1.633418 1.2117298,-2.907014 2.8444359,-2.844436"
     style="fill:none;stroke:#000000;stroke-width:1;stroke-linecap:round;stroke-dasharray:none;stroke-opacity:1"
     id="path1-8-2" />
</svg>
