<svg
   width="24"
   height="24"
   viewBox="0 0 24 24"
   xmlns="http://www.w3.org/2000/svg">
  <path
     id="path1"
     fill="none"
     stroke="currentColor"
     stroke-width="1.5"
     stroke-linecap="round"
     stroke-linejoin="round"
	 d="m 14.744973 13.701633 c 0 0 -1.195516 0 -1.195516 0 M 9.2550272 9.1788992 c 0 0 5.4899458 0 5.4899458 0 0 0 0 9.0454678 0 9.0454678 0 0 -5.4899458 0 -5.4899458 0 z m 8.9693398 9.0454678 c 0 0 3.893848 3.740366 3.893848 3.740366 M 1.8817853 2.0352674 c 0 0 3.893848 3.740366 3.893848 3.740366 M 22.118215 2.035267 c 0 0 -3.893848 3.740366 -3.893848 3.740366 M 5.7756333 18.224367 c 0 0 -3.893848 3.740366 -3.893848 3.740366 M 5.7756333 5.7756332 c 0 0 12.4487337 0 12.4487337 0 0 0 0 12.4487338 0 12.4487338 0 0 -12.4487337 0 -12.4487337 0 z" />
</svg>
