<svg
   viewBox="0 0 24 24"
   width="24"
   height="24"
   xmlns="http://www.w3.org/2000/svg">
  <path
     fill="none"
     id="path1"
     stroke="currentColor"
     stroke-linecap="round"
     stroke-linejoin="round"
     stroke-width="1.5"
     d="m 3.8944768,10.647955 c 0,-4.4765597 3.628966,-8.1055192 8.1055232,-8.1055192 4.476556,0 8.10552,3.6289595 8.10552,8.1055192 0,4.032498 0.934387,6.371843 1.677395,7.655217 0.345948,0.599188 -0.08489,1.348483 -0.776777,1.350921 H 2.9938632 C 2.3029802,19.649941 1.8738753,18.901496 2.2193355,18.303172 2.961216,17.019798 3.8944768,14.679328 3.8944768,10.647955 Z M 1.6102955,5.2442732 C 2.5459989,3.4056721 3.9565711,1.8508945 5.6957041,0.74120498 m 12.6085909,0 C 20.043427,1.8508945 21.454,3.4056721 22.389705,5.2442732 M 8.3896652,23.258799 h 7.2049088"/>
  <!---->
</svg>
