<svg
   width="24"
   height="24"
   viewBox="0 0 24 24"
   xmlns="http://www.w3.org/2000/svg">
  <path
     fill="none"
     stroke="currentColor"
     stroke-width="1.5"
     d="M 3.267987 20.861524 V 11.256309 L 12 3.3974982 20.732013 11.256309 v 9.605453 z"
     id="path1" />
  <path
     fill="none"
     stroke="currentColor"
     stroke-width="1.5"
     d="m 11.331105 7.8789486 c -0.234978 -0.1008525 -0.448119 0.1351634 -0.347268 0.3035982 0.354634 0.61729 0.590889 1.295372 0.696614 1.9993852 0.501373 3.423644 -0.992761 2.969542 -1.056358 2.898742 -0.290082 -0.30048 -0.590561 -0.604076 -0.7860277 -0.977337 -0.05615 -0.112288 -0.2588908 -0.292162 -0.5510528 0 -0.70493 0.580163 -1.133296 1.472245 -1.044919 2.380961 0.03743 2.013941 1.8163925 3.483065 3.7669085 3.508018 1.990027 0.02391 3.744036 -1.44937 3.760672 -3.508018 4.23e-4 -1.298523 -0.391325 -2.566905 -1.123937 -3.639024 C 13.843522 9.5633948 12.694658 8.5349318 11.332144 7.8789486"
     id="path2" />
</svg>
