<svg
   width="24"
   height="24"
   viewBox="0 0 24 24"
   xmlns="http://www.w3.org/2000/svg">
  <path
     id="path1"
     fill="none"
     stroke="currentColor"
     stroke-linecap="round"
     stroke-linejoin="round"
     stroke-width="1.5"
     d="m 6.4592882 13.862233 3.5210333 3.521033 -3.6978388 3.697839 -3.5210332 -3.521033 z m 13.6777738 1.958082 h -5.563026 l 2.781513 -4.817721 z M 13.910736 8.9406399 A 1.9107358 1.9107358 0 0 1 12 10.851376 1.9107358 1.9107358 0 0 1 10.089264 8.9406399 1.9107358 1.9107358 0 0 1 12 7.0299039 1.9107358 1.9107358 0 0 1 13.910736 8.9406399 Z M 6.4592882 2.9189264 c 0 3.6477685 0 7.2955376 0 10.9433066 M 17.355549 2.9189264 c 0 2.6945556 0 5.3891113 0 8.0836676 M 12 2.9189264 c 0 1.3703258 0 2.7406516 0 4.1109775 M 2.4173704 2.9189264 H 21.58263" />
</svg>
