<svg
   width="24"
   height="24"
   viewBox="0 0 24 24"
   xmlns="http://www.w3.org/2000/svg">
  <circle
     fill="none"
     stroke="currentColor"
     stroke-linecap="round"
     stroke-linejoin="round"
     stroke-width="1.5"
     id="circle1"
     cx="12"
     cy="7.9460435"
     r="5.3642173" />
  <path
     id="path1"
     fill="none"
     stroke="currentColor"
     stroke-linecap="round"
     stroke-linejoin="round"
     stroke-width="1.5"
     d="m 4.2934546 19.272805 c 0.8791851 0 1.7583702 0 2.6375553 0 m 10.1379801 0 c 0.879186 0 1.758371 0 2.637556 0 m -6.568318 2.391022 h 5.790109 m -13.856674 0 h 5.790109 M 9.1049457 19.272805 H 14.895055 M 12 11.792113 c 0 1.827597 0 3.655195 0 5.482792 M 9.5472493 16.659336 v 0.526576 m 4.9050487 -0.526576 v 0.526576 M 9.5267783 11.34463 c 0.013647 1.035313 0.027295 2.070625 0.040942 3.105938 M 14.431827 11.34463 c 0.01365 1.035313 0.02729 2.070625 0.04094 3.105938"
 />
</svg>
