<svg
   width="24"
   height="24"
   viewBox="0 0 24 24"
   xmlns="http://www.w3.org/2000/svg">
  <path
     id="path2"
     fill="none"
     stroke="currentColor"
     stroke-width="1.5"
     stroke-linecap="round"
     stroke-linejoin="round"
     d="m 5.5621459 4.9433894 c 0 4.7258252 0 9.4516526 0 14.1774776 M 18.562117 4.9433894 c 0 4.7258252 0 9.4516526 0 14.1774776 M 8.8121389 2.9073884 c 0 6.086015 0 12.1720306 0 18.2580446 M 15.312124 2.8653992 c 0 6.086015 0 12.1720308 0 18.2580448 M 12.062132 2.3121529 V 21.812111 m 9.749979 -9.749979 a 9.7499786 9.7499786 0 0 1 -9.749979 9.749979 9.7499786 9.7499786 0 0 1 -9.7499791 -9.749979 9.7499786 9.7499786 0 0 1 9.7499791 -9.7499791 9.7499786 9.7499786 0 0 1 9.749979 9.7499791 z" />
</svg>
