<svg
   width="24"
   height="24"
   viewBox="0 0 24 24"
   xmlns="http://www.w3.org/2000/svg">
  <g
     fill="none"
     stroke="currentColor"
     stroke-linecap="round"
     stroke-linejoin="round"
     stroke-width="1.5"
     id="g2">
    <path
       d="M6.75 8.25v-3m3 3v-3m-6 6h-3m3 6h-3m3-3h-3m9 9v-3m9-3h-3m-9 6v-3m6 3v-3m3-6v4.5a1.5 1.5 0 0 1-1.5 1.5h-9a1.5 1.5 0 0 1-1.5-1.5v-9a1.5 1.5 0 0 1 1.5-1.5h7.5"
       id="path1" />
    <path
       d="m 6.75 11.25 h 6 v 6 h -6 z"
       id="path2" />
    <path
       id="path2-6"
       fill="none"
       stroke="currentColor"
       stroke-linecap="round"
       stroke-linejoin="round"
       stroke-width="1.5"
       d="m 18.329961 1.9965159 c -0.234978 -0.1008525 -0.448119 0.1351634 -0.347268 0.3035982 0.354634 0.6172899 0.590889 1.2953716 0.696614 1.9993846 0.501373 3.4236445 -0.992761 2.9695427 -1.056358 2.8987426 -0.290082 -0.3004804 -0.590561 -0.6040766 -0.786028 -0.9773375 -0.05615 -0.1122882 -0.258891 -0.2921616 -0.551053 0 -0.70493 0.5801634 -1.133296 1.4722451 -1.044919 2.3809609 0.03743 2.0139413 1.816393 3.4830653 3.766909 3.5080183 1.990027 0.02391 3.744036 -1.44937 3.760672 -3.5080183 C 22.768953 7.303342 22.377205 6.0349601 21.644593 4.9628411 20.842378 3.6809625 19.693514 2.6524995 18.331 1.9965159" />
  </g>
</svg>
