<svg
   width="24"
   height="24"
   viewBox="0 0 24 24"
   xmlns="http://www.w3.org/2000/svg">
  <path
     fill="none"
     stroke="currentColor"
     stroke-linecap="round"
     stroke-linejoin="round"
     stroke-miterlimit="10"
     stroke-width="1.5"
     d="m 4 11.252 c 0 7.687 6.918 10.387 7.887 10.728 0.07533 0.02667 0.150667 0.02667 0.226 0 C 13.084 21.65 20 19.018 20 11.253 V 4.304 C 20.000432 4.1200973 19.875414 3.959596 19.697 3.915 l -7.6 -1.903 c -0.06369 -0.015919 -0.130313 -0.015919 -0.194 0 l -7.6 1.903 C 4.124586 3.959596 3.9995682 4.1200973 4 4.304 Z"
     id="path1" />
  <path
     id="path2"
     fill="none"
     stroke="currentColor"
     stroke-linecap="round"
     stroke-linejoin="round"
     stroke-width="1.5"
     d="m 7.103096 10.987071 h 6.980637 m 2.813171 0 h -2.813171 m 0 0 2.109879 -2.1098788 m -2.109879 2.1098788 2.109879 2.109878 M 7.806389 8.8771922 9.916266 10.987071 7.806389 13.096949 M 12 6.0901662 v 6.9806378 m 0 2.813171 v -2.813171 m 0 0 2.109878 2.109879 M 12 13.070804 9.890122 15.180683 M 14.109878 6.7934592 12 8.9033362 9.890122 6.7934592" />
</svg>
