<svg
   width="24"
   height="24"
   viewBox="0 0 24 24"
   xmlns="http://www.w3.org/2000/svg">
  <path
     id="path1"
     fill="none"
     stroke="currentColor"
     stroke-linecap="round"
     stroke-linejoin="round"
     stroke-width="1.5"
     d="m 6.3151393 12.037891 c 0.6562123 0 1.3124246 0 1.968637 0 M 15.716224 12 c 0.656212 0 1.312424 0 1.968637 0 m -6.669179 0.01895 c 0.656212 0 1.312424 0 1.968637 0 M 1.6625513 13.598562 H 3.7221214 M 1.6625513 10.430079 h 2.0595701 m 16.5557576 3.139842 h 2.05957 m -2.05957 -3.168483 h 2.05957 m -2.05957 -0.6875029 v 4.5721299 m 0 0 c 0 0.217574 -0.193007 0.392733 -0.432751 0.392733 H 4.1548726 c -0.2397441 0 -0.4327511 -0.175159 -0.4327511 -0.392733 V 9.7139351 c 0 -0.2175741 0.193007 -0.3927331 0.4327511 -0.3927331 H 19.845128 c 0.239744 0 0.432751 0.175159 0.432751 0.3927331" />
</svg>
