<svg
   width="24"
   height="24"
   viewBox="0 0 24 24"
   xmlns="http://www.w3.org/2000/svg">
  <path
     id="path1"
     fill="none"
     stroke="currentColor"
     stroke-linecap="round"
     stroke-linejoin="round"
     stroke-width="1.5"
     d="m 14.498141 11.99565 v 0.0087 m -4.9962818 -0.0087 v 0.0087 M 12 18 v -1.5 m 0 -9 V 6 M 4.2108192 3.2108192 H 19.789181 c 0.554 0 1 0.446 1 1 V 19.789181 c 0 0.554 -0.446 1 -1 1 H 4.2108192 c -0.554 0 -1 -0.446 -1 -1 V 4.2108192 c 0 -0.554 0.446 -1 1 -1 z M 18 12 c 0 3.313708 -2.686292 6 -6 6 -3.3137085 0 -6 -2.686292 -6 -6 0 -3.3137085 2.6862915 -6 6 -6 3.313708 0 6 2.6862915 6 6 z" />
</svg>
