<svg
   width="24"
   height="24"
   viewBox="0 0 24 24"
   xmlns="http://www.w3.org/2000/svg">
  <path
     id="path1"
     fill="none"
     stroke="currentColor"
     stroke-linecap="round"
     stroke-linejoin="round"
     stroke-width="1.5"
     d="m 15.082314 19.085344 c 0.72973 0 1.459461 0 2.189192 0 m -7.265776 0 c 0.729731 0 1.459462 0 2.189193 0 m -7.1175294 0 c 0.7297309 0 1.4594619 0 2.1891928 0 M 15.082313 4.957933 c 0.729731 0 1.459461 0 2.189192 0 m 2.01338 12.779112 c 0 -0.729731 0 -1.459462 0 -2.189193 m 1e-6 -2.553171 c 0 -0.729731 0 -1.459462 0 -2.189193 m -0.02895 -2.611562 c 0 -0.7297309 0 -1.4594619 0 -2.1891928 M 10.00573 4.957933 c 0.729731 0 1.459462 0 2.189193 0 m -7.1175296 0 c 0.7297309 0 1.4594619 0 2.1891928 0 m 8.9709378 2.8045442 v 8.4750458 m 5.609087 0 v 5.609088 H 2.153389 v -5.609088 h 14.084135 m 0 -8.4750458 H 2.153389 V 2.153389 h 19.693222 v 14.084134" />
</svg>
