<svg
   width="24"
   height="24"
   viewBox="0 0 24 24"
   xmlns="http://www.w3.org/2000/svg">
  <path
     id="path1"
     fill="none"
     stroke="currentColor"
     stroke-width="1.5"
     d="m 19.20692 17.230679 a 1.600841 1.600841 0 1 1 -3.201682 0 1.600841 1.600841 0 0 1 3.201682 0 z m -0.860795 4.741691 a 1.0839979 1.0839979 0 0 1 -0.740046 0.289523 1.0839979 1.0839979 0 0 1 -0.739588 -0.289523 c -1.816269 -1.71107 -4.250461 -3.622474 -3.063552 -6.397418 0.642623 -1.500216 2.183089 -2.460721 3.803598 -2.460721 1.620508 0 3.161432 0.960505 3.80314 2.460721 1.185537 2.771742 -1.24271 4.692294 -3.063552 6.397418 z" />
  <path
     fill="none"
     stroke="currentColor"
     stroke-width="1.5"
     stroke-linecap="round"
     d="M 11.61681 20.861524 H 3.267987 V 11.256309 L 12 3.3974978 20.732013 11.256309"
     id="path2" />
</svg>
