<svg
   width="24"
   height="24"
   viewBox="0 0 24 24"
   xmlns="http://www.w3.org/2000/svg">
  <path
     fill="none"
     stroke="currentColor"
     stroke-linecap="round"
     stroke-linejoin="round"
     stroke-width="1.5"
     d="M 16 5.5 H 8 m 8 0 c 0 0 3 2.5 3 5 v 8.002 c -0.0011 1.656073 -1.343926 2.998 -3 2.998 H 8 C 6.343 21.5 5 20.159 5 18.502 V 10.5 C 5 8 8 5.5 8 5.5 m 8 0 v -3 H 8 v 3 m -2 0 h 12"
     id="path1" />
  <path
     id="path3"
     fill="none"
     stroke="currentColor"
     stroke-linecap="round"
     stroke-linejoin="round"
     stroke-width="1.5"
     d="m 8.7281968 16.725827 c 1.0443066 -0.14955 2.0886132 -0.2991 2.4020272 -0.95454 0.313414 -0.655438 -0.104048 -1.816721 0.235205 -2.42079 0.339251 -0.604069 1.435159 -0.650898 2.045824 -1.143729 0.610664 -0.492833 0.736013 -1.431626 0.861364 -2.370439 m 0.773619 5.695035 a 3.5174909 4.5452352 30 0 1 -5.3188537 2.177543 3.5174909 4.5452352 30 0 1 -0.7736186 -5.695035 3.5174909 4.5452352 30 0 1 5.3188533 -2.177543 3.5174909 4.5452352 30 0 1 0.773619 5.695035 z" />
</svg>
