<svg
   width="24"
   height="24"
   viewBox="0 0 24 24"
   xmlns="http://www.w3.org/2000/svg">
  <path
     id="path1"
     fill="none"
     stroke="currentColor"
     stroke-linecap="round"
     stroke-linejoin="round"
     stroke-width="1.5"
     d="m 19.267492 15.543309 c 0 1.007113 0 2.014225 0 3.021338 m -4.629977 -3.021338 c 0 1.007113 0 2.014225 0 3.021338 M 9.6978286 15.543309 c 0 1.007113 0 2.014225 0 3.021338 M 4.7825692 15.543309 c 0 1.007113 0 2.014225 0 3.021338 m 12.5271418 -0.002 c 0 1.007113 0 2.014225 0 3.021338 m -4.939687 -3.021338 c 0 1.007113 0 2.014225 0 3.021338 M 7.4547646 18.562661 c 0 1.007113 0 2.014225 0 3.021338 m 9.8549464 -9.049007 c 0 1.007113 0 2.014225 0 3.021338 m -4.939687 -3.021338 c 0 1.007113 0 2.014225 0 3.021338 M 7.4547646 12.534992 c 0 1.007113 0 2.014225 0 3.021338 m -5.4988938 2.998678 c 6.6677053 0 13.3354112 0 20.0031162 0 M 1.9558707 15.55633 H 21.958987 M 2.5684668 12.534992 H 21.431533 c 0.339183 0 0.612244 0.347598 0.612244 0.779367 v 7.479238 c 0 0.431769 -0.273061 0.779367 -0.612244 0.779367 H 2.5684668 c -0.3391828 0 -0.6122433 -0.347598 -0.6122433 -0.779367 v -7.479238 c 0 -0.431769 0.2730605 -0.779367 0.6122433 -0.779367 z m 9.8015572 0 V 7.4316028 5.4491098 C 12.797723 4.9473004 13.05448 4.22003 13.65312 3.9436816 c 0.735981 -0.3397484 1.704384 -0.3466934 2.57247 -0.265625 0.719071 0.067152 0.254595 1.5348437 -0.06342 2.4272655 -0.341884 0.6001583 -0.836697 1.0934864 -1.447526 1.331725 -0.725239 0.2828613 -1.566172 -0.00544 -2.34462 -0.00544 -0.923327 0.00825 -1.905269 0.225474 -2.7699807 0.02474 C 8.8116575 7.2733314 8.2810711 6.9097175 7.8051097 6.3369265 7.3347809 5.7709139 7.1510683 5.0056843 6.9751941 4.2910881 c -0.1612336 -0.6551098 -0.4230131 -1.8032579 0 -1.8335344 0.9230694 -0.066067 1.7649881 -0.1244344 2.6055489 0.096502 0.623361 0.1638466 1.258954 0.435106 1.717732 0.8878167 0.539864 0.5327232 0.714366 1.3381584 1.071549 2.0072376" />
</svg>
