<svg
   width="24"
   height="24"
   viewBox="0 0 24 24"
   xmlns="http://www.w3.org/2000/svg">
  <path
     id="path5"
	 fill="none"
     stroke="currentColor"
     stroke-width="1.5"
     stroke-linecap="round"
     d="M 8.0885692 13.955097 C 8.9106402 12.797604 9.8397763 12.020411 12 12.020411 m 3.911431 1.934686 C 15.08936 12.797604 14.160224 12.020411 12 12.020411 m 1.917809 -4.329133 a 1.9178091 1.9178091 0 1 1 -3.835618 0 1.9178091 1.9178091 0 0 1 3.835618 0 z M 13.61757 21.366997 a 2.37 2.37 0 0 1 -1.618 0.633 2.37 2.37 0 0 1 -1.617 -0.633 c -3.971 -3.741 -9.293 -7.92 -6.698 -13.9870003 1.405 -3.28 4.773 -5.38 8.316 -5.38 3.543 0 6.912 2.1 8.315 5.38 2.592 6.0600003 -2.717 10.2590003 -6.698 13.9870003 z"/>
</svg>
