<svg
   width="24"
   height="24"
   viewBox="0 0 24 24"
   xmlns="http://www.w3.org/2000/svg">
  <path
     id="path4"
     fill="none"
     stroke="currentColor"
     stroke-linecap="round"
	 stroke-linejoin="round"
     stroke-width="1.5"
     d="m 14.845814 5.9046054 h 5.94264 v 1.600259 c 0.0012 3.9629676 -5.94143 3.9629676 -5.94264 0 0.0013 -0.897305 -0.01316 -1.272399 0 -1.600259 z m 1.358672 0 v -2.420004 m 3.22633 2.420004 v -2.420004 m -1.613681 6.9905506 c 0 0 0.237672 2.199398 0.04094 4.318985 -0.181026 1.95037 -1.410021 4.164451 -3.193917 4.932473 C 11.398791 21.13245 6.7255966 20.597027 4.1101589 18.189021 3.2775336 17.422432 3.0553497 15.974947 3.3453296 14.880947 3.9559349 12.577332 6.9823514 10.435698 8.194692 9.6274714 M 4.9617837 12.456265 C 2.8086668 7.7200551 7.2531075 6.1811904 10.558757 6.0033804 c 0.399264 -0.021822 0.598088 -0.032329 0.741952 0.1058777 0.143057 0.1373986 0.134166 0.3354143 0.118001 0.7290209 -0.13659 3.275744 -1.6116049 7.725034 -6.4569263 5.617986" />
</svg>
