<svg
   width="24"
   height="24"
   viewBox="0 0 24 24"
   xmlns="http://www.w3.org/2000/svg">
  <path
     id="path1"
     fill="none"
     stroke="currentColor"
     stroke-linecap="round"
     stroke-linejoin="round"
     stroke-width="1.5"
     d="M 3.5000223 4.1649999 V 10.5 c 0 2.976 0.0785 5.095 0.145 6.3565 M 20.500023 4.1654999 V 10.5 c 0 2.976 -0.0785 5.095 -0.145 6.3565 m -8.355 2.8935 v 3 M 1.5300223 2.186 c 0.06 -0.5265 0.5275 -0.8040001 1.0575 -0.8230001 1.23 -0.0445 4.005 -0.113 9.4125007 -0.113 5.4075 0 8.182 0.0685 9.4125 0.113 0.53 0.019 0.9975 0.2965001 1.058 0.8230001 0.018 0.158 0.0295 0.3449999 0.0295 0.564 0 0.2195 -0.0115 0.4059999 -0.03 0.564 -0.06 0.5265 -0.5275 0.804 -1.0575 0.823 -1.23 0.0445 -4.005 0.113 -9.4125 0.113 -5.4075007 0 -8.1820007 -0.0685 -9.4125007 -0.113 -0.53 -0.019 -0.9975 -0.2965 -1.058 -0.823 a 5 5 0 0 1 -0.0295 -0.564 c 0 -0.2195 0.0115 -0.406 0.03 -0.564 m 0.9909774 15.557 c 0.0505 -0.557 0.533 -0.864 1.092 -0.885 1.173 -0.0445 3.675 -0.108 8.3870003 -0.108 4.7115 0 7.214 0.0635 8.387 0.108 0.559 0.021 1.0415 0.328 1.092 0.885 q 0.02 0.2175 0.021 0.507 c 0.001 0.2895 -0.008 0.3615 -0.021 0.507 -0.0505 0.557 -0.533 0.864 -1.092 0.885 -1.173 0.0445 -3.675 0.108 -8.387 0.108 -4.7120003 0 -7.2140003 -0.0635 -8.3870003 -0.108 -0.559 -0.021 -1.0415 -0.328 -1.092 -0.885 q -0.02 -0.2175 -0.021 -0.507 c -10e-4 -0.2895 0.008 -0.3615 0.021 -0.507" />
  <path
     id="path2"
     fill="none"
     stroke="currentColor"
     stroke-linecap="round"
     stroke-linejoin="round"
     stroke-width="1.5"
     d="M 12 13.167103 V 8.2397684 L 10.202857 9.7289466 M 12 8.2397684 13.797143 9.7289466" />
</svg>
