<svg
   width="24"
   height="24"
   viewBox="0 0 24 24"
   xmlns="http://www.w3.org/2000/svg">
  <path
     id="path1"
     fill="none"
     stroke="currentColor"
     stroke-linecap="round"
     stroke-linejoin="round"
     stroke-width="1.5"
     d="m 21.206273 10.25 c -1.379976 0 -2.759952 0 -4.139928 0 m 4.139928 -5.1800362 c -1.379976 0 -2.759952 0 -4.139928 0 M 19.136309 3 c 0 1.3799759 0 2.7599517 0 4.1399276 M 9 14 a 2 2 0 1 0 0 4 2 2 0 0 0 0 -4 m 0 0 v -3 m -3 1 c -3.8446252 2.883469 -1.8044621 8.999499 3 8.999499 4.804462 0 6.844625 -6.11603 3 -8.999499 M 6 12 V 3 h 6 v 9 m 0 -9 h 2 m -2 3 h 2 m -2 3 h 2" />
</svg>
