<svg
   width="24"
   height="24"
   viewBox="0 0 24 24"
   xmlns="http://www.w3.org/2000/svg">
  <path
     id="path1"
     fill="none"
     stroke="currentColor"
     stroke-linecap="round"
     stroke-linejoin="round"
     stroke-width="1.5"
     d="m 9.9733591 19.066322 h 4.0532829 v 2.743131 H 9.9733591 Z m 0 -2.721355 h 4.0532829 v 2.743131 H 9.9733591 Z M 12 8.1778249 v 8.1671431 m 1 -9.167143 a 1 1 0 0 1 -1 1 1 1 0 0 1 -1 -1 1 1 0 0 1 1 -1 1 1 0 0 1 1 1 z M 1.3491022 9.4437479 V 4.9119021 m 0 0 3.4161641 -5e-7 3.924694 2.2659233 -3.924694 2.265923 H 1.3491022 m 17.3771768 0 V 4.9119017 l 3.924694 2.2659232 z M 8.6899603 7.1778251 H 18.726278" />
</svg>
