<svg
   viewBox="0 0 24 24"
   width="24"
   height="24"
   xmlns="http://www.w3.org/2000/svg">
   <path
     id="path1"
     fill="none"
     stroke="currentColor"
     stroke-linecap="round"
     stroke-linejoin="round"
     stroke-width="1.5"
     d="m 20.213143 11.294066 a 2.2798986 2.2798986 0 0 1 -2.279898 2.279898 2.2798986 2.2798986 0 0 1 -2.279899 -2.279898 2.2798986 2.2798986 0 0 1 2.279899 -2.2798985 2.2798986 2.2798986 0 0 1 2.279898 2.2798985 z M 17.933245 9.0141681 c 0 -1.7778278 0 -3.5556557 0 -5.3334835 M 14.309797 18.039417 A 2.2798986 2.2798986 0 0 1 12.029899 20.319315 2.2798986 2.2798986 0 0 1 9.75 18.039417 a 2.2798986 2.2798986 0 0 1 2.279899 -2.279899 2.2798986 2.2798986 0 0 1 2.279898 2.279899 z M 12.029899 15.759519 C 12.019932 11.73386 12.009966 7.7082005 12 3.6825413 M 8.1832442 13.615626 A 2.2798986 2.2798986 0 0 1 5.9033456 15.895524 2.2798986 2.2798986 0 0 1 3.6234469 13.615626 2.2798986 2.2798986 0 0 1 5.9033456 11.335727 2.2798986 2.2798986 0 0 1 8.1832442 13.615626 Z M 5.9033456 11.335727 c 1e-7 -2.5510616 1e-7 -5.1021237 2e-7 -7.6531857 m -2.3197028 0 h 16.832714" />
</svg>
