<svg
   width="24"
   height="24"
   viewBox="0 0 24 24"
   xmlns="http://www.w3.org/2000/svg">
  <path
     id="path"
	 fill="none"
     stroke="currentColor"
     stroke-linecap="round"
     stroke-linejoin="round"
     stroke-width="1.5"
     d="m 19.19463 17.846216 a 1.5 1.5 0 0 1 -1.5 1.5 1.5 1.5 0 0 1 -1.5 -1.5 1.5 1.5 0 0 1 1.5 -1.5 1.5 1.5 0 0 1 1.5 1.5 z m -0.499999 4.5 h -2 l -0.2755 -1.24 a 3.5 3.5 0 0 1 -0.9095 -0.525 l -1.212 0.3815 -1 -1.731999 0.936 -0.859 a 3.5 3.5 0 0 1 0 -1.05 l -0.936 -0.8595 1 -1.732 1.212 0.3815 a 3.5 3.5 0 0 1 0.91 -0.5255 l 0.275 -1.24 h 2 l 0.2755 1.24 a 3.5 3.5 0 0 1 0.9095 0.525 l 1.212 -0.3815 1 1.732 -0.936 0.859 a 3.5 3.5 0 0 1 0 1.05 l 0.936 0.859 -1 1.731999 -1.212 -0.3815 a 3.5 3.5 0 0 1 -0.9095 0.526 z M 12 8.5 v 5 L 8.8590438 15.47026 M 3 5.231 6.15 3 M 21 5.231 17.85 3 M 11.212368 20.961715 C 7.1637833 20.566072 4 17.152511 4 13 4 8.581719 7.5817221 5.0000035 12 5.0000035 c 4.248795 0 6.858007 3.0617276 7.6678 5.7165585" />
</svg>
