<svg
   width="24"
   height="24"
   viewBox="0 0 24 24"
   xmlns="http://www.w3.org/2000/svg">
  <path
     id="path1"
     fill="none"
     stroke="currentColor"
     stroke-linecap="round"
     stroke-linejoin="round"
     stroke-width="1.5"
     d="m 7.2055884 10.36789 c 0.4241832 -0.9202381 1.731964 -0.9202381 2.1561472 0 l 0.1536078 0.333287 a 1.1865856 1.1865856 0 0 0 1.4881646 0.616545 l 0.345265 -0.126832 c 0.949832 -0.350902 1.874298 0.573563 1.523396 1.5241 l -0.126832 0.344561 a 1.1865856 1.1865856 0 0 0 0.616545 1.488164 l 0.333991 0.153608 c 0.919534 0.424183 0.919534 1.731964 0 2.156147 l -0.333991 0.153608 a 1.1865856 1.1865856 0 0 0 -0.616545 1.488164 l 0.126832 0.345266 c 0.350902 0.949832 -0.573564 1.874298 -1.5241 1.523395 l -0.344561 -0.126832 a 1.1865856 1.1865856 0 0 0 -1.4881646 0.616545 l -0.1536078 0.333287 c -0.4241832 0.920238 -1.731964 0.920238 -2.1561472 0 L 7.0519805 20.857616 A 1.1865856 1.1865856 0 0 0 5.5638161 20.241071 L 5.2185507 20.367903 C 4.2687186 20.718806 3.3442528 19.79434 3.6944506 18.843803 L 3.8219874 18.499242 A 1.1865856 1.1865856 0 0 0 3.2054421 17.011078 L 2.8714506 16.85747 c -0.9195333 -0.424183 -0.9195333 -1.731964 0 -2.156147 L 3.2054421 14.547715 A 1.1865856 1.1865856 0 0 0 3.8219874 13.059551 L 3.6951552 12.714285 c -0.3509024 -0.949832 0.5735634 -1.874297 1.5241002 -1.5241 l 0.3445607 0.127537 A 1.1865856 1.1865856 0 0 0 7.0519805 10.701177 L 7.2055884 10.367185 Z M 16.719066 2.6090772 c 0.301252 -0.6535451 1.230026 -0.6535451 1.531278 0 l 0.109091 0.2366974 a 0.84270292 0.84270292 0 0 0 1.056881 0.4378653 l 0.245205 -0.090075 c 0.674562 -0.2492078 1.33111 0.4073398 1.081902 1.0824029 l -0.09007 0.2447041 a 0.84270292 0.84270292 0 0 0 0.437865 1.0568816 l 0.237198 0.109091 c 0.653045 0.3012512 0.653045 1.2300258 0 1.531277 l -0.237198 0.109091 a 0.84270292 0.84270292 0 0 0 -0.43787 1.0568814 l 0.09007 0.2452045 c 0.249208 0.6745627 -0.40734 1.3311105 -1.082403 1.0819025 l -0.244699 -0.090075 a 0.84270292 0.84270292 0 0 0 -1.056881 0.4378651 l -0.109091 0.236698 c -0.301252 0.653545 -1.230026 0.653545 -1.531278 0 L 16.609975 10.058791 A 0.84270292 0.84270292 0 0 0 15.553094 9.6209257 l -0.245205 0.090075 C 14.633327 9.9602089 13.976779 9.3036611 14.225487 8.628598 l 0.09058 -0.2447041 A 0.84270292 0.84270292 0 0 0 13.878197 7.3270123 l -0.237198 -0.109091 c -0.653045 -0.3012512 -0.653045 -1.2300258 0 -1.531277 l 0.237198 -0.109091 A 0.84270292 0.84270292 0 0 0 14.316062 4.5206717 L 14.225987 4.2754672 C 13.976779 3.6009045 14.633327 2.9443569 15.30839 3.1930643 l 0.244704 0.090576 A 0.84270292 0.84270292 0 0 0 16.609975 2.845775 l 0.109091 -0.2371978 z m 1.909186 3.8432059 a 1.1435465 1.1435465 0 0 1 -1.143547 1.1435465 1.1435465 1.1435465 0 0 1 -1.143546 -1.1435465 1.1435465 1.1435465 0 0 1 1.143546 -1.1435465 1.1435465 1.1435465 0 0 1 1.143547 1.1435465 z m -8.23072 9.3271129 a 2.1138699 2.1138699 0 1 1 -4.2277398 0 2.1138699 2.1138699 0 0 1 4.2277398 0 z" />
</svg>
