<svg
   width="24"
   height="24"
   viewBox="0 0 24 24"
   xmlns="http://www.w3.org/2000/svg">
  <path
     id="path1"
     fill="none"
     stroke="currentColor"
     stroke-linecap="round"
     stroke-linejoin="round"
     stroke-width="1.5"
     d="M 4.9781105,16.196002 H 19.042269 M 8.9015333,19.836627 10.198408,13.789752 m 3.5625,0.0625 1.34375,6.03125 M 8.5591559,10.378633 c -3e-7,-1.8857758 1.5288351,-3.4144997 3.4147491,-3.4145 1.885915,-1e-7 3.41475,1.528724 3.41475,3.4145 M 11.996764,2.8671077 v 1.365896 M 4.4843156,10.378633 h 1.365896 m 12.2931034,0 h 1.365896 M 7.6572195,6.0386572 6.6908445,5.0731382 m 10.6113045,-5.92e-4 -0.965519,0.966375 m 5.128381,14.2424828 a 0.68295001,0.68295001 0 0 1 -0.589897,0.34148 H 3.1184126 A 0.68295001,0.68295001 0 0 1 2.520833,19.603583 L 5.9944878,13.457026 A 0.68295001,0.68295001 0 0 1 6.5920675,13.110432 H 17.400603 a 0.68295001,0.68295001 0 0 1 0.59758,0.346594 l 3.473654,6.146557 a 0.68295001,0.68295001 0 0 1 -0.0072,0.677821" />
</svg>
