<svg
   width="24"
   height="24"
   viewBox="0 0 24 24"
   xmlns="http://www.w3.org/2000/svg">
  <path
     fill="none"
     stroke="currentColor"
     stroke-linecap="round"
     stroke-linejoin="round"
     stroke-width="1.5"
     d="m 18.613547 22.354784 h -2 l -0.2755 -1.24 a 3.5 3.5 0 0 1 -0.9095 -0.525 l -1.212 0.3815 -1 -1.731999 0.936 -0.859 a 3.5 3.5 0 0 1 0 -1.05 l -0.936 -0.8595 1 -1.732 1.212 0.3815 a 3.5 3.5 0 0 1 0.91 -0.5255 l 0.275 -1.24 h 2 l 0.2755 1.24 a 3.5 3.5 0 0 1 0.9095 0.525 l 1.212 -0.3815 1 1.732 -0.936 0.859 a 3.5 3.5 0 0 1 0 1.05 l 0.936 0.859 -1 1.731999 -1.212 -0.3815 a 3.5 3.5 0 0 1 -0.9095 0.526 z"
     id="path1" />
  <circle
     cx="17.613546"
     cy="17.854784"
     r="1.5"
     id="circle1"
     fill="none"
     stroke="currentColor"
     stroke-width="1.5"/>
  <path
     fill="none"
     stroke="currentColor"
     stroke-width="1.5"
     d="m 14.039908 20.861524 -10.771921 0 V 11.256309 L 12 3.3974978 20.732013 11.256309 v 3.507328"
     id="path2"
 />
</svg>
