<svg
   width="24"
   height="24"
   viewBox="0 0 24 24"
   xmlns="http://www.w3.org/2000/svg">
  <path
     id="path1"
     fill="none"
     stroke="currentColor"
     stroke-linecap="round"
     stroke-linejoin="round"
     stroke-width="1.5"
     d="M 17.783 15.25 A 5.783 5.7831321 0 0 1 12 21.033132 5.783 5.7831321 0 0 1 6.217 15.25 5.783 5.7831321 0 0 1 12 9.4668679 5.783 5.7831321 0 0 1 17.783 15.25 Z M 2.7662241 8.530131 C 2.6424911 5.263296 5.1882616 2.7175249 8.4550968 2.8412579 M 5.7244381 8.643909 C 5.6625711 7.010491 6.9361679 5.736895 8.568874 5.799473 m 6.976029 -2.9582143 c 3.266835 -0.123733 5.812606 2.4220375 5.688873 5.6888725 m -5.802651 -2.730658 c 1.633418 -0.06187 2.907014 1.211729 2.844436 2.844435"
 />
  <path
     id="path2"
     fill="none"
     stroke="currentColor"
     stroke-linecap="butt"
     stroke-linejoin="miter"
     stroke-width="1.5"
     d="M 15.147701 15.25 H 8.852299 M 12 12.102299 v 6.295402"/>
</svg>
