<svg
   width="14"
   height="14"
   viewBox="0 0 14 14"
   xmlns="http://www.w3.org/2000/svg">
  <path
     id="path4"
     fill="none"
     stroke="currentColor"
     stroke-linecap="round"
     stroke-linejoin="round"
     stroke-width="1"
     d="M 11.182948 13.461162 H 9.8382111 l -0.185237 -0.833736 a 2.3532906 2.3532906 0 0 1 -0.61152 -0.352994 l -0.814911 0.256509 -0.6723686 -1.164543 0.6293376 -0.577565 a 2.3532906 2.3532906 0 0 1 0 -0.705986 L 7.5541745 9.5049449 8.2265431 8.3404026 9.0414541 8.5969112 a 2.3532906 2.3532906 0 0 1 0.611856 -0.3533298 l 0.184901 -0.8337372 h 1.3447369 l 0.185238 0.8337372 a 2.3532906 2.3532906 0 0 1 0.611519 0.3529936 l 0.814911 -0.2565087 0.672369 1.1645422 -0.629337 0.5775655 a 2.3532906 2.3532906 0 0 1 0 0.705988 l 0.629337 0.577564 -0.672369 1.164542 -0.814911 -0.256508 a 2.3532906 2.3532906 0 0 1 -0.611519 0.353666 z M 6 8.12 C 3 8.12 0.5 7.17 0.5 6 m 0 -3.38 v 6.76 c 0 1.17 2.44 2.11 5.5 2.12 M 6 4.74 c 3.038 0 5.5 -0.95 5.5 -2.12 C 11.5 1.45 9.038 0.5 6 0.5 2.962 0.5 0.5 1.45 0.5 2.62 0.5 3.79 2.962 4.74 6 4.74 m 5.5 0.7485404 V 2.62" />
  <circle
     cx="10.510579"
     cy="10.435502"
     r="0.76016301"
     id="circle1"
     fill="none"
     stroke="currentColor"
     stroke-width="1" />
</svg>
