<svg
   width="24"
   height="24"
   viewBox="0 0 24 24"
   xmlns="http://www.w3.org/2000/svg">
  <path
     fill="none"
     id="path1"
     stroke="currentColor"
     stroke-linecap="round"
     stroke-linejoin="round"
     stroke-width="1.5"
     d="m 18.699152 17.182192 h 2.300106 M 18.699152 6.4430196 h 2.300106 M 12.568208 17.182192 H 15.62967 M 12.568208 6.4430196 H 15.62967 M 6.437262 17.182192 H 9.4987274 M 6.437262 6.4430196 H 9.4987274 M 4.8985157 3.3815542 h 0.00801 c 0.8480259 0 1.5307327 0.6827069 1.5307327 1.5307329 V 18.712925 c 0 0.848026 -0.6827068 1.530732 -1.5307327 1.530732 h -0.00801 c -0.8480259 0 -1.5307329 -0.682706 -1.5307329 -1.530732 V 4.9122871 c 0 -0.848026 0.682707 -1.5307329 1.5307329 -1.5307329 z m 12.2618873 0 h 0.008 c 0.848026 0 1.530732 0.6827069 1.530732 1.5307329 V 18.712925 c 0 0.848026 -0.682706 1.530732 -1.530732 1.530732 h -0.008 c -0.848026 0 -1.530732 -0.682706 -1.530732 -1.530732 V 4.9122871 c 0 -0.848026 0.682706 -1.5307329 1.530732 -1.5307329 z m -6.130944 0 h 0.008 c 0.848026 0 1.530733 0.6827069 1.530733 1.5307329 V 18.712925 c 0 0.848026 -0.682707 1.530732 -1.530733 1.530732 h -0.008 c -0.848024 0 -1.5307311 -0.682706 -1.5307311 -1.530732 V 4.9122871 c 0 -0.848026 0.6827071 -1.5307329 1.5307311 -1.5307329 z" />
</svg>
