<svg
   width="24"
   height="24"
   viewBox="0 0 24 24"
   xmlns="http://www.w3.org/2000/svg">
  <path
     id="path1"
     fill="none"
     stroke="currentColor"
	 stroke-linecap="round"
     stroke-width="1.5"
     d="m 3.8543205 2.0554886 c 0.665863 0.7334137 1.331725 1.4668275 1.119421 2.1423402 -0.212304 0.6755126 -1.302774 1.2931242 -1.500602 1.9913045 -0.197829 0.6981804 0.496984 1.4769295 1.191796 2.2556787 M 19.081896 2.0554886 c 0.665863 0.7334137 1.331725 1.4668275 1.119421 2.1423402 -0.212304 0.6755126 -1.302774 1.2931242 -1.500602 1.9913045 -0.197829 0.6981804 0.496984 1.4769295 1.191796 2.2556787 M 14.5 4.5 a 2.5 2.5 0 1 1 -5 0 2.5 2.5 0 0 1 5 0 z M 12.998 7 h -1.996 c -2.87 0 -4.805 3.07 -3.674 5.828 a 1 1 0 0 0 0.918 0.633 h 0.703 c 0.237 0 0.444 0.17 0.501 0.41 l 0.905 3.786 C 10.544 18.447 11.222 19 12 19 c 0.778 0 1.456 -0.554 1.645 -1.343 l 0.905 -3.786 a 0.52 0.52 0 0 1 0.5 -0.41 h 0.704 a 1 1 0 0 0 0.918 -0.633 C 17.804 10.069 15.869 7 12.999 7 Z M 5.533 17 c -1.422 2.006 -1.78 3.065 -1.38 3.916 q 0.06 0.126 0.14 0.243 C 4.862 22 6.34 22 9.295 22 h 5.408 c 2.955 0 4.432 0 5.004 -0.841 q 0.08 -0.118 0.139 -0.243 c 0.4 -0.85 0.042 -1.91 -1.38 -3.916" />
</svg>
