<svg
   width="24"
   height="24"
   viewBox="0 0 24 24"
   xmlns="http://www.w3.org/2000/svg">
  <path
     id="path1"
     fill="none"
     stroke="currentColor"
     stroke-linecap="round"
     stroke-linejoin="round"
     stroke-width="1.5"
     d="m 19.441345 6.3488479 c 0 5.0846841 0 10.1693691 0 15.2540531 M 4.558655 6.3922737 c 0 5.0653843 0 10.1307683 0 15.1961523 m -1.3451447 0.01448 c -0.028951 -0.04342 -0.057901 -0.08685 0 0 z m -1.0277442 0 H 21.814234 M 2.9698439 2.3970988 H 21.030156 c 0.434379 0 0.784078 0.3421664 0.784078 0.7671893 v 2.4318458 c 0 0.4250229 -0.349699 0.7671893 -0.784078 0.7671893 H 2.9698439 c -0.4343791 0 -0.7840777 -0.3421664 -0.7840777 -0.7671893 V 3.1642881 c 0 -0.4250229 0.3496986 -0.7671893 0.7840777 -0.7671893 z m 8.3612611 6.6311926 c -0.279172 -0.1339981 -0.448119 0.1351634 -0.347268 0.3035987 0.354634 0.6172898 0.590889 1.2953719 0.696614 1.9993849 0.501373 3.423644 -0.992761 2.969542 -1.056358 2.898742 -0.290082 -0.30048 -0.590561 -0.604076 -0.7860274 -0.977337 -0.05615 -0.112288 -0.2588908 -0.292162 -0.5510528 0 -0.70493 0.580163 -1.133296 1.472245 -1.044919 2.380961 0.03743 2.013941 1.8163922 3.483065 3.7669082 3.508018 1.990027 0.02391 3.744036 -1.44937 3.760672 -3.508018 4.23e-4 -1.298523 -0.391325 -2.566905 -1.123937 -3.639024 -0.802215 -1.281879 -1.951079 -2.3103419 -3.313593 -2.9663256" />
</svg>
