<svg
   width="24"
   height="24"
   viewBox="0 0 24 24"
   xmlns="http://www.w3.org/2000/svg">
  <circle
     fill="none"
     stroke="currentColor"
     stroke-linecap="round"
     stroke-linejoin="round"
     stroke-width="1.17"
     id="path1"
     cx="6.239501"
     cy="4.6660495"
     r="1.0644106" />
  <rect
     fill="none"
     stroke="currentColor"
     stroke-linecap="round"
     stroke-linejoin="round"
     stroke-width="1.5"
     id="rect1"
     width="2.2282436"
     height="6.8508735"
     x="5.1253791"
     y="8.574563"
     rx="0.2976813"
     ry="0.42743817" />
  <path
     id="path2"
     fill="none"
     stroke="currentColor"
     stroke-linecap="round"
     stroke-linejoin="round"
     stroke-width="1.5"
     d="m 7.3536224 8.574563 c 0 0 3.1002986 3.29869 3.1002986 3.29869 0 0 1.555806 0 1.555806 0 m -5.7702262 3.552183 c 0 0 4.2417152 0 4.2417152 0 0 0 1.518784 4.772741 1.518784 4.772741 M 3.766687 18.533192 c 0 0 4.0396354 0 4.0396354 0 M 16.906126 7.1200007 c -0.558536 0.8019654 -1.214739 1.7441633 -1.216208 2.4152647 -0.0015 0.6711016 0.744566 1.7796796 0.745203 2.4665556 6.37e-4 0.686876 -0.64657 1.656394 -1.200045 2.485501 m 4.973725 -7.3673213 c -0.558536 0.8019654 -1.214739 1.7441633 -1.216208 2.4152647 -0.0015 0.6711016 0.744566 1.7796796 0.745203 2.4665556 6.37e-4 0.686876 -0.64657 1.656394 -1.200045 2.485501" />
</svg>
