<svg
   viewBox="0 0 24 24"
   width="24"
   height="24"
   xmlns="http://www.w3.org/2000/svg">
  <path
     id="path1"
     fill="none"
     stroke="currentColor"
     stroke-linecap="round"
     stroke-linejoin="round"
     stroke-width="1.5"
     d="M 4.4749317 18.153035 C 3.907313 18.149635 3.554767 17.534713 3.8385918 17.043139 4.4481093 15.988738 5.214862 14.065844 5.214862 10.753731 c 0 -1.1435731 0.2882504 -2.2198209 0.796058 -3.1600506 M 7.596278 5.6499692 C 8.7534055 4.6790471 10.245539 4.0943638 11.874233 4.0943638 m 0 0 c 3.677869 0 6.659369 2.9814964 6.659369 6.6593672 0 3.313039 0.767678 5.235007 1.378121 6.289408 0.164447 0.284825 0.115257 0.610934 -0.06551 0.835596 m -3.037397 0.2743 H 4.4749317 m 4.4331067 2.96157 H 14.827479 M 19.996477 20.989041 3.742565 4.7351301 m 17.472297 6.0186009" />
</svg>
