<svg
   width="24"
   height="24"
   viewBox="0 0 24 24"
   xmlns="http://www.w3.org/2000/svg">
  <path
     id="path1"
     fill="none"
     stroke="currentColor"
     stroke-linecap="round"
     stroke-linejoin="round"
     stroke-width="1.5"
     d="m 10.675311 16.755266 h 4.87069 M 6.7697994 6.1027293 2.4691923 4.2194548 M 10.048092 11.933736 V 6.1027293 m 6.405486 5.8310067 V 6.1027293 m -3.2716 0 V 11.933736 M 6.7697994 9.0182325 H 19.594156 M 6.7697994 9.7083863 c 0.057534 0.0085 0.1150679 0.01699 0.172602 0.02549 -0.057534 -0.0085 -0.115068 -0.01699 -0.172602 -0.02549 m 0 2.2253497 V 6.1027293 H 19.594155 v 5.8310067 m -12.9670169 0 H 19.594155 c 0.996276 0 1.988843 0.87641 1.798332 1.926617 l -1.053755 5.808914 c -0.19051 1.050206 -0.802056 1.926616 -1.798332 1.926616 H 7.6803646 c -0.9962757 0 -1.6079135 -0.876393 -1.7983315 -1.926616 L 4.8288066 13.860353 C 4.6383884 12.81013 5.6308624 11.933736 6.6271381 11.933736 Z" />
</svg>
