<svg
   width="24"
   height="24"
   viewBox="0 0 24 24"
   xmlns="http://www.w3.org/2000/svg">
  <path
     id="path1"
     fill="none"
     stroke="currentColor"
     stroke-linecap="round"
     stroke-linejoin="round"
     stroke-width="1.5"
     d="M 6.2447191 2.469081 H 17.544475 V 21.530919 H 6.2447191 Z m 3.8852949 4.4421631 h 9.985326 m -9.985326 2.544378 h 3.529168 m -10e-7 0 c 0.702966 0 1.268891 0.5659239 1.268891 1.2688889 v 0.0066 C 14.928072 11.434077 14.362147 12 13.659181 12 m 0 0 h -3.529167 m 0 -2.5443779 c -0.702967 0 -1.268892 -0.565923 -1.268892 -1.268889 v -0.0066 c 0 -0.702965 0.565925 -1.268889 1.268892 -1.268889 m 3 5.5443779 m -3 2.088756 h 3.529168 m -10e-7 0 c 0.702966 0 1.268891 0.565924 1.268891 1.268889 v 0.0066 c 0 0.702966 -0.565925 1.268889 -1.268891 1.268889 m 0 0 H 3.8846605 m 6.2453535 -2.544378 c -0.7029665 0 -1.2688916 -0.565923 -1.2688916 -1.268889 v -0.0066 C 8.8611224 12.565924 9.4270474 12 10.130014 12 m 3 5.544378 m -10e-7 0 m 0.16357 1.927666" />
</svg>
