<svg
   width="24"
   height="24"
   viewBox="0 0 24 24"
   xmlns="http://www.w3.org/2000/svg">
  <path
     id="path1"
     fill="none"
     stroke="currentColor"
     stroke-linecap="round"
     stroke-linejoin="round"
     stroke-width="1.5"
     d="M 21.599075 21.416631 2.2522265 5.7575164 M 11.170444 10.060693 C 12.580132 9.7605496 14.25 10.573652 14.25 12.5 c 0 0.239757 0.01444 0.218482 0.100263 0.579883 m -1.469494 1.67734 C 11.400451 15.438449 9.25 14.686041 9.25 12.5 m 0 0 c 0 -0.18047 0.014747 -0.371157 0.051876 -0.564187 M 9.263 12.246 C 7.193 12.055 4.64 12.123 3.236 12.934 L 3.088 13.02 c -0.46 0.265 -0.8 0.703 -0.83 1.233 -0.043 0.795 0.05 2.073 0.813 3.395 1.354 2.345 3.704 3.423 4.699 3.791 0.296 0.11 0.62 0.066 0.893 -0.091 C 9.166 21.058 9.38 20.446 9.247 19.88 8.877 18.3 8.793 16.03 9.979 14.265 9.4491912 13.733296 9.1863205 12.991677 9.263 12.245 Z m 3.608 2.49 c 0.868 1.904 2.219 4.123 3.64 4.943 l 0.148 0.086 c 0.46 0.265 1.01 0.34 1.483 0.1 0.207884 -0.105487 0.408874 -0.222381 0.602161 -0.349916 m 1.589434 -1.521986 C 20.456322 17.823564 20.570656 17.647343 20.676 17.465 22.03 15.12 21.789 12.545 21.61 11.5 21.55226 11.191177 21.359268 10.924436 21.084 10.773 20.581 10.482 19.945 10.603 19.521 11 c -1.208 1.134 -2.997737 2.283883 -5.170737 2.079883 M 11.172 10.068 c 0.758109 -0.1799928 1.556793 -0.04859 2.16 0.444605 C 14.532 8.814605 15.75 6.622 15.75 5 V 4.83 C 15.75 4.3 15.54 3.786 15.096 3.496 14.100779 2.846708 12.938295 2.5006728 11.75 2.5 9.042 2.5 6.933 3.997 6.117 4.674 5.8780072 4.878556 5.7433206 5.1794907 5.75 5.494 c 0 0.58 0.422 1.07 0.979 1.239 1.525 0.46 3.486 1.492 4.443 3.335 z" />
</svg>
