<svg
   width="24"
   height="24"
   viewBox="0 0 24 24"
   xmlns="http://www.w3.org/2000/svg">
  <g
     fill="none"
	 stroke="currentColor"
     stroke-linecap="round"
     stroke-linejoin="round"
     stroke-width="1.5"
     id="g2">
    <path
       d="M 10.970405 4.7918442 V 8.7461228 M 7.8811238 4.7918442 h 6.1785612 z"
       id="path1-8" />
    <path
       d="M 2.7321592 8.9107198 V 17.148965 M 17.148965 10.970405 H 14.697807 A 1.0281124 1.0281124 0 0 1 13.771022 10.403954 L 13.318258 9.4771698 a 1.0281124 1.0281124 0 0 0 -0.926784 -0.56645 H 9.5493358 a 1.0281124 1.0281124 0 0 0 -0.926784 0.56645 l -0.453259 0.9267842 a 1.0281124 1.0281124 0 0 1 -0.926785 0.566451 H 2.7321592 V 15.08928 H 16.118875 a 1.0295953 1.0295953 0 0 1 1.03009 1.029596 v 2.059684 a 1.0295953 1.0295953 0 0 0 1.029595 1.029596 h 2.059685 a 1.0295953 1.0295953 0 0 0 1.029596 -1.029596 v -3.08928 a 4.1188755 4.1188755 0 0 0 -4.118876 -4.118875"
       id="path2-2"/>
  </g>
</svg>
