<svg
   width="24"
   height="24"
   viewBox="0 0 24 24"
   xmlns="http://www.w3.org/2000/svg">
  <path
     id="path1"
     fill="none"
     stroke="currentColor"
     stroke-linecap="round"
     stroke-linejoin="round"
     stroke-width="1.5"
     d="M 21.191798 7.0639324 V 17.949337 M 2.808202 7.0639324 V 17.949337 M 6.8058848 4.1399274 17.194116 4.1688784 c 0.771186 0.00198 1.392035 0.6208481 1.392035 1.3920362 V 18.468036 c 0 0.771188 -0.620849 1.39402 -1.392035 1.392037 L 6.8058848 19.831122 C 6.0346993 19.829139 5.4138486 19.210273 5.4138486 18.439085 V 5.5319636 c 0 -0.7711881 0.6208511 -1.3941854 1.3920362 -1.3920362 z M 12.985622 14.485505 V 6.9855053 c 0 0 2.999999 1 2.999999 3.9999997 m -2.999999 4 c 0 1.105 -1.120001 2 -2.5 2 -1.3799998 0 -2.4999999 -0.895 -2.4999999 -2 0 -1.105 1.1200001 -2 2.4999999 -2 1.379999 0 2.5 0.895 2.5 2" />
</svg>
