<svg
   width="24"
   height="24"
   viewBox="0 0 24 24"
   xmlns="http://www.w3.org/2000/svg">
  <path
     id="path1"
     fill="none"
     stroke="currentColor"
     stroke-width="1.5"
     stroke-linecap="round"
     stroke-linejoin="round"
     d="m 5.2053301 10.394986 c 0.4076801 0.339733 0.8153601 0.679467 1.698667 0.679467 1.6986676 0 1.6986676 -1.3589332 3.3973359 -1.3589332 1.766613 0 1.630721 1.3589332 3.397335 1.3589332 1.698668 0 1.698668 -1.3589332 3.397335 -1.3589332 0.883307 0 1.290987 0.3397332 1.698667 0.6794662 M 5.2053301 13.605013 c 0.4076801 0.339733 0.8153601 0.679467 1.698667 0.679467 1.6986676 0 1.6986676 -1.358934 3.3973359 -1.358934 1.766613 0 1.630721 1.358934 3.397335 1.358934 1.698668 0 1.698668 -1.358934 3.397335 -1.358934 0.883307 0 1.290987 0.339734 1.698667 0.679467 m 3.017441 -1.542881 a 9.7499786 9.7499786 0 0 1 -9.749979 9.749979 9.7499786 9.7499786 0 0 1 -9.7499791 -9.749979 9.7499786 9.7499786 0 0 1 9.7499791 -9.7499791 9.7499786 9.7499786 0 0 1 9.749979 9.7499791 z" />
</svg>
