<svg
   width="24"
   height="24"
   viewBox="0 0 24 24"
   xmlns="http://www.w3.org/2000/svg">
  <path
     fill="none"
     stroke="currentColor"
     stroke-linecap="round"
     stroke-linejoin="round"
     stroke-width="1.5"
     d="M 16.794036,2.2555907 H 20.28 c 0.182424,-6.363e-4 0.305337,0.1864048 0.232366,0.3535999 l -1.363885,3.1833597 h 2.29912 c 0.08593,8.87e-4 0.131595,0.101814 0.07553,0.166937 l -4.688685,5.1529347 c -0.06131,0.09165 -0.203543,0.0249 -0.17223,-0.08082 l 0.465213,-3.7236247 h -2.152387 c -0.181297,0.00244 -0.30627,-0.180959 -0.237657,-0.348789 l 1.818513,-4.547244 c 0.03946,-0.096372 0.134017,-0.1586485 0.238138,-0.1568347"
     id="path1" />
  <path
     fill="none"
     stroke="currentColor"
     stroke-linecap="round"
     stroke-width="1.5"
     d="m 20.314159,10.88024 0.417854,0.376069 v 9.605453 L 3.267987,20.861524 V 11.256309 L 12,3.3974982 12.503678,3.850808 13.007355,4.3041179"
     id="path3" />
</svg>
