<svg
   width="24"
   height="24"
   viewBox="0 0 24 24"
   xmlns="http://www.w3.org/2000/svg">
  <path
     fill="none"
     stroke="currentColor"
     stroke-linecap="round"
     stroke-linejoin="round"
     stroke-miterlimit="10"
     stroke-width="1.5"
     d="m 11.903 2.012 -7.6 1.903 C 4.124586 3.959596 3.9995682 4.1200973 4 4.304 v 6.948 c 0 7.687 6.918 10.387 7.887 10.728 0.07533 0.02667 0.150667 0.02667 0.226 0 0.951439 -0.323352 7.610768 -2.856891 7.878685 -10.26395"
     id="path1"/>
  <path
     id="path1-8"
     fill="none"
     stroke="currentColor"
     stroke-width="1.5"
     stroke-linecap="round"
     stroke-linejoin="round"
     d="m 15.781487 7.3447663 2.313212 -2.313212 m -2.313212 0 2.313212 2.313212 m 3.031487 -1.156606 A 4.1880932 4.1880932 0 0 1 16.938093 10.376253 4.1880932 4.1880932 0 0 1 12.75 6.1881603 a 4.1880932 4.1880932 0 0 1 4.188093 -4.188093 4.1880932 4.1880932 0 0 1 4.188093 4.188093 z" />
</svg>
