<svg
   width="24"
   height="24"
   viewBox="0 0 24 24"
   xmlns="http://www.w3.org/2000/svg">
  <path
     id="path1"
     fill="none"
     stroke="currentColor"
     stroke-linecap="round"
     stroke-linejoin="round"
     stroke-width="1.5"
     d="m 14.252476 20.301327 1.472948 -1.498432 m 0 2.996864 -1.472948 -1.498432 h 4.297833 m -13.1006174 0 1.4729479 -1.498432 m 0 2.996864 -1.4729479 -1.498432 H 9.7475244 M 7.0255482 10.723869 C 8.1393447 9.2570222 9.2531412 7.7901748 10.366938 6.3233275 M 2.9598279 15.116525 c 1.6158073 -0.86625 3.2316147 -1.732501 5.4005001 -1.220849 2.168885 0.511652 4.890848 2.401206 7.118678 2.883445 2.22783 0.482241 3.961524 -0.442831 5.695218 -1.367903 M 2.9598279 12.09728 c 1.6158073 -0.86625 3.2316147 -1.7325 5.4005001 -1.220849 2.168885 0.511652 4.890848 2.401205 7.118678 2.883445 2.22783 0.482241 3.961524 -0.442832 5.695218 -1.367903 M 2.8257761 4.9916489 c 2.5081786 -0.046326 5.0163573 -0.092653 7.5411619 1.3316786 2.524804 1.4243313 5.066234 4.3193205 7.607663 7.2143095 m 0.788587 -9.3450676 a 1.9266643 1.9923288 0 0 1 -1.926665 1.9923287 1.9266643 1.9923288 0 0 1 -1.926664 -1.9923287 1.9266643 1.9923288 0 0 1 1.926664 -1.9923288 1.9266643 1.9923288 0 0 1 1.926665 1.9923288 z" />
</svg>
