<svg
   viewBox="0 0 24 24"
   width="24"
   height="24"
   xmlns="http://www.w3.org/2000/svg">
  <path
     id="path1"
     fill="none"
     stroke="currentColor"
     stroke-linecap="round"
     stroke-linejoin="round"
     stroke-width="1.5"
     d="m 18.536438 11.598167 c 0.113462 2.809956 0.801736 4.496207 1.358779 5.45837 0.283572 0.49115 -0.06958 1.105344 -0.63672 1.107342 H 4.4939362 c -0.5663128 -0.0034 -0.9180478 -0.616899 -0.6348759 -1.107342 0.6081152 -1.051975 1.3731038 -2.970445 1.3731038 -6.274939 0 -3.6694104 2.9746432 -6.6440481 6.6440529 -6.6440481 M 8.916845 21.118636 h 5.905823"
/>
  <path
     fill="none"
     stroke="currentColor"
     stroke-linecap="round"
     stroke-linejoin="round"
     stroke-width="1.5"
     d="m 17.25942 2.6378176 c -1.892853 0 -3.428565 1.5357114 -3.428565 3.4285647 0 1.8928533 1.535712 3.4285643 3.428565 3.4285643 1.892853 0 3.428565 -1.535711 3.428565 -3.4285643 0 -1.8928533 -1.535712 -3.4285647 -3.428565 -3.4285647 z"
     id="path1-7"
 />
  <path
     fill="none"
     stroke="currentColor"
     stroke-linecap="round"
     stroke-linejoin="round"
     stroke-width="1.5"
     d="M 17.25942 4.3754681 V 6.352096 h 1.476364"
     id="path2"
 />
</svg>
