<svg
   width="24"
   height="24"
   viewBox="0 0 24 24"
   xmlns="http://www.w3.org/2000/svg">
  <path
     id="path1"
     fill="none"
     stroke="currentColor"
     stroke-linecap="round"
     stroke-linejoin="round"
     stroke-width="1.5"
     d="m 15.602918 13.584261 c 0 1.255562 0 2.511125 0 3.766687 M 8.3151975 13.584261 c 0 1.255562 0 2.511125 0 3.766687 M 12 13.584261 c 0 1.255562 0 2.511125 0 3.766687 M 17.175101 3.1058726 c 0.279855 0.5790109 0.55971 1.1580217 0.451145 1.6115802 -0.108564 0.4535585 -0.605548 0.7816647 -0.72135 1.2159229 -0.115803 0.4342582 0.149577 0.9746683 0.414957 1.5150784 M 13.668211 3.1058726 c 0.279855 0.5790109 0.55971 1.1580217 0.451145 1.6115802 -0.108564 0.4535585 -0.605548 0.7816647 -0.72135 1.2159229 -0.115803 0.4342582 0.149577 0.9746683 0.414957 1.5150784 M 10.155719 3.1058726 c 0.279855 0.5790109 0.55971 1.1580217 0.451145 1.6115802 C 10.4983 5.1710113 10.001316 5.4991175 9.885514 5.9333757 9.769711 6.3676339 10.035091 6.908044 10.300471 7.4484541 M 6.6488287 3.1058726 C 6.928684 3.6848835 7.2085392 4.2638943 7.0999746 4.7174528 6.9914101 5.1710113 6.4944258 5.4991175 6.3786237 5.9333756 6.2628215 6.3676338 6.5282015 6.9080439 6.7935815 7.448454 m 8.7466615 3.318188 c 0 -0.520071 0.4216 -0.9416716 0.941671 -0.9416716 0.520072 0 0.941672 0.4216006 0.941672 0.9416716 m -6.365257 0 c 0 -0.520071 0.4216 -0.9416716 0.941671 -0.9416716 0.520072 0 0.941672 0.4216006 0.941672 0.9416716 m -6.1862009 0 c 0 -0.520071 0.4216008 -0.9416716 0.9416717 -0.9416716 0.5200709 0 0.9416717 0.4216006 0.9416717 0.9416716 m -3.3007374 0.1496 H 18.661923 c 0.446195 0 0.805407 0.359211 0.805407 0.805407 v 7.367326 c 0 0.446195 -1.359135 1.805152 -1.80533 1.805152 H 6.338 c -0.4461955 0 -1.80533 -1.358957 -1.80533 -1.805152 v -7.367326 c 0 -0.446196 0.3592116 -0.805407 0.8054071 -0.805407 z" />
</svg>
