<svg
   width="24"
   height="24"
   viewBox="0 0 24 24"
   xmlns="http://www.w3.org/2000/svg">
  <path
     fill="none"
     stroke="currentColor"
     stroke-linecap="round"
     stroke-linejoin="round"
     stroke-width="1.5"
     d="m 11.735427 7.8507531 0.264762 5.6273539 0.264302 -5.6250482 a 0.26476236 0.26476236 0 0 0 -0.267069 -0.276755 v 0 a 0.26476236 0.26476236 0 0 0 -0.261995 0.2744493"
     id="path2" />
  <path
     fill="currentColor"
     d="m 12.000189 17.161717 a 0.92251693 0.92251693 0 1 1 0.922518 -0.922518 0.92251693 0.92251693 0 0 1 -0.922518 0.922518"
     id="path3"
     stroke-width="0.0461258" />
  <path
     id="path1"
     fill="none"
     stroke="currentColor"
     stroke-linecap="round"
     stroke-linejoin="round"
     stroke-width="1.5"
     d="m 13.133234 3.8124482 7.054318 7.0543168 c 0.627811 0.627812 0.627812 1.638658 0 2.266469 l -7.054318 7.054318 c -0.627811 0.627812 -1.638657 0.627811 -2.266469 0 L 3.8124481 13.133234 c -0.627812 -0.627811 -0.627812 -1.638657 0 -2.266469 L 10.866765 3.8124478 c 0.627812 -0.6278118 1.638658 -0.6278114 2.266469 4e-7 z" />
</svg>
