<svg
   viewBox="0 0 24 24"
   width="24"
   height="24"
   xmlns="http://www.w3.org/2000/svg">
  <path
     id="path1"
     fill="none"
     stroke="currentColor"
     stroke-linecap="round"
     stroke-linejoin="round"
     stroke-width="1.5"
     d="m 16.251656 14.870616 h 3.281676 m -8.484343 0.04826 h 1.666979 c 0.461753 0 0.833489 0.371736 0.833489 0.833489 v 1.66698 c 0 0.461752 -0.371736 0.833488 -0.833489 0.833488 h -1.666979 c -0.461754 0 -0.833489 -0.371736 -0.833489 -0.833488 v -1.66698 c 0 -0.461753 0.371736 -0.833489 0.833489 -0.833489 z m 8.484343 -3.408359 v 6.720198 m -3.281676 -6.720198 v 6.720198 M 10.2155 14.870617 v 6.720197 M 14.557965 9.8999864 C 13.60435 7.8235608 12.0241 5.4543415 10.018724 2.4091247 6.638909 7.5485976 4.4666675 10.760769 4.4666675 13.880144 c 0 2.355017 1.416119 4.380482 3.4300925 5.231703" />
</svg>
