<svg
   width="24"
   height="24"
   viewBox="0 0 24 24"
   xmlns="http://www.w3.org/2000/svg">
  <path
     fill="none"
     stroke="currentColor"
     stroke-linecap="round"
     stroke-linejoin="round"
     stroke-width="1.5"
     d="M 22 21 V 9.6099998 c 0 -1.3219996 0 -1.9839996 -0.344 -2.4959996 -0.344 -0.512 -0.953 -0.758 -2.17 -1.25 l -6 -2.42 c -0.734 -0.296 -1.1 -0.4440003 -1.486 -0.4440003 -0.386 0 -0.752 0.1480003 -1.486 0.4440003 l -6 2.42 c -1.217 0.492 -1.826 0.738 -2.17 1.25 C 2 7.6260002 2 8.2880002 2 9.6099998 V 21"
     id="path1" />
  <path
     id="path2"
     fill="none"
     stroke="currentColor"
     stroke-linecap="round"
     stroke-linejoin="round"
     stroke-width="1.5"
     d="m 15.593964 17.403403 v 0.006 m -7.187903 -0.006 v 0.006 m -2.395967 -3.300455 1.197984 0.898488 1.054824 0.263556 q 0.143758 0.03594 0.290511 0.03594 h 6.893199 q 0.146753 0 0.290511 -0.03594 l 1.054825 -0.263556 1.197984 -0.898488 m -1e-6 4.146222 v 1.843697 c 0 0.27913 0 0.418695 -0.04552 0.52891 a 0.59899189 0.59899189 0 0 1 -0.324055 0.323455 c -0.110214 0.04612 -0.249779 0.04612 -0.528909 0.04612 -0.279131 0 -0.418696 0 -0.52891 -0.04552 a 0.59899189 0.59899189 0 0 1 -0.323456 -0.324054 c -0.04612 -0.110215 -0.04612 -0.24978 -0.04612 -0.52891 0 -0.27913 0 -0.418695 -0.04552 -0.52891 a 0.59899189 0.59899189 0 0 0 -0.324054 -0.323455 c -0.110215 -0.04612 -0.24978 -0.04612 -0.52891 -0.04612 h -6.58892 c -0.27913 0 -0.418695 0 -0.52891 0.04552 a 0.59899189 0.59899189 0 0 0 -0.323455 0.324054 c -0.04612 0.110215 -0.04612 0.24978 -0.04612 0.52891 0 0.27913 0 0.418695 -0.04552 0.52891 a 0.59899189 0.59899189 0 0 1 -0.32406 0.323455 c -0.110215 0.04612 -0.24978 0.04612 -0.52891 0.04612 -0.27913 0 -0.418695 0 -0.52891 -0.04552 A 0.59899189 0.59899189 0 0 1 6.056216 20.627777 c -0.04612 -0.110215 -0.04612 -0.24978 -0.04612 -0.52891 V 18.25517 c 0 -0.719988 0 -1.079982 0.103027 -1.419611 0.103026 -0.339628 0.30249 -0.639124 0.702018 -1.238116 L 7.20808 15.007436 7.78431 13.624963 c 0.446249 -1.072196 0.669673 -1.607695 1.122511 -1.909587 0.452838 -0.301891 1.032662 -0.301891 2.194706 -0.301891 h 1.796975 c 1.161446 0 1.741869 0 2.194707 0.301891 0.452837 0.301892 0.676261 0.83799 1.12251 1.909587 l 0.576231 1.382473 0.392938 0.590007 c 0.399528 0.598992 0.598992 0.898488 0.702019 1.238116 0.103026 0.339629 0.103026 0.699623 0.103026 1.419611" />
</svg>
