<svg
   viewBox="0 0 24 24"
   width="24"
   height="24"
   xmlns="http://www.w3.org/2000/svg">
  <path
     fill="none"
     id="path1"
     stroke="currentColor"
     stroke-linecap="round"
     stroke-linejoin="round"
     stroke-width="1.5"
     d="m 5.2148618 10.753731 c 0 -3.6778708 2.9815018 -6.6593672 6.6593712 -6.6593672 3.677869 0 6.659369 2.9814964 6.659369 6.6593672 0 3.313039 0.767678 5.235007 1.378121 6.289408 0.284226 0.492283 -0.06974 1.107892 -0.638188 1.109896 H 4.4749317 c -0.5676187 -0.0034 -0.9201646 -0.618322 -0.6363399 -1.109896 0.6095175 -1.054401 1.37627 -2.977295 1.37627 -6.289408 z M 3.3382141 6.3141513 C 4.1069733 4.8035854 5.2658774 3.5262044 6.694722 2.6145008 m 10.359021 0 c 1.428844 0.9117036 2.587748 2.1890846 3.35651 3.6996505 M 8.9080384 21.114605 h 5.9194406"/>
</svg>
