<svg
   width="24"
   height="24"
   viewBox="0 0 24 24"
   xmlns="http://www.w3.org/2000/svg">
  <path
     id="path1"
     fill="none"
     stroke="currentColor"
     stroke-linecap="round"
     stroke-linejoin="round"
     stroke-width="1.5"
     d="M 11.64144 3.3189283 V 2.277952 m 0 1.0409763 v 0 M 6.7275502 5.1476232 V 7.2694567 M 16.55533 5.1476232 v 2.1218335 m -12.2433734 0 H 16.55533 m 0 10.4270493 h 1.304017 c 1.013098 0 1.828696 -0.761291 1.828696 -1.70693 v -5.513189 c 0 -0.9456403 -0.815598 -1.7069303 -1.828696 -1.7069303 H 16.55533 M 6.7275498 5.1476232 c 0 -1.013097 0.761291 -1.8286949 1.7069305 -1.8286949 H 14.8484 c 0.945639 0 1.70693 0.815598 1.70693 1.8286949 m 0 2.1218335 V 19.893353 c 0 1.013097 -0.761291 1.828695 -1.70693 1.828695 H 8.4344798 c -0.9456394 0 -1.7069304 -0.815598 -1.7069304 -1.828695 V 11.650278 L 4.3119566 7.2694567" />
</svg>
