<svg
   width="24"
   height="24"
   viewBox="0 0 24 24"
   xmlns="http://www.w3.org/2000/svg">
  <path
     id="path12"
     fill="none"
     stroke="currentColor"
     stroke-linecap="round"
     stroke-linejoin="round"
     stroke-width="1.5"
     d="m 12.931239 17.314883 v 3.560772 M 11.06876 17.314883 v 3.560772 M 19.187778 5.353 H 14.561084 M 9.4389152 5.3531599 H 4.8122223 m 9.7419347 0 A 2.5576208 2.5576208 0 0 1 11.996536 7.9107807 2.5576208 2.5576208 0 0 1 9.4389155 5.3531599 2.5576208 2.5576208 0 0 1 11.996536 2.7955391 2.5576208 2.5576208 0 0 1 14.554157 5.3531599 Z M 6.5707242 18.597901 H 8.242903 m 7.556537 -1.678218 v 1.678218 M 8.242903 16.919683 v 1.678218 m -1.6721789 -4.67115 v 4.67115 m 0.0067 -4.616162 c 2e-7 -3.009654 2.4398071 -5.4494608 5.4494609 -5.4494606 3.009654 3e-7 5.542258 2.4580676 5.542258 5.4677216 m -9.3262448 2.919683 c 2e-7 -2.08668 1.6915883 -3.778268 3.7782678 -3.778268 2.08668 0 3.778269 1.691588 3.778269 3.778268 m 0.09753 1.678218 h 1.672178 V 14 m -6.500383 6.875655 c 0 0.51431 0.41693 0.93124 0.931239 0.93124 0.51431 0 0.93124 -0.41693 0.93124 -0.93124 M 11.06876 17.314883 c 0 -0.51431 0.41693 -0.93124 0.931239 -0.93124 0.51431 0 0.93124 0.41693 0.93124 0.93124" />
</svg>
