<svg
   width="24"
   height="24"
   viewBox="0 0 24 24"
   xmlns="http://www.w3.org/2000/svg">
  <path
     id="path1"
     fill="none"
     stroke="currentColor"
     stroke-linecap="round"
     stroke-linejoin="round"
     stroke-width="1.5"
     d="m 4.5003902 3.9167319 v 0 m 1.4581233 2.4676436 v 0 m 1.4581233 2.4676436 v 0 m 1.4581243 2.4676429 v 0 M 19.49961 3.9167315 v 0 m -1.458123 2.4676441 v 0 m -1.458124 2.4676432 v 0 m -1.458124 2.4676432 v 0 M 12.086852 2.7213511 v 0 m -0.02895 2.8661039 v 0 m -0.02895 2.8661032 v 0 m -0.02895 2.8661048 v 0 M 12 14.136008 l 0 2.192098 m 2.149822 0.324469 0 2.049474 -4.2996438 0 -5e-7 -2.049474 M 12 21.278648 12 18.70205 M 8.2943305 14.136007 c 2.4704465 0 4.9408925 1e-6 7.4113385 1e-6 M 2.9806281 21.278649 c 6.0129146 0 12.0258289 0 18.0387439 0" />
</svg>
