<svg
   width="24"
   height="24"
   viewBox="0 0 24 24"
   xmlns="http://www.w3.org/2000/svg">
  <path
     id="path1"
     fill="none"
     stroke="currentColor"
     stroke-linecap="round"
     stroke-linejoin="round"
     stroke-width="1.5"
     d="m 12.00019 16.2392 v 0 m 1.246367 -13.245507 7.75975 7.759749 c 0.690592 0.690593 0.690593 1.802523 0 2.493115 l -7.75975 7.75975 c -0.690592 0.690593 -1.802522 0.690592 -2.493115 0 l -7.7597491 -7.75975 c -0.6905932 -0.690592 -0.6905932 -1.802522 0 -2.493115 L 10.753442 2.9936926 c 0.690593 -0.690593 1.802523 -0.6905926 2.493115 4e-7 z m -1.51113 4.8570601 0.264762 5.6273539 0.264302 -5.6250482 a 0.26476236 0.26476236 0 0 0 -0.267069 -0.276755 v 0 a 0.26476236 0.26476236 0 0 0 -0.261995 0.2744493" />
</svg>
