<svg
   width="24"
   height="24"
   viewBox="0 0 24 24"
   xmlns="http://www.w3.org/2000/svg">
  <path
     id="use2"
     fill="none"
     stroke="currentColor"
     stroke-linecap="round"
     stroke-linejoin="round"
     stroke-width="1.5"
     d="m 20.863281 21.228483 a 1 1 0 0 1 -1 1 1 1 0 0 1 -1 -1 1 1 0 0 1 1 -1 1 1 0 0 1 1 1 z m -11.1749084 0 a 1 1 0 0 1 -1 1 1 1 0 0 1 -1 -1 1 1 0 0 1 1 -1 1 1 0 0 1 1 1 z M 2.0164859 2.8137364 c 1.6056599 0 2.8983029 1.2926431 2.8983029 2.898303 M 21.983514 18.364582 H 7.8130915 c -1.6056599 0 -2.8983031 -1.292643 -2.8983031 -2.898303 V 5.7120391 M 16.780489 5.3391436 h -4.285482 c -2.01989 0 -3.0305494 0 -3.6576582 0.627823 -0.6278231 0.627109 -0.6278231 1.6377682 -0.6278231 3.6576585 v 1.7856179 c 0 2.01989 0 3.030549 0.6278231 3.657658 0.6271088 0.627823 1.6377682 0.627823 3.6576582 0.627823 h 4.285482 c 2.01989 0 3.030549 0 3.657658 -0.627823 0.627823 -0.627109 0.627823 -1.637768 0.627823 -3.657658 V 9.6246251 c 0 -2.0198903 0 -3.0305495 -0.627823 -3.6576585 -0.627109 -0.627823 -1.637768 -0.627823 -3.657658 -0.627823 m -4.285482 0 v -0.357124 c 0 -1.009945 0 -1.514917 0.314269 -1.828472 0.31284 -0.314268 0.817813 -0.314268 1.828472 -0.314268 1.010659 0 1.514918 0 1.828472 0.314268 0.314269 0.31284 0.314269 0.817813 0.314269 1.828472 v 0.357124 m -5.713976 0 V 15.695724 M 18.208983 5.3391436 V 15.695724" />
</svg>
