<svg
   width="24"
   height="24"
   viewBox="0 0 24 24"
   xmlns="http://www.w3.org/2000/svg">
  <path
     id="path10"
     fill="none"
     stroke="currentColor"
     stroke-linecap="round"
     stroke-linejoin="round"
     stroke-width="1.5"
     d="M 3.9952012 8.0647935 C 4.6108377 8.2984813 5.2801535 8.422433 5.9785156 8.4130861 7.0426001 8.3951666 8.0773135 8.0627258 8.9511719 7.458008 c 0.9149385 0.6329377 2.0050541 0.9667302 3.1191401 0.9550781 1.03739 -0.017173 2.047544 -0.3333123 2.908204 -0.9101562 0.901007 0.603682 1.964778 0.9210424 3.050781 0.9101562 0.702545 -0.00917 1.372114 -0.1524151 1.984273 -0.4050963 M 8.165926 12.179521 c 1.7261035 0.441613 2.039832 0.819113 2.039832 1.82954 0 1.010427 -0.4609329 1.345868 -2.039832 1.82954 m 8.138299 -1.82954 a 3.0492337 1.8295403 0 0 1 -3.049233 1.82954 3.0492337 1.8295403 0 0 1 -3.049234 -1.82954 3.0492337 1.8295403 0 0 1 3.049234 -1.82954 3.0492337 1.8295403 0 0 1 3.049233 1.82954 z M 20.133829 4.051758 H 5.8754683 3.8661711 M 7.875 19.948242 h 8.25 M 7.3551382 19.655731 c 0.016689 0.03783 0.033378 0.07567 0 0 z M 7.8847656 4.051758 C 5.0117344 5.5417268 3.0490216 8.5430681 3.0488281 12.00293 3.0484687 15.344569 4.9093925 18.408202 7.875 19.948242 h 8.25 c 2.965608 -1.54004 4.826531 -4.603673 4.826172 -7.945312 -1.93e-4 -3.4598619 -1.962906 -6.4612032 -4.835938 -7.951172" />
</svg>
