<svg
   width="14"
   height="14"
   viewBox="0 0 14 14"
   xmlns="http://www.w3.org/2000/svg">
  <path
     id="path4"
     fill="none"
     stroke="currentColor"
     stroke-linecap="round"
     stroke-linejoin="round"
     stroke-width="1"
     d="M 6 8.12 C 3 8.12 0.5 7.17 0.5 6 m 0 -3.38 v 6.76 c 0 1.17 2.44 2.11 5.5 2.12 M 6 4.74 c 3.038 0 5.5 -0.95 5.5 -2.12 C 11.5 1.45 9.038 0.5 6 0.5 2.962 0.5 0.5 1.45 0.5 2.62 0.5 3.79 2.962 4.74 6 4.74 m 5.5 1.1664925 V 2.62" />
  <path
     id="path2"
     fill="none"
     stroke="currentColor"
     stroke-linecap="round"
     stroke-linejoin="round"
     stroke-width="1"
     d="M 10.46842 9.1268322 V 10.46842 h 0.951326 m 2.017094 0 c 0 1.639413 -1.329007 2.96842 -2.96842 2.96842 C 8.8290066 13.43684 7.5 12.107833 7.5 10.46842 7.5 8.8290068 8.8290066 7.5000001 10.46842 7.5 c 1.639413 1e-7 2.96842 1.3290068 2.96842 2.96842 z" />
</svg>
