<svg
   width="24"
   height="24"
   viewBox="0 0 24 24"
   xmlns="http://www.w3.org/2000/svg">
  <path
     d="M 15.729508,2.4748765 H 8.270491 A 0.53278688,0.53278688 0 0 0 7.737705,3.0076635 V 13.663401 a 0.53278688,0.53278688 0 0 0 0.532786,0.532787 h 7.459017 a 0.53278688,0.53278688 0 0 0 0.532787,-0.532787 V 3.0076635 a 0.53278688,0.53278688 0 0 0 -0.532787,-0.532787 z"
     id="path1"
     fill="none"
	 stroke="currentColor"
	 stroke-width="1.5"/>
  <path
     fill="none"
	 stroke-width="1.5"
	 stroke="currentColor"
     d="m 12,12.065041 a 1.5983608,1.5983608 0 1 0 0,-3.1967215 1.5983608,1.5983608 0 0 0 0,3.1967215 z m 0,-5.3278695 a 1.0655738,1.0655738 0 1 0 0,-2.131147 1.0655738,1.0655738 0 0 0 0,2.131147 z"
     id="path2" />
  <path
     id="path3"
	 stroke="currentColor"
     fill="none"
	 stroke-width="1.5"
     stroke-linecap="round"
     stroke-linejoin="round"
     d="m 12,14.196188 c 0,0 0,7.553812 0,7.553812 m -3.421875,0 c 0,0 6.84375,0 6.84375,0" />
</svg>
