<svg
   width="24"
   height="24"
   viewBox="0 0 24 24"
   xmlns="http://www.w3.org/2000/svg">
  <path
     id="path1"
     fill="none"
     stroke="currentColor"
     stroke-linecap="round"
     stroke-linejoin="round"
     stroke-width="1.5"
     d="M 19.5 21 13.940385 9.2262051 M 12.858 6.934 C 11.722858 4.5326387 9.3051408 3.0007821 6.649 3 m 0 0 C 4.0812664 3.0005522 1.9999999 5.0822664 2 7.65 V 7.838 C 2.0009173 9.7261216 3.2090228 11.402167 5 12 m 17 9 H 16.5 M 10 21 h 1.974 c 0.64 0 1.124 -0.565 1.01 -1.179 l -0.914 -4.9 C 11.885692 13.93329 11.459898 13.039319 10.858566 12.292683 M 9.0154078 10.69961 C 8.0462269 10.084975 7.2498375 10 6.024 10 5.458 10 5 10.447 5 10.999 V 14.5 M 6 21 C 4.7171883 21 4.051479 20.074346 4.0028723 19.113618 M 6.1247062 17.002979 C 8.6659965 17.12571 8.6244278 21 6 21 M 2.1311289 20.976677 6.0635314 17.063849 20.054744 3.1422819" />
</svg>
