<svg
   width="24"
   height="24"
   viewBox="0 0 24 24"
   xmlns="http://www.w3.org/2000/svg">
  <path
     id="path1"
     fill="none"
     stroke="currentColor"
     stroke-linecap="round"
     stroke-linejoin="round"
     stroke-width="1.5"
     d="m 21.956725 10.291918 c 0 1.138721 0 2.277443 0 3.416164 M 7.5863619 9.6784419 h 6.5772761 v 1.7711571 c 0.0013 4.386188 -6.5759375 4.386188 -6.5772761 0 z m 1.5037694 0 V 6.9999965 M 12.661013 9.6784419 V 6.9999965 m -1.786012 7.7371005 v 2.262906 M 6.375 6.9999965 H 2.8749999 c -0.5522848 0 -1.0000001 0.447716 -1.0000001 1 v 8.0000015 c 0 0.552283 0.4477153 0.999998 1.0000001 0.999999 l 5.0647842 7e-6 m 5.7850339 -7e-6 H 18.875 c 0.552284 0 1 -0.447716 1 -0.999999 V 7.9999965 c 0 -0.552284 -0.447716 -1 -1 -1 h -3.500001" />
</svg>
