<svg
   height="24"
   viewBox="0 0 24 24"
   width="24"
   xmlns="http://www.w3.org/2000/svg">
  <path
     id="path1"
     fill="none"
     stroke="currentColor"
     stroke-linecap="round"
     stroke-linejoin="round"
     stroke-width="1.5"
     d="m 11.552441 3.3232907 c 3.580264 0.4446693 7.221941 0.6436849 8.273258 2.2489509 1.051317 1.605266 -0.139718 4.7326464 -1.965357 7.3826464 M 11.552441 6.032449 c 2.477325 0.2291232 4.954649 0.4582464 5.67564 1.2953309 0.720992 0.8370845 -0.314349 2.2821309 -1.34969 3.7271771 M 8.5415839 3.1518701 v 3.0108564 l -6.224 -0.9999409 v -1.011 z M 8.8943951 1.545115 h 2.3052339 c 0.195458 0 0.352811 0.099792 0.352811 0.2237496 V 7.545732 c 0 0.1239573 -0.157353 0.2237497 -0.352811 0.2237497 H 8.8943951 c -0.1954573 0 -0.3528111 -0.099792 -0.3528111 -0.2237497 V 1.7688646 c 0 -0.1239573 0.1573538 -0.2237496 0.3528111 -0.2237496 z m -0.034054 9.509773 h 7.0000005 c 1.108 0 2 0.781172 2 1.751508 v 0.296984 c 0 0.970335 -0.892 1.751508 -2 1.751508 H 8.8603415 c -1.108 0 -2 -0.781173 -2 -1.751508 v -0.296984 c 0 -0.970336 0.892 -1.751508 2 -1.751508 z m -2.0000004 3.8 H 17.860341 c 1.108 0 2 0.781173 2 1.751508 v 0.296984 c 0 0.970335 -0.892 1.751508 -2 1.751508 H 6.8603411 c -1.108 0 -2 -0.781173 -2 -1.751508 v -0.296984 c 0 -0.970335 0.892 -1.751508 2 -1.751508 z M 5.0382662 18.654884 H 19.682416 c 1.108 0 2 0.781173 2 1.751508 v 0.296984 c 0 0.970336 -0.892 1.751508 -2 1.751508 H 5.0382662 c -1.108 0 -2 -0.781172 -2 -1.751508 v -0.296984 c 0 -0.970335 0.892 -1.751508 2 -1.751508 z" />
</svg>
