<svg
   width="24"
   height="24"
   viewBox="0 0 24 24"
   xmlns="http://www.w3.org/2000/svg">
  <path
     id="path1"
     fill="none"
     stroke="currentColor"
     stroke-linecap="round"
     stroke-linejoin="round"
     stroke-width="1.5"
     d="M 8.9847873 4.7179005 H 15.015213 M 20.023207 8.1161074 15.015213 4.7179005 V 2.0566542 M 3.9767935 8.1161074 8.9847873 4.7179005 V 2.0566542 M 17.175101 17.600765 c 0.279855 0.579011 0.55971 1.158021 0.451145 1.61158 -0.108564 0.453558 -0.605548 0.781665 -0.72135 1.215923 -0.115803 0.434258 0.149577 0.974668 0.414957 1.515078 m -3.651642 -4.342581 c 0.279855 0.579011 0.55971 1.158021 0.451145 1.61158 -0.108564 0.453558 -0.605548 0.781665 -0.72135 1.215923 -0.115803 0.434258 0.149577 0.974668 0.414957 1.515078 m -3.657244 -4.342581 c 0.279855 0.579011 0.55971 1.158021 0.451145 1.61158 -0.108564 0.453558 -0.605548 0.781665 -0.7213497 1.215923 -0.115803 0.434258 0.1495767 0.974668 0.4149567 1.515078 M 6.6488285 17.600765 c 0.2798553 0.579011 0.5597105 1.158021 0.4511459 1.61158 -0.1085645 0.453558 -0.6055488 0.781665 -0.7213509 1.215923 -0.1158022 0.434258 0.1495778 0.974668 0.4149578 1.515078 M 12.808328 11.351244 v 0 m -2.390911 0 v 0 m -4.4807908 0.04024 H 8.0246811 M 3.9343768 8.1979914 H 20.065623 c 0.408276 0 0.736961 0.4565061 0.736961 1.0235562 v 4.3398784 c 0 0.56705 -0.328685 1.023556 -0.736961 1.023556 H 3.9343768 c -0.4082761 0 -0.7369605 -0.456506 -0.7369605 -1.023556 V 9.2215476 c 0 -0.5670501 0.3286844 -1.0235562 0.7369605 -1.0235562 z" />
</svg>
