<svg
   width="24"
   height="24"
   viewBox="0 0 24 24"
   xmlns="http://www.w3.org/2000/svg">
  <path
     fill="none"
     stroke="currentColor"
     stroke-linecap="round"
     stroke-linejoin="round"
     stroke-miterlimit="10"
     stroke-width="1.5"
     d="m 4 11.252 c 0 7.687 6.918 10.387 7.887 10.728 0.07533 0.02667 0.150667 0.02667 0.226 0 C 13.084 21.65 20 19.018 20 11.253 V 4.304 C 20.000432 4.1200973 19.875414 3.959596 19.697 3.915 l -7.6 -1.903 c -0.06369 -0.015919 -0.130313 -0.015919 -0.194 0 l -7.6 1.903 C 4.124586 3.959596 3.9995682 4.1200973 4 4.304 Z"
     id="path1" />
  <path
     id="path2"
     fill="none"
     stroke="currentColor"
     stroke-linecap="round"
     stroke-linejoin="round"
     stroke-width="1.5"
     d="m 11.378542 6.6370626 c -0.21832 -0.093703 -0.416352 0.1255815 -0.32265 0.2820757 0.329494 0.5735295 0.549 1.2035413 0.64723 1.8576461 0.46583 3.1809386 -0.922383 2.7590286 -0.981471 2.6932476 -0.269518 -0.279179 -0.548696 -0.561253 -0.7303056 -0.908053 -0.05217 -0.104328 -0.240538 -0.27145 -0.5119877 0 -0.6549575 0.539035 -1.0529561 1.367876 -0.9708444 2.212172 0.034781 1.871171 1.6876267 3.236149 3.4998687 3.259333 1.848952 0.02221 3.478617 -1.346624 3.494074 -3.259333 3.93e-4 -1.206469 -0.363584 -2.384934 -1.04426 -3.3810493 -0.745345 -1.1910048 -1.812765 -2.146559 -3.078689 -2.7560391"/>
</svg>
