<svg
   width="24"
   height="24"
   viewBox="0 0 24 24"
   xmlns="http://www.w3.org/2000/svg">
  <path
     fill="none"
     stroke="currentColor"
     stroke-width="1.5"
     d="M 8.1779125 14.694784 C 6.0398445 10.59069 10.999782 6.465534 14.645532 9.3156937 L 12.990224 10.05992 m -1.655308 5.296987 -2.0393394 0.701851 c 3.7195644 3.001751 8.7053794 -1.360771 6.5099054 -5.364103"
     id="path1" />
  <path
     id="path2"
     fill="none"
     stroke="currentColor"
     stroke-linecap="round"
     stroke-linejoin="round"
     stroke-width="1.5"
     d="M 7.5030159 5.4504293 4.4921595 8.4612853 2.3305189 6.2996453 5.3413753 3.2887893 Z M 18.658625 3.2887888 21.669481 6.2996452 19.507841 8.4612858 16.496985 5.4504294 Z M 20 12.71118 a 8 8 0 0 1 -8 8 8 8 0 0 1 -8 -8 8 8 0 0 1 8 -8.0000003 8 8 0 0 1 8 8.0000003 z" />
</svg>
