<svg
   width="24"
   height="24"
   viewBox="0 0 24 24"
   xmlns="http://www.w3.org/2000/svg">
  <path
     id="path1"
     fill="none"
     stroke="currentColor"
     stroke-linecap="round"
     stroke-linejoin="round"
     stroke-width="1.5"
     d="m 10.287247 22.321584 h 3.52113 c 0.769661 0 1.087426 -0.720176 1.389281 -1.486208 l 0.699351 -1.774787 c 0.301854 -0.766033 -0.619619 -1.486208 -1.38928 -1.486208 H 9.4998525 c -0.7696621 0 -1.723183 0.733593 -1.3892811 1.486208 l 0.7873932 1.774787 c 0.3339019 0.752615 0.6196201 1.486208 1.3892824 1.486208 z m 2.502891 -11.876341 v 0 m -0.47497 -6.3456198 v 0 M 10.287247 1.678416 h 3.52113 c 0.769661 0 1.344789 0.6640516 1.389281 1.486208 l 0.699351 12.923548 c 0.0445 0.822157 -0.619619 1.486209 -1.38928 1.486209 H 9.4998525 c -0.7696618 0 -1.4393535 -0.664373 -1.3892815 -1.486209 L 8.8979649 3.164624 C 8.9480369 2.3427888 9.5175847 1.678416 10.287247 1.678416 Z m 1.554113 5.6675734 c 0 0.2465404 -0.199861 0.4464008 -0.446401 0.4464008 -0.24654 0 -0.446401 -0.1998604 -0.446401 -0.4464008 0 -0.2465405 0.199861 -0.446401 0.446401 -0.446401 0.24654 0 0.446401 0.1998605 0.446401 0.446401 z m 0.722767 7.1276056 c 0 0.369811 -0.299791 0.669602 -0.669602 0.669601 -0.36981 0 -0.669601 -0.29979 -0.669601 -0.669601 0 -0.36981 0.299791 -0.669601 0.669601 -0.669601 0.369811 0 0.669602 0.299791 0.669602 0.669601 z" />
</svg>
