<svg
   width="24"
   height="24"
   viewBox="0 0 24 24"
   xmlns="http://www.w3.org/2000/svg">
   <path
	 fill="none"
     stroke="currentColor"
     stroke-linecap="round"
     stroke-linejoin="miter"
     stroke-width="2"
     d="m 16.193305 12 c 0.704463 0 1.408926 0 2.11339 0"
     id="path4" />
  <rect
	 fill="none"
     stroke="currentColor"
     stroke-linecap="round"
     stroke-linejoin="round"
     stroke-width="1.5"
     id="rect2"
     width="18.568735"
     height="6.5687308"
     x="2.7156324"
     y="8.7156343"/>
  <path
     id="path3"
	 fill="none"
     stroke="currentColor"
     stroke-linecap="round"
     stroke-linejoin="round"
     d="m 13.193305 12 a 0.5 0.5 0 0 1 -0.5 0.5 0.5 0.5 0 0 1 -0.5 -0.5 0.5 0.5 0 0 1 0.5 -0.5 0.5 0.5 0 0 1 0.5 0.5 z m -7 0 a 0.5 0.5 0 0 1 -0.5 0.5 0.5 0.5 0 0 1 -0.5 -0.5 0.5 0.5 0 0 1 0.5 -0.5 0.5 0.5 0 0 1 0.5 0.5 z m 3.5 0 a 0.5 0.5 0 0 1 -0.5 0.5 0.5 0.5 0 0 1 -0.5 -0.5 0.5 0.5 0 0 1 0.5 -0.5 0.5 0.5 0 0 1 0.5 0.5 z" />
</svg>
