<svg
   width="24"
   height="24"
   viewBox="0 0 24 24"
   xmlns="http://www.w3.org/2000/svg">
  <path
     id="path1"
     fill="none"
     stroke="currentColor"
     stroke-width="1.5"
     d="m 13.63769 9.7651575 c 0 0.9044715 -0.733219 1.6376905 -1.63769 1.6376905 -0.904471 0 -1.63769 -0.733219 -1.63769 -1.6376905 m 7.733701 2.0471135 c 0 1.255659 -2.729276 2.273571 -6.09601 2.273571 -3.3667341 0 -6.0960118 -1.017912 -6.0960114 -2.273571 1e-7 -1.255659 2.7292777 -2.273571 6.0960114 -2.2735706 3.366733 -10e-8 6.09601 1.0179126 6.09601 2.2735706 z M 21.283975 12 C 21.283974 14.537369 17.127397 16.594313 12 16.594313 6.8726025 16.594313 2.7160253 14.537369 2.7160247 12 2.7160247 9.4626306 6.8726021 7.4056863 12 7.4056865 17.127398 7.4056864 21.283975 9.4626307 21.283975 12 Z" />
</svg>
