<svg
   width="24"
   height="24"
   viewBox="0 0 24 24"
   xmlns="http://www.w3.org/2000/svg">
  <path
     id="path1"
     fill="none"
     stroke="currentColor"
     stroke-linecap="round"
     stroke-linejoin="round"
     stroke-width="1.5"
     d="M 6.127218 6.7722066 H 17.872782 M 7.6929616 6.1591139 c 0 -2.3876224 1.9355507 -4.3231728 4.3231724 -4.3231726 2.387622 2e-7 4.323172 1.9355504 4.323172 4.3231726 m 5.292702 3.5494841 c -1.387525 0 -2.775051 0 -4.162576 0 m -10.9388636 0 H 2.367992 m 4.1625763 0 H 17.469432 V 14.77468 H 6.5305683 Z m 10.9388637 8.19608 V 14.77468 m 2.129692 5.259689 a 2.1296902 2.1296902 0 0 1 -2.129691 2.12969 2.1296902 2.1296902 0 0 1 -2.12969 -2.12969 2.1296902 2.1296902 0 0 1 2.12969 -2.129691 2.1296902 2.1296902 0 0 1 2.129691 2.129691 z M 6.5305683 17.904678 V 14.77468 m 2.1296906 5.259689 a 2.1296902 2.1296902 0 0 1 -2.1296904 2.12969 2.1296902 2.1296902 0 0 1 -2.1296903 -2.12969 2.1296902 2.1296902 0 0 1 2.1296903 -2.129691 2.1296902 2.1296902 0 0 1 2.1296904 2.129691 z" />
</svg>
