<svg
   width="24"
   height="24"
   viewBox="0 0 24 24"
   xmlns="http://www.w3.org/2000/svg">
   <path
     id="path7"
     fill="none"
     stroke="currentColor"
     stroke-linecap="round"
     stroke-linejoin="round"
     stroke-width="1.5"
     d="m 12.976646 15.422492 c -0.414118 -0.836854 -0.828228 -1.673693 -0.614698 -2.130683 0.213529 -0.45699 1.054663 -0.534094 1.28599 -1.03834 0.231326 -0.504247 -0.147191 -1.435593 -0.01049 -1.92277 0.136697 -0.4871762 0.788589 -0.5301632 1.416366 -0.5343139 0.627778 -0.00415 1.231404 0.030534 1.835041 0.06522 M 8.284314 13.835928 c 0.5892146 -0.434176 1.1784287 -0.868351 1.2907791 -1.411212 0.1123505 -0.542862 -0.2521487 -1.194385 0.017735 -1.695584 0.2698837 -0.501199 1.1773839 -0.29954 1.6251899 -1.0533835 0.609551 -1.0261268 0.121822 -1.7401121 0.0784 -2.0312936 -0.09582 -0.6425708 0.34768 -1.3272929 0.649566 -2.0065406 m 4.995193 4.9408817 a 4.9411769 4.9411769 0 1 1 -9.8823538 0 4.9411769 4.9411769 0 0 1 9.8823538 0 z M 13.61757 21.366997 a 2.37 2.37 0 0 1 -1.618 0.633 2.37 2.37 0 0 1 -1.617 -0.633 c -3.971 -3.741 -9.293 -7.92 -6.698 -13.9870003 1.405 -3.28 4.773 -5.38 8.316 -5.38 3.543 0 6.912 2.1 8.315 5.38 2.592 6.0600003 -2.717 10.2590003 -6.698 13.9870003 z" />
</svg>
