<svg
   width="24"
   height="24"
   viewBox="0 0 24 24"
   xmlns="http://www.w3.org/2000/svg">
  <path
     id="path1"
     fill="none"
     stroke="currentColor"
     stroke-linecap="round"
     stroke-linejoin="round"
     stroke-width="1.5"
     d="M 16.219625 5.0524628 10.608473 15.741715 M 7.6818824 5.0118449 13.293035 15.701097 M 10.517723 5.0341982 11.975862 7.5597694 13.429757 5.0415477 M 6.4410442 5.0239137 c 3.7711808 0.00951 7.5423618 0.019033 11.3135428 0.028549 m 0 -2e-7 c 0 0 0.502498 0.2172346 0.666756 0.5017375 l 3.829586 6.633038 c 0.164259 0.284503 0.120121 0.615373 -0.09897 0.74186 l -3.22143 1.859894 c -0.219082 0.126488 -0.521229 -0.0046 -0.69195 -0.285226 L 16.953538 12.391107 M 7.0238701 12.317129 5.7614144 14.503767 C 5.597157 14.788268 5.2885466 14.91548 5.0694641 14.788992 L 1.8480334 12.929098 C 1.6289503 12.802611 1.5848131 12.471741 1.7490706 12.187238 L 5.5786571 5.5542005 C 5.8752418 5.0405009 6.4410442 5.0239137 6.4410442 5.0239137 M 7.5552844 12.06385 h 8.8148136 c 0.378082 0 0.68246 0.304378 0.68246 0.68246 v 5.559385 c 0 0.378083 -0.304378 0.68246 -0.68246 0.68246 H 7.5552844 c -0.3780827 0 -0.6824597 -0.304377 -0.6824597 -0.68246 V 12.74631 c 0 -0.378082 0.304377 -0.68246 0.6824597 -0.68246 z" />
</svg>
