<svg
   width="24"
   height="24"
   viewBox="0 0 24 24"
   xmlns="http://www.w3.org/2000/svg">
  <path
     fill="none"
     stroke="currentColor"
     d="m 5.8864374 19.766518 c 4.6579506 0 4.6579506 -6.986928 0 -6.986928 -4.6579506 0 -4.6579506 6.986928 0 6.986928 z m 12.2271256 0 c 4.65795 0 4.65795 -6.986928 0 -6.986928 -4.657951 0 -4.657951 6.986928 0 6.986928 z M 6.8734385 8.4127584 H 9.5519777 M 18.113563 16.273054 15.493464 7.5393923 H 14.249973 M 9.3799019 11.032857 5.9908317 16.116461 c -0.1894497 0.216414 0.047336 0.156818 0.1326159 0.156593 h 4.6168274 0.662329 c 0.431252 0.07845 1.022874 -1.231724 1.8314 -2.561454 0.523107 -0.860321 1.603129 -2.678743 1.986888 -2.678743 0.453829 0 0.687423 -9.3e-5 1.145939 0 z m 0 0 -1.7467323 -2.6200986"
     id="path1"
     stroke-width="1.5"
	 stroke-linecap="round"
     />
  <path
     id="path2"
     fill="none"
     stroke="currentColor"
     stroke-width="1.5"
	 stroke-linecap="round"
     stroke-linejoin="miter"
     d="m 20.561167 3.4787811 -1.873605 3.1226765 m 1.873605 -3.1226765 -1.873605 3.1226765 h 2.365784 L 19.17974 9.7241342" />
</svg>
