<svg
   width="24"
   height="24"
   viewBox="0 0 24 24"
   xmlns="http://www.w3.org/2000/svg">
  <path
     id="use1"
     fill="none"
     stroke="currentColor"
     stroke-linecap="round"
     stroke-linejoin="round"
     stroke-width="1.5"
     d="M 17.765025 5.6293245 C 16.738048 6.3139765 15.026419 7.6832798 13.657117 10.07956 M 15.026419 8.0256048 C 13.202508 4.013548 16.967406 2.7099716 19.76763 2.5593483 c 0.338218 -0.018486 0.506643 -0.027386 0.628511 0.089689 0.121183 0.1163907 0.113652 0.2841303 0.09996 0.6175555 -0.115706 2.7748927 -1.365195 6.543899 -5.469681 4.759012 M 10.214286 20.928571 h 3.571428 M 12.878455 3.1212787 C 12.596406 3.0884847 12.303533 3.0714287 12 3.0714287 c -3.928572 0 -6.071429 2.8571428 -6.071429 5.7142861 0 2.8571422 2.857143 3.5714282 2.857143 6.4285712 v 1.428571 h 6.428572 v -1.428571 c 0 -2.002812 1.40394 -2.95267 2.24354 -4.325781" />
</svg>
