<svg
   width="24"
   height="24"
   viewBox="0 0 24 24"
   xmlns="http://www.w3.org/2000/svg">
  <path
     id="path1"
     fill="none"
     stroke="currentColor"
     stroke-linecap="round"
     stroke-linejoin="round"
     stroke-width="1.5"
     d="m 8.5284064 13.53509 h 6.9431876 c 0.224371 0 0.447343 0.184662 0.405001 0.405002 l -1.090154 5.672917 c -0.04234 0.22034 -0.180631 0.405002 -0.405001 0.405002 H 9.6185619 c -0.2243708 0 -0.3626594 -0.184662 -0.4050016 -0.405002 L 8.1234047 13.940092 C 8.0810623 13.719752 8.3040355 13.53509 8.5284064 13.53509 Z m 0.89769 -11.256836 h 5.1478076 c 0.239133 0 0.431649 0.1925159 0.431649 0.43165 v 10.337959 c 0 0.239135 -0.192516 0.431651 -0.431649 0.431651 H 9.4260964 c -0.239134 0 -0.4316499 -0.192516 -0.4316499 -0.431651 V 2.709904 c 0 -0.2391341 0.1925159 -0.43165 0.4316499 -0.43165 z" />
  <path
     id="path2"
     fill="none"
     stroke="currentColor"
     stroke-linecap="round"
     stroke-linejoin="round"
     stroke-width="1.5"
     d="m 12 20.018011 v 1.703735 M 12 2.278254 c 0 3.7337534 0 7.4675069 0 11.20126" />
</svg>
