<svg
   width="24"
   height="24"
   viewBox="0 0 24 24"
   xmlns="http://www.w3.org/2000/svg">
  <path
     id="path5"
     fill="none"
     stroke="currentColor"
     stroke-linecap="round"
     stroke-linejoin="round"
     stroke-width="1.5"
     d="m 13.233474 14.221656 a 0.9 0.9 0 0 1 0.9 -0.9 h 6.3 a 0.9 0.9 0 0 1 0.9 0.9 v 6.3 a 0.9 0.9 0 0 1 -0.9 0.9 h -6.3 a 0.9 0.9 0 0 1 -0.9 -0.9 z m -10.5669477 0 a 0.9 0.9 0 0 1 0.9 -0.9 h 6.3 a 0.9 0.9 0 0 1 0.9000007 0.9 v 6.3 a 0.9 0.9 0 0 1 -0.9000007 0.9 h -6.3 a 0.9 0.9 0 0 1 -0.9 -0.9 z M 7.95 3.4783439 a 0.9 0.9 0 0 1 0.9 -0.9 h 6.3 a 0.9 0.9 0 0 1 0.9 0.9 v 6.3 a 0.9 0.9 0 0 1 -0.9 0.9000001 H 8.85 A 0.9 0.9 0 0 1 7.95 9.7783439 Z" />
  <path
     id="path6"
     fill="none"
     stroke="currentColor"
     stroke-linecap="round"
     stroke-linejoin="round"
     stroke-width="1.5"
     d="m 17.909012 15.802758 c -0.503926 -0.458108 -1.525538 -0.235142 -1.525538 0.668898 v 1.8 c 0 0.937456 1.09853 1.142559 1.579217 0.615308 M 5.6527573 19.171656 h 1.063769 c 1.1999995 0 1.1999995 -1.8 0 -1.8 h -1.063769 1.063769 c 1.1999995 0 1.1999995 -1.8 0 -1.8 H 5.6527573 Z M 10.425716 8.4076565 10.946825 5.62449 c 0.258432 -1.3802473 1.859336 -1.3823364 2.10635 0 l 0.492159 2.754216 M 10.620871 7.365362 13.290506 7.340681" />
</svg>
