<svg
   width="24"
   height="24"
   viewBox="0 0 24 24"
   xmlns="http://www.w3.org/2000/svg">
  <path
     id="path1"
     fill="none"
     stroke="currentColor"
     stroke-linecap="round"
     stroke-linejoin="round"
     stroke-width="1.5"
     d="m 6.0893658 10.538374 1.1821293 0.886596 1.040865 0.260069 q 0.1418554 0.03547 0.2866663 0.03547 h 6.8019716 q 0.14481 0 0.286666 -0.03547 l 1.040865 -0.260069 1.182129 -0.886596 m 0 4.091348 v 1.819298 c 0 0.275435 0 0.413154 -0.04493 0.52191 -0.06012 0.144538 -0.175117 0.259326 -0.319767 0.319175 -0.108756 0.04551 -0.246473 0.04551 -0.521909 0.04551 -0.275436 0 -0.413154 0 -0.52191 -0.04492 -0.144539 -0.06012 -0.259325 -0.175117 -0.319175 -0.319767 -0.04551 -0.108755 -0.04551 -0.246473 -0.04551 -0.521909 0 -0.275437 0 -0.413154 -0.04493 -0.52191 -0.06012 -0.144539 -0.175116 -0.259326 -0.319766 -0.319175 -0.108755 -0.04551 -0.246473 -0.04551 -0.521909 -0.04551 H 8.7491567 c -0.2754361 0 -0.413154 0 -0.52191 0.04492 -0.1445384 0.06012 -0.2593257 0.175116 -0.3191749 0.319765 -0.045512 0.108756 -0.045512 0.246475 -0.045512 0.521911 0 0.275435 0 0.413154 -0.044921 0.52191 -0.060117 0.144538 -0.1751165 0.259326 -0.3197659 0.319175 -0.1087559 0.04551 -0.246474 0.04551 -0.5219101 0.04551 -0.2754361 0 -0.4131541 0 -0.52191 -0.04492 -0.144538 -0.06011 -0.2593252 -0.175119 -0.3191746 -0.319767 -0.045513 -0.108757 -0.045513 -0.246476 -0.045513 -0.521911 v -1.819298 c 0 -0.710459 0 -1.065688 0.1016632 -1.400822 0.1016633 -0.335134 0.2984877 -0.630666 0.6927278 -1.22173 L 7.2714951 11.42497 7.8400993 10.060792 C 8.2804425 9.0027874 8.5009097 8.4743754 8.9477546 8.176479 m 0 0 C 9.3945992 7.8785826 9.9667503 7.8785826 11.113415 7.8785826 h 1.773193 c 1.146075 0 1.718817 0 2.165661 0.2978964 0.446845 0.2978964 0.667312 0.826899 1.107655 1.884313 l 0.568605 1.364178 0.387738 0.582199 c 0.394239 0.591065 0.591065 0.886596 0.692728 1.22173 0.101665 0.335134 0.101665 0.690364 0.101665 1.400823 m -2.364261 -0.840493 v 0.0059 m -7.0927745 -0.0059 v 0.0059" />
  <path
     id="path2"
     fill="none"
     stroke="currentColor"
     stroke-linecap="round"
     stroke-linejoin="round"
     stroke-width="1.5"
     d="m 12.123643 2.4098456 c 5.444726 0 9.858549 4.4138233 9.858549 9.8585504 0 5.444727 -4.413823 9.85855 -9.858549 9.85855 -5.4447264 0 -9.8585492 -4.413823 -9.8585492 -9.85855 0 -2.146631 0.6860845 -4.1330191 1.850936 -5.7518457 M 4.747554 2.792129 8.0886977 5.4977345 7.3601214 6.397452 C 5.5565154 8.6261105 2.215371 5.9205053 4.018977 3.6918468 3.4203133 4.3660812 4.0458264 3.5936369 4.747554 2.792129 Z M 5.5114436 3.4107149 6.6132394 2.05011 M 7.3253901 4.8796197 8.4271854 3.5190154" />
</svg>
