<svg
   width="24"
   height="24"
   viewBox="0 0 24 24"
   xmlns="http://www.w3.org/2000/svg">
   <path
     fill="none"
     stroke="currentColor"
     stroke-linecap="round"
     stroke-linejoin="round"
     stroke-width="1.5"
     d="M 2.662775,18.40876 V 15.535767 A 1.4364962,1.4364962 0 0 1 4.0992712,14.099271 H 19.900729 a 1.4364962,1.4364962 0 0 1 1.436496,1.436496 v 2.872993 a 1.4364962,1.4364962 0 0 1 -1.436496,1.436496 H 4.0992712 A 1.4364962,1.4364962 0 0 1 2.662775,18.40876 m 3.5912404,1.436496 v 1.436496 m 0,-4.309489 h 0.7182485 m 2.872992,0 H 10.563504 M 3.3810231,6.1985421 5.5357673,14.099271 M 20.618977,6.1985421 18.464233,14.099271 M 7.0440879,4.7620459 c 2.729343,-2.7293427 7.1824811,-2.7293427 9.9118241,0 m -7.3189481,2.202149 c 1.2339501,-1.2339506 3.3470361,-1.2339506 4.5824231,0 m 3.526598,12.8810611 v 1.436496 m -5.81781,-10.957593 a 0.35912404,0.35912404 0 1 1 0,-0.7182481 m 0,0.7182481 a 0.35912404,0.35912404 0 1 0 0,-0.7182481"
     id="path1" />
</svg>
