<svg
   width="24"
   height="24"
   viewBox="0 0 24 24"
   xmlns="http://www.w3.org/2000/svg">
  <path
     fill="none"
     stroke="currentColor"
     stroke-linecap="round"
     stroke-width="1.5"
     d="m 15.446887 11.180105 v 0.0079 m -9.4198888 -0.0079 v 0.0079"
     id="path1"/>
  <path
     id="path5"
     fill="none"
     stroke="currentColor"
     stroke-linecap="round"
     stroke-linejoin="round"
     stroke-width="1.5"
     d="M 13.501708 19.520692 H 21.08675 V 8.5693607 H 17.438982 M 10.049676 21.663079 V 17.36383 h 1.15772 c 2.867038 -8.75e-4 2.888751 4.312849 0.02171 4.313724 -1.15772 0 -1.128202 -0.0242 -1.179433 -0.01448 z m 0 -0.982942 H 8.2989048 M 10.049676 18.346024 H 8.2989048 M 18.58685 12.296361 v 2.416203 c 0 0.365805 0 0.548708 -0.05966 0.693147 -0.07984 0.191961 -0.232571 0.344409 -0.42468 0.423894 -0.144439 0.06044 -0.327341 0.06044 -0.693146 0.06044 -0.365806 0 -0.548709 0 -0.693147 -0.05965 -0.191961 -0.07984 -0.344409 -0.232572 -0.423895 -0.424681 -0.06044 -0.144438 -0.06044 -0.327341 -0.06044 -0.693146 0 -0.365806 0 -0.548709 -0.05966 -0.693147 -0.07984 -0.191961 -0.232571 -0.344409 -0.42468 -0.423894 -0.144438 -0.06044 -0.327341 -0.06044 -0.693146 -0.06044 H 6.4194937 c -0.3658057 0 -0.5487085 0 -0.6931468 0.05965 -0.191961 0.07984 -0.3444095 0.232572 -0.4238951 0.42468 -0.060445 0.144438 -0.060445 0.327341 -0.060445 0.693147 0 0.365805 0 0.548708 -0.059659 0.693147 -0.079841 0.191961 -0.2325717 0.344409 -0.42468 0.423894 -0.1444384 0.06044 -0.3273412 0.06044 -0.6931469 0.06044 -0.3658056 0 -0.5487085 0 -0.6931468 -0.05965 -0.1919605 -0.07984 -0.344409 -0.232574 -0.4238947 -0.424682 -0.060445 -0.144439 -0.060445 -0.327342 -0.060445 -0.693147 v -2.416203 c 0 -0.943558 0 -1.415337 0.1350184 -1.860427 C 3.1570717 9.9908466 3.4184736 9.5983513 3.9420624 8.8133609 L 4.4570168 8.0401424 5.2121778 6.2283835 C 5.796996 4.8232501 6.0897976 4.1214684 6.6832506 3.7258331 m 0 0 C 7.2767036 3.3301977 8.0365747 3.3301977 9.5594565 3.3301977 h 2.3549715 c 1.522097 0 2.282754 0 2.876207 0.3956354 0.593453 0.3956353 0.886255 1.0982021 1.471072 2.5025504 l 0.755161 1.8117589 0.514955 0.7732165 c 0.523588 0.7849905 0.78499 1.1774858 0.920009 1.6225751 0.135018 0.44509 0.135018 0.916869 0.135018 1.860427 M 2.8870352 6.8626558 4.4570168 8.0401424 5.8393855 8.3855385 q 0.1883978 0.047098 0.3807206 0.047098 H 15.25378 q 0.192323 0 0.38072 -0.047098 L 17.016868 8.0401424 18.58685 6.8626558" />
</svg>
