<svg
   viewBox="0 0 24 24"
   version="1.1"
   width="24"
   height="24"
   xmlns="http://www.w3.org/2000/svg">
  <path
     fill="none"
     stroke="currentColor"
     stroke-linecap="square"
     stroke-linejoin="miter"
     stroke-width="1.5"
     d="m 17.936696 2.4873755 h 2.5367 V 21.512624 h -2.5367 M 18.570872 12 h 1.902524 m -1.26835 4.439224 h 1.26835 m -1.26835 -9.5126235 h 1.26835"
     id="path5"
      />
  <path
     id="path1-1-5"
     fill="none"
     stroke="currentColor"
     stroke-linecap="round"
     stroke-linejoin="round"
     stroke-width="1.5"
     d="m 13.372624 12.892221 c -1.532463 2.33032 -2.517393 3.786771 -2.517393 5.201146 0 1.414376 1.126534 2.566592 2.517393 2.566592 1.39086 0 2.517392 -1.148978 2.517392 -2.566592 0 -0.963026 -0.454533 -1.943973 -1.226474 -3.203615 C 14.299154 14.29515 13.86404 13.638448 13.372624 12.892221 Z M 6.806279 3.4961659 C 4.8097769 6.5321225 3.526604 8.4295955 3.526604 10.272252 c 0 1.842658 1.4676545 3.343771 3.279675 3.343771 1.812021 0 3.279675 -1.496896 3.279675 -3.34377 0 -1.8468745 -1.283172 -3.7443475 -3.279675 -6.7760871 z" />
</svg>
