<svg
   width="24"
   height="24"
   viewBox="0 0 24 24"
   xmlns="http://www.w3.org/2000/svg">
  <path
     id="path1"
     fill="none"
     stroke="currentColor"
     stroke-linecap="round"
     stroke-linejoin="round"
     stroke-width="1.5"
     d="m 6.9236381 14.726728 c -2.6666655 0 -2.6666655 4 0 4 2.666666 0 2.666666 -4 0 -4 m 0 0 v -3 m -3 1 c -3.84462525 2.883469 -1.8044621 8.999499 3 8.999499 4.8044619 0 6.8446249 -6.11603 3 -8.999499 m -6 0 V 3.7267279 h 6 v 9.0000001 m 0 -9.0000001 h 1.9999999 m -1.9999999 3 h 1.9999999 m -1.9999999 3 h 1.9999999" />
  <path
     id="path2"
     d="m 18.315678 1.6299275 h 0.0052 m 4.161556 4.1667642 h 0.0052 M 18.315668 9.963456 h 0.0052 M 14.148914 5.7966917 h 0.0052 m 7.107989 -2.9464228 h 0.0052 m -0.0052 5.8928463 h 0.0052 m -5.898054 0 h 0.0052 m -0.0052 -5.8928463 h 0.0052 m 4.770121 2.946423 A 1.8285714 1.8285714 0 0 1 18.315998 7.6252633 1.8285714 1.8285714 0 0 1 16.487427 5.7966919 1.8285714 1.8285714 0 0 1 18.315998 3.9681205 1.8285714 1.8285714 0 0 1 20.14457 5.7966919 Z"
     fill="none"
     stroke="currentColor"
     stroke-linecap="round"
     stroke-linejoin="round"
     stroke-width="1.5" />
</svg>
