<svg
   width="24"
   height="24"
   viewBox="0 0 24 24"
   xmlns="http://www.w3.org/2000/svg">
  <path
     id="path1"
     fill="none"
     stroke="currentColor"
     stroke-linecap="round"
     stroke-linejoin="round"
     stroke-width="1.5"
     d="M 21.5 12 A 9.5 9.5 0 0 1 12 21.5 9.5 9.5 0 0 1 2.5 12 9.5 9.5 0 0 1 12 2.5 9.5 9.5 0 0 1 21.5 12 Z" />
  <path
     id="path2"
     id="path1"
     fill="none"
     stroke="currentColor"
     stroke-linecap="round"
     stroke-linejoin="round"
     stroke-width="1.5"
     d="M 15.695493 12 A 3.6954927 3.6505282 0 0 1 12 15.650528 3.6954927 3.6505282 0 0 1 8.3045073 12 3.6954927 3.6505282 0 0 1 12 8.3494718 3.6954927 3.6505282 0 0 1 15.695493 12 Z" />
</svg>
