<svg
   width="24"
   height="24"
   viewBox="0 0 24 24"
   xmlns="http://www.w3.org/2000/svg">
  <path
     id="use9"
     fill="none"
     stroke="currentColor"
     stroke-linecap="round"
     stroke-linejoin="round"
     stroke-width="1.5"
     d="m 15.73462 17.804583 v 4.024126 M 8.26538 17.804583 v 4.024126 m 0 -4.024126 c 10e-8 -2.062574 1.6720464 -3.73462 3.73462 -3.73462 2.062574 0 3.73462 1.672046 3.73462 3.73462 M 20 14 v 6.941672 C 20 22.046241 20.104569 22 19 22 H 5 C 3.8954305 22 4 22.046241 4 20.941672 V 14 M 2.6 10.4 a 2.1213675 2.1213675 0 1 0 3.02 2.98 L 12 7 l 6.4 6.4 a 2.1213723 2.1213723 0 1 0 2.979 -3.021 L 13.7 2.7 a 2.4 2.4 0 0 0 -3.404 0.004 z" />
</svg>
