<svg
   width="24"
   height="24"
   viewBox="0 0 24 24"
   xmlns="http://www.w3.org/2000/svg">
  <path
     id="path1"
     fill="none"
     stroke="currentColor"
     stroke-linecap="round"
     stroke-linejoin="round"
     stroke-width="1.5"
     d="M 7.493 3 H 3.502 C 3.2087501 2.9998906 2.9583862 3.2117695 2.91 3.501 l -0.705 7.351677 c -0.034293 0.170539 0.022516 0.346646 0.15 0.465 0.328 0.29 1.061 0.806 2.138 0.806 1.5 0 2.5 -1 2.5 -1 z m 4.5 0 v 8.122677 c 0 0 -1 1 -2.5 1 -1.5 0 -2.5 -1 -2.5 -1 L 7.493 3 Z m 4.5 0 0.5 8.122677 c 0 0 -1 1 -2.5 1 -1.5 0 -2.5 -1 -2.5 -1 V 3 Z m 3.992 0 h -3.992 l 0.5 8.122677 c 0 0 1 1 2.5 1 0.787409 0.001 1.548078 -0.285592 2.139 -0.806 0.127484 -0.118354 0.184293 -0.294461 0.15 -0.465 L 21.076 3.5 C 21.027241 3.2115396 20.777552 3.0002965 20.485 3 Z M 3 12.122677 V 19 c 0 1.104569 0.8954305 2 2 2 h 14 c 1.104569 0 2 -0.895431 2 -2 v -6.877323"/>
</svg>
