<svg
   width="24"
   height="24"
   viewBox="0 0 24 24"
   xmlns="http://www.w3.org/2000/svg">
  <path
     id="path1"
     fill="none"
     stroke="currentColor"
     stroke-width="1.5"
     stroke-linecap="round"
     stroke-linejoin="round"
     d="m 14.442126 21.254632 v -3.738098 c 0 -1.719026 1.348989 -3.112572 3.013051 -3.112572 1.664062 0 3.013052 1.393546 3.013052 3.112572 v 3.738098 M 16.725681 2.7393999 h 1.458992 c 0.345874 0 0.624322 0.3300124 0.624322 0.7399377 v 3.5457925 c 0 0.4099253 -0.278448 0.7399377 -0.624323 0.7399377 h -1.458991 c -0.345875 0 -0.624323 -0.3300124 -0.624323 -0.7399377 V 3.4793376 c 0 -0.4099253 0.278448 -0.7399377 0.624323 -0.7399377 z M 7.5182596 16.306048 h 1.461287 c 0.346419 0 0.625305 0.325367 0.625305 0.729522 v 3.49588 c 0 0.404155 -0.278886 0.729522 -0.625305 0.729522 h -1.461287 c -0.346419 0 -0.625305 -0.325367 -0.625305 -0.729522 v -3.49588 c 0 -0.404155 0.278886 -0.729522 0.625305 -0.729522 z M 17.455176 7.7650679 c 0 4.4965211 0 8.9930431 0 13.4895641 M 8.2489032 13.003067 c 0 1.100993 0 2.201988 0 3.302981 M 11.13323 7.1699312 c -2.8843269 -5.8331358 -2.8843269 -5.8331358 -5.7686536 0 -2.8843265 5.8331358 -2.8843265 5.8331358 2.8843267 5.8331358 5.7686529 0 5.7686529 0 2.8843269 -5.8331358 z" />
</svg>
