<svg
   width="24"
   height="24"
   viewBox="0 0 24 24"
   xmlns="http://www.w3.org/2000/svg">
  <path
     fill="none"
     stroke="currentColor"
     stroke-linecap="round"
     stroke-linejoin="round"
     stroke-width="1.5"
     d="m 2 16.202235 c 0.6 0.5 1.2 1 2.5 1 2.5 0 2.5 -2 5 -2 2.6 0 2.4 2 5 2 2.5 0 2.5 -2 5 -2 1.3 0 1.9 0.5 2.5 1 m -20 4 c 0.6 0.5 1.2 1 2.5 1 2.5 0 2.5 -2 5 -2 2.6 0 2.4 2 5 2 2.5 0 2.5 -2 5 -2 1.3 0 1.9 0.5 2.5 1"
     id="path1" />
  <path
     id="path3"
     fill="none"
     stroke="currentColor"
	 stroke-linecap="round"
     stroke-width="1.5"
     d="M 3.267987 13.879043 V 10.915597 L 12 3.0567863 20.732013 10.915597 v 2.176867" />
</svg>
