<svg
   width="24"
   height="24"
   viewBox="0 0 24 24"
   xmlns="http://www.w3.org/2000/svg">
  <path
     id="path1"
     fill="none"
     stroke="currentColor"
     stroke-linecap="round"
     stroke-linejoin="round"
     stroke-width="1.5"
     d="m 17.043125 16.113029 v 0 m -1.829615 0 v 0 m 3.697467 0 a 2.8 2.8 0 0 1 -2.8 2.8 2.8 2.8 0 0 1 -2.8 -2.8 2.8 2.8 0 0 1 2.8 -2.799999 2.8 2.8 0 0 1 2.8 2.799999 z m -10.0898064 0 v 0 m -1.8296145 0 v 0 m 3.6974669 0 a 2.8 2.8 0 0 1 -2.8000002 2.8 2.8 2.8 0 0 1 -2.7999999 -2.8 2.8 2.8 0 0 1 2.7999999 -2.799999 2.8 2.8 0 0 1 2.8000002 2.799999 z m 6.354101 -8.3931613 v 0 m -1.829614 0 v 0 m 3.697467 5e-7 a 2.8 2.8 0 0 1 -2.8 2.7999998 2.8 2.8 0 0 1 -2.8 -2.7999998 2.8 2.8 0 0 1 2.8 -2.8 2.8 2.8 0 0 1 2.8 2.8 z m -10.0898067 -5e-7 v 0 m -1.8296144 0 v 0 m 3.6974671 0 A 2.8 2.8 0 0 1 7.8890228 10.519868 2.8 2.8 0 0 1 5.0890229 7.7198677 2.8 2.8 0 0 1 7.8890228 4.9198678 2.8 2.8 0 0 1 10.689023 7.7198677 Z M 3.8888001 2.1129162 H 20.1112 c 0.90792 0 1.638846 0.7309253 1.638846 1.638846 V 19.974162 c 0 0.907921 -0.730926 1.638846 -1.638846 1.638846 H 3.8888001 c -0.9079206 0 -1.6388459 -0.730925 -1.6388459 -1.638846 V 3.7517622 c 0 -0.9079207 0.7309253 -1.638846 1.6388459 -1.638846 z" />
</svg>
