<svg
   width="24"
   height="24"
   viewBox="0 0 24 24"
   xmlns="http://www.w3.org/2000/svg">
  <path
     id="path3"
     fill="none"
     stroke="currentColor"
     stroke-linecap="round"
     stroke-linejoin="round"
     stroke-width="1.5"
     d="m 11.982395 12.924781 0.03521 3.178319 M 2.7662242 8.1465985 C 2.6424912 4.8797635 5.1882617 2.3339924 8.4550969 2.4577254 M 5.7244382 8.2603765 C 5.6625712 6.6269585 6.936168 5.3533625 8.5688741 5.4159405 M 15.544903 2.4577262 c 3.266835 -0.123733 5.812606 2.4220375 5.688873 5.6888725 m -5.802651 -2.730658 c 1.633418 -0.06187 2.907014 1.211729 2.844436 2.844435 M 12 7.5465196 c 0 0 -5 5.9999994 -5 8.9999994 0 2.76 2.24 5 5 5 M 12 7.5465196 c 0 0 5 5.9999994 5 8.9999994 0 2.76 -2.24 5 -5 5" />
  <circle
     id="path4"
     fill="currentColor"
     stroke-width="0"
     cy="18.196434"
     cx="12"
     r="0.75" />
</svg>
