<svg
   width="24"
   height="24"
   viewBox="0 0 24 24"
   xmlns="http://www.w3.org/2000/svg">
  <path
     id="path1"
     fill="none"
     stroke="currentColor"
     stroke-linecap="round"
     stroke-linejoin="round"
     stroke-width="1.5"
     d="m 21.931004 14.055489 c -1e-6 1.632239 -4.446264 2.95543 -9.931005 2.95543 -5.4847406 0 -9.931002 -1.323191 -9.9310035 -2.95543 -4e-7 -1.632239 4.4462616 -2.955431 9.9310035 -2.955431 5.484743 0 9.931005 1.323192 9.931005 2.955431 z M 2.0689956 9.9445121 c -6e-7 -1.632239 4.4462614 -2.955431 9.9310034 -2.9554311 5.484743 -10e-8 9.931006 1.3231911 9.931005 2.9554311" />
  <path
     id="path2"
     fill="none"
     stroke="currentColor"
     stroke-linecap="round"
     stroke-linejoin="round"
     stroke-width="1.5"
     d="m 11.276237 14.055488 c 0.482509 0 0.965018 0 1.447527 0 m 9.20724 -4.1109756 c 0 1.3703256 0 2.7406506 0 4.1109766 M 2.0689956 9.9445121 c 0 1.3703259 -10e-8 2.7406509 -10e-8 4.1109769" />
</svg>
