<svg
   width="24"
   height="24"
   viewBox="0 0 24 24"
   xmlns="http://www.w3.org/2000/svg">
  <path
     id="use1"
     fill="none"
     stroke="currentColor"
     stroke-linecap="round"
     stroke-linejoin="round"
     stroke-width="1.5"
     d="m 5.9020811 14.172297 h 6.0999999 l -0.8 3.561975 H 6.7020811 Z m 1.5 -9.9489668 h 2.9999999 m 2.37 5.4622186 c -1.44005 -0.946114 -2.325418 -2.537534 -2.37 -4.2599999 V 1.2711098 H 7.4020811 v 4.1544391 c -0.04458 1.7224659 -0.92995 3.3138859 -2.37 4.2599999 -1.622009 1.4200002 -2.158951 3.0161542 -2.13 3.9034142 0.02702 0.827986 1.671573 8.766586 2.5 8.766586 h 6.9999999 c 0.828427 0 2.543425 -7.939298 2.5 -8.766586 -0.06417 -1.222567 -1.005718 -2.945454 -2.13 -3.9034142 m 2.149782 9.7617692 h 5.81646 m -6.398107 -4.071523 0.492654 5.913014 a 1.1632922 1.1632922 0 0 0 1.159222 1.06674 h 3.676002 a 1.1632922 1.1632922 0 0 0 1.159222 -1.06674 l 0.492654 -5.913014 z" />
</svg>
