<svg
   width="24"
   height="24"
   viewBox="0 0 24 24"
   xmlns="http://www.w3.org/2000/svg">
  <path
     id="path1"
     fill="none"
     stroke="currentColor"
     stroke-linecap="round"
     stroke-linejoin="round"
     stroke-width="1.5"
     d="m 13.382388 16.049005 c 2.036189 0 4.072377 0 6.108565 0 m -14.9819061 0 c 2.0361882 0 4.0723764 0 6.1085651 0 m 2.764776 -2.699337 c 2.036189 0 4.072377 0 6.108565 0 m -14.9819061 0 c 2.0361882 0 4.0723764 0 6.1085651 0 m 2.764776 -2.699336 c 2.036189 0 4.072377 0 6.108565 0 m -14.9819061 0 c 2.0361882 0 4.0723764 0 6.1085651 0 m 2.764776 -2.6993368 c 2.036189 0 4.072377 0 6.108565 0 m -14.9819061 0 c 2.0361882 0 4.0723764 0 6.1085651 0 M 3.6646454 5.0679245 H 20.335355 c 1.10608 0 1.996535 0.8904549 1.996535 1.9965355 v 9.87108 c 0 1.106081 -0.890455 1.996536 -1.996535 1.996536 H 3.6646454 c -1.1060807 0 -1.9965355 -0.890455 -1.9965355 -1.996536 V 7.06446 c 0 -1.1060806 0.8904548 -1.9965355 1.9965355 -1.9965355 z" />
</svg>
