<svg
   width="24"
   height="24"
   viewBox="0 0 24 24"
   xmlns="http://www.w3.org/2000/svg">
  <path
     id="use14"
     fill="none"
     stroke="currentColor"
     stroke-linecap="round"
     stroke-linejoin="round"
     stroke-width="1.5"
     d="m 15.544408 21.77 -0.682371 -4.24133 5.035896 -0.01634 m -0.696018 4.257994 1.392037 -8.515989 M 8.4613984 21.754 9.1437692 17.512329 4.1078725 17.495988 M 4.8038907 21.754 3.4118542 13.237993 m 4.3162579 1e-6 h 8.5437759 m -8.7658088 -1e-6 c 0.036393 -0.02729 0.072786 -0.05459 0 0 z M 12.00002 21.77 c -7e-6 -2.844002 -1.3e-5 -5.688004 -2e-5 -8.532006 m 2.3e-5 -10.6698482 a 0.71186434 0.71186434 0 0 0 -0.24061 0.041288 L 3.248363 5.4469252 A 0.71186434 0.71186434 0 0 0 3.4562274 6.8393318 H 20.542395 a 0.71186434 0.71186434 0 0 0 0.209288 -1.3924066 l -8.51105 -2.8374913 a 0.71186434 0.71186434 0 0 0 -0.24061 -0.041288" />
</svg>
