<svg
   width="24"
   height="24"
   viewBox="0 0 24 24"
   xmlns="http://www.w3.org/2000/svg">
  <path
     id="path1"
     fill="none"
     stroke="currentColor"
     stroke-linecap="round"
     stroke-linejoin="round"
     stroke-width="1.5"
     d="M 13.618 21.367 A 2.37 2.37 0 0 1 12 22 2.37 2.37 0 0 1 10.383 21.367 C 6.412 17.626 1.09 13.447 3.685 7.38 5.09 4.1 8.458 2 12.001 2 c 3.543 0 6.912 2.1 8.315 5.38 2.592 6.06 -2.717 10.259 -6.698 13.987 z m -1.764866 -6.625962 v 0 M 9.4301852 8.3817965 a 2.5743449 2.5743449 0 1 1 4.6268058 1.5545769 l -0.08185 0.089237 c -0.04 0.04308 -0.178474 0.176014 -0.223402 0.213555 a 2.4617212 2.4617212 0 0 1 -0.21725 0.163705 l -0.933606 0.643124 a 1.7293591 1.7293591 0 0 0 -0.747749 1.424722" />
</svg>
