<svg
   width="24"
   height="24"
   viewBox="0 0 24 24"
   xmlns="http://www.w3.org/2000/svg">
  <path
     id="path1"
     fill="none"
     stroke="currentColor"
     stroke-linecap="round"
     stroke-linejoin="round"
     stroke-width="1.5"
     d="m 6.9236381 14.726728 c -2.6666655 0 -2.6666655 4 0 4 2.666666 0 2.666666 -4 0 -4 m 0 0 v -3 m -3 1 c -3.84462525 2.883469 -1.8044621 8.999499 3 8.999499 4.8044619 0 6.8446249 -6.11603 3 -8.999499 m -6 0 V 3.7267279 h 6 v 9.0000001 m 0 -9.0000001 h 1.9999999 m -1.9999999 3 h 1.9999999 m -1.9999999 3 h 1.9999999" />
  <path
     id="path2"
     fill="none"
     stroke="currentColor"
     stroke-linecap="round"
     stroke-linejoin="round"
     stroke-width="1.5"
     d="M 18.533868 3.7267288 V 7.866655 m -2.046442 -2.0934848 4.139929 -9e-7 M 18.55739 3.7267283 20.010345 2.2737731 M 15.034472 7.2496473 16.487426 5.796692 m 4.139929 -0.023523 1.452954 -1.4529553 m -4.999396 4.9993964 1.452955 -1.4529554 m -1.452955 -5.5928814 1.452955 1.4529552 m 2.093487 2.0699634 1.452954 1.4529553 M 15.034472 4.320215 16.487426 5.7731702 m 2.069964 2.0934853 1.452955 1.4529554" />
</svg>
