<svg
   width="24"
   height="24"
   viewBox="0 0 24 24"
   xmlns="http://www.w3.org/2000/svg">
  <path
     id="path1"
     fill="none"
     stroke="currentColor"
     stroke-linecap="round"
     stroke-linejoin="round"
     stroke-width="1.5"
     d="m 9.8513517 8.9615494 h 4.2972973 c 0.04369 0 0.07887 -0.03518 0.07887 -0.07887 v -2.664891 c 0 -0.04369 -0.03518 -0.07887 -0.07887 -0.07887 H 9.8513517 c -0.043693 0 -0.078869 0.03518 -0.078869 0.07887 v 2.664892 c 0 0.04369 0.035175 0.07887 0.078869 0.07887 z M 7.3518799 20.673263 H 16.64812 c 0.268518 0 0.48469 -0.216172 0.48469 -0.48469 V 3.8114274 c 0 -0.268518 -0.216172 -0.48469 -0.48469 -0.48469 H 7.3518799 c -0.2685183 0 -0.48469 0.216172 -0.48469 0.48469 V 20.188573 c 0 0.268518 0.2161717 0.48469 0.48469 0.48469 z" />
</svg>
