<svg
   width="24"
   height="24"
   viewBox="0 0 24 24"
   xmlns="http://www.w3.org/2000/svg">
  <path
     id="path1"
     fill="none"
     stroke="currentColor"
     stroke-linecap="round"
     stroke-linejoin="round"
     stroke-width="1.5"
     d="M 2.7662241 8.530131 C 2.6424911 5.263296 5.1882616 2.7175249 8.4550968 2.8412579 M 5.7244381 8.643909 C 5.6625711 7.010491 6.9361679 5.736895 8.568874 5.799473 m 6.976029 -2.9582143 c 3.266835 -0.123733 5.812606 2.4220375 5.688873 5.6888725 m -5.802651 -2.730658 c 1.633418 -0.06187 2.907014 1.211729 2.844436 2.844435" />
  <path
     fill="none"
     stroke="currentColor"
     stroke-linecap="round"
     stroke-linejoin="round"
     stroke-width="1.5"
     d="m 10.195749 9.78591 h 4.712904 c 0.246631 -8.603e-4 0.412805 0.252013 0.314151 0.478055 l -1.843926 4.303793 h 3.108332 c 0.116169 0.0012 0.177912 0.13765 0.102115 0.225694 l -6.338941 6.96659 c -0.08289 0.123909 -0.275184 0.03367 -0.232849 -0.109269 l 0.628951 -5.034209 H 7.7365317 c -0.2451078 0.0033 -0.4140666 -0.24465 -0.3213047 -0.47155 L 9.8737944 9.9972947 C 9.9271408 9.8670027 10.054981 9.7828074 10.195749 9.7852596"
     id="path2" />
</svg>
