<svg
   width="24"
   height="24"
   viewBox="0 0 24 24"
   xmlns="http://www.w3.org/2000/svg">
  <path
	fill="none"
     stroke="currentColor"
     stroke-width="1.5"
     d="M 8.4285717 7.0000002 V 4.1428574 A 1.4285714 1.4285714 0 0 1 9.8571431 2.714286 h 9.9999999 a 1.4285714 1.4285714 0 0 1 1.428571 1.4285714 V 19.857143 a 1.4285714 1.4285714 0 0 1 -1.428571 1.428571 H 9.8571431 A 1.4285714 1.4285714 0 0 1 8.4285717 19.857143 V 17"
     id="path1" />
  <path
     fill="none"
     stroke="currentColor"
     stroke-linecap="round"
     stroke-linejoin="round"
     stroke-width="1.5"
     d="m 7.9629252 11.999297 a 2.4723141 2.4723141 0 1 1 -4.944628 0 2.4723141 2.4723141 0 0 1 4.944628 0 m 0 0 h 7.4169418 v 1.854236 m -2.472314 -1.854236 v 1.854236"
     id="path1" />
</svg>
