<svg
   width="24"
   height="24"
   viewBox="0 0 24 24"
   xmlns="http://www.w3.org/2000/svg">
  <path
     id="path1"
     fill="none"
     stroke="currentColor"
     stroke-linecap="round"
     stroke-width="1.5"
     d="m 15.85702 10.86215 h 5.94264 v 1.600259 c 6.01e-4 1.9832 -1.487335 2.968898 -2.974279 2.967195 -0.346377 -3.97e-4 -0.6927 -0.05465 -1.020142 -0.162757 -1.075785 -0.355181 -1.94776 -1.291676 -1.948223 -2.809468 0.0013 -0.897305 -0.01316 -1.267369 4e-6 -1.595229 z m 1.358672 0 V 8.4421462 m 3.22633 2.4200038 V 8.4421462" />
  <path
     fill="none"
     stroke="currentColor"
     stroke-linecap="butt"
	 stroke-linejoin="miter"
     stroke-width="1.5"
     d="m 18.825381 15.429604 0.0038 5.03428 c 0 0.891131 -0.722358 1.497732 -1.613489 1.497732 H 3.8138753 c -0.8911308 0 -1.6135351 -0.722404 -1.6135352 -1.613535 10e-8 -0.891131 0.7224044 -1.613535 1.6135352 -1.613535 h 4.3442151 c 0.8911306 0 1.6135356 -0.722404 1.6135356 -1.613535 0 -0.891131 -0.722405 -1.613535 -1.6135357 -1.613535 H 3.813875 c -0.8911308 0 -1.613535 -0.722404 -1.6135351 -1.613535 1e-7 -0.891131 0.7224043 -1.613535 1.6135351 -1.613535 l 3.7057271 1e-6 c 0.2261033 0 0.4413445 -0.0465 0.6366796 -0.130475 0.5745312 -0.246973 0.9768561 -0.818033 0.9768554 -1.483061 l 10e-8 -3.7427133 10e-8 -1.982493 C 9.5608358 4.4398553 9.8175925 3.7125849 10.416233 3.4362365 c 0.735981 -0.3397484 1.704384 -0.3466934 2.57247 -0.265625 0.719071 0.067152 0.254595 1.5348437 -0.06342 2.4272655 C 12.583399 6.1980353 12.088586 6.6913634 11.477757 6.929602 10.752518 7.2124633 9.9115853 6.924162 9.1331372 6.924162 8.2098102 6.932412 7.2278683 7.149636 6.3631564 6.948902 5.5747706 6.7658863 5.0441842 6.4022724 4.5682228 5.8294814 4.097894 5.2634688 3.9141814 4.4982392 3.7383072 3.783643 c -0.1612336 -0.6551098 -0.4230131 -1.8032579 0 -1.8335344 0.9230694 -0.066067 1.7649881 -0.1244344 2.6055489 0.096502 0.6233611 0.1638466 1.2589537 0.435106 1.7177322 0.8878167 0.5398636 0.5327232 0.714366 1.3381584 1.071549 2.0072376"
     id="path2" />
</svg>
