<svg
   width="24"
   height="24"
   viewBox="0 0 24 24"
   xmlns="http://www.w3.org/2000/svg">
  <path
     id="path1-7"
     fill="none"
     stroke="currentColor"
     stroke-width="1.5"
     stroke-linecap="round"
     stroke-linejoin="round"
     d="m 11.902314 11.449882 c -0.38036 0.367593 -0.838531 0.6905 -1.378488 0.95146 v 7.426716 c 6.2e-5 0.408765 -0.162247 0.800817 -0.451227 1.08992 l -1.1836531 1.183653 c -0.3009733 0.300973 -0.788947 0.300973 -1.0899201 0 l -1.6348801 -1.63488 c -0.3009731 -0.300973 -0.3009733 -0.788947 0 -1.08992 l 0.54496 -0.54496 c 0.3009733 -0.300974 0.3009731 -0.788947 0 -1.08992 l -0.54496 -0.544961 c -0.3009731 -0.300973 -0.3009733 -0.788946 0 -1.08992 l 0.54496 -0.54496 c 0.3009733 -0.300973 0.3009733 -0.788946 0 -1.08992 L 6.6153727 14.37846 C 6.3263928 14.089354 6.1640835 13.697303 6.1641457 13.288537 V 12.401342 C 1.9098774 10.345264 2.7325796 4.4436289 6.6890409 3.1397203 M 20.220467 13.601957 a 1.5413798 1.5413798 0 0 1 0.451624 1.089755 v 1.673939 a 0.77068989 0.77068989 0 0 1 -0.77069 0.77069 h -2.312069 a 0.77068989 0.77068989 0 0 1 -0.77069 -0.77069 v -0.77069 a 0.77068989 0.77068989 0 0 0 -0.77069 -0.77069 h -0.77069 a 0.77068989 0.77068989 0 0 1 -0.77069 -0.77069 v -0.77069 a 0.77068989 0.77068989 0 0 0 -0.77069 -0.77069 H 13.603324 A 1.5413798 1.5413798 0 0 1 12.513568 12.060577 L 11.886227 11.433235 A 5.0094843 5.0094843 0 1 1 14.968986 8.3504758 Z M 8.7970874 5.9613371 a 0.70000005 0.70000005 0 0 0 0.7000001 0.7 0.70000005 0.70000005 0 0 0 0.7000005 -0.7 A 0.70000005 0.70000005 0 0 0 9.4970875 5.261337 0.70000005 0.70000005 0 0 0 8.7970874 5.9613371 Z" />
</svg>
