<svg
   width="24"
   height="24"
   viewBox="0 0 24 24"
   xmlns="http://www.w3.org/2000/svg">
  <path
     id="path1"
     fill="none"
     stroke="currentColor"
     stroke-linecap="round"
     stroke-linejoin="round"
     stroke-width="1.5"
     d="m 21.345597 7.046439 v 12.907122 c 0 0.771188 -0.620848 1.392036 -1.392036 1.392036 H 7.046439 M 4.0464392 2.654403 H 16.953367 c 0.771188 0 1.392036 0.6208481 1.392036 1.3920362 V 16.953561 c 0 0.771188 -0.620848 1.392037 -1.392036 1.392037 H 4.0464392 c -0.7711881 0 -1.3920362 -0.620849 -1.3920362 -1.392037 V 4.0464392 c 0 -0.7711881 0.6208481 -1.3920362 1.3920362 -1.3920362 z M 11.5 12.999981 V 5.4999809 c 0 0 3 1 3 4.0000004 m -3 3.9999997 c 0 1.105 -1.12 2 -2.4999997 2 -1.38 0 -2.5 -0.895 -2.5 -2 0 -1.105 1.12 -2 2.5 -2 1.3799997 0 2.4999997 0.895 2.4999997 2" />
</svg>
