<svg
   width="24"
   height="24"
   viewBox="0 0 24 24"
   xmlns="http://www.w3.org/2000/svg">
  <path
     id="path1"
     fill="none"
     stroke="currentColor"
     stroke-width="1.5"
     stroke-linecap="round"
     stroke-linejoin="round"
     d="m 11.45277 2.2323307 c -0.192238 -0.082509 -0.366611 0.1105786 -0.284104 0.2483769 0.29013 0.5050115 0.483413 1.0597576 0.569908 1.6357182 0.410178 2.8009193 -0.812189 2.4294137 -0.864218 2.3714915 -0.237319 -0.2458259 -0.483144 -0.494201 -0.643058 -0.7995698 -0.04594 -0.091864 -0.211801 -0.2390208 -0.4508209 0 C 9.2037661 6.162985 8.8533145 6.8928067 8.9256175 7.6362369 8.9562394 9.2838633 10.411627 10.485769 12.007365 10.506183 13.635427 10.525744 15.0704 9.3204386 15.08401 7.6362369 15.084356 6.5739015 14.763863 5.5362248 14.164505 4.6591129 13.508205 3.610394 12.568307 2.7689975 11.45362 2.2323307 M 14.967431 13.13752 c 1.032569 0 2.065138 0 3.097707 0 m -12.1302761 0 c 1.032569 0 2.065138 0 3.097707 0 m 4.2816651 5.633595 v 0 m -2.6538 0 v 0 m -2.6522917 0 v 0 m -2.6522918 0 v 0 M 4.1688778 15.760259 H 19.831122 c 0.898162 0 1.621231 0.723069 1.621231 1.62123 v 2.779252 c 0 0.898162 -0.723069 1.62123 -1.621231 1.62123 H 4.1688778 c -0.8981616 0 -1.6212303 -0.723068 -1.6212303 -1.62123 v -2.779252 c 0 -0.898161 0.7230687 -1.62123 1.6212303 -1.62123 z" />
</svg>
