<svg
   width="24"
   height="24"
   viewBox="0 0 24 24"
   xmlns="http://www.w3.org/2000/svg">
  <path
     fill="none"
     stroke="currentColor"
     stroke-linecap="round"
     stroke-linejoin="round"
     stroke-width="1.5"
     d="m 19.444153 13.724671 0.03521 3.178319"
     id="path3"/>
  <circle
     id="path4"
     fill="currentColor"
     stroke-width="0"
     cy="18.996325"
     cx="19.461756"
     r="0.75" />
  <path
     id="path1"
     fill="none"
     stroke="currentColor"
     stroke-linecap="round"
     stroke-linejoin="round"
     stroke-width="1.5"
     d="m 11.198218 9.040802 c -0.281643 -0.1208816 -0.537114 0.1620067 -0.416233 0.3638917 0.425063 0.7398793 0.708235 1.5526243 0.834957 2.3964503 0.600942 4.103562 -1.189919 3.559278 -1.266144 3.474417 -0.347691 -0.360153 -0.707844 -0.724043 -0.9421302 -1.171431 -0.0673 -0.13459 -0.3103051 -0.350184 -0.6604884 0 -0.8449255 0.695381 -1.3583624 1.764625 -1.252435 2.853806 0.044867 2.413898 2.177119 4.174784 4.5149976 4.204693 2.385234 0.02866 4.48758 -1.737208 4.50752 -4.204693 5.08e-4 -1.556403 -0.46904 -3.076677 -1.347146 -4.361713 C 14.209588 11.05977 12.832565 9.8270601 11.199463 9.040802 M 2.7662241 8.530131 C 2.6424911 5.263296 5.1882616 2.7175249 8.4550968 2.8412579 M 5.7244381 8.643909 C 5.6625711 7.010491 6.9361679 5.736895 8.568874 5.799473 m 6.976029 -2.9582143 c 3.266835 -0.123733 5.812606 2.4220375 5.688873 5.6888725 m -5.802651 -2.730658 c 1.633418 -0.06187 2.907014 1.211729 2.844436 2.844435" />
</svg>
