<svg
   width="24"
   height="24"
   viewBox="0 0 24 24"
   xmlns="http://www.w3.org/2000/svg">
  <path
     id="path1"
     fill="none"
     stroke="currentColor"
     stroke-linecap="round"
     stroke-linejoin="round"
     stroke-width="1.5"
     d="m 7.2740449 21.905664 c -6.364e-4 -1.410923 -0.00127 -2.821847 0.1360596 -4.042226 0.1373323 -1.220378 0.4126332 -2.250212 0.779703 -2.749834 0.3670689 -0.499622 0.8259054 -0.469034 1.3051354 -0.336481 0.479229 0.132553 0.9788521 0.36707 1.5090641 0.53531 0.530211 0.16824 1.091012 0.270204 1.539652 0.346677 0.448641 0.07647 0.785121 0.127454 0.943165 0.489425 0.158044 0.361972 0.137651 1.034932 0.265107 1.927115 0.127454 0.892183 0.402756 2.003588 0.535309 2.67145 0.132552 0.667863 0.122356 0.892183 0.11216 1.116504 M 4.5205529 10.244249 C 4.9488006 9.9791441 6.2292083 9.5864701 7.129345 9.4977161 c 1.8428379 -0.181703 3.750756 -0.03392 5.536587 0.455844 1.665671 0.4568109 3.93963 1.7741409 4.658474 2.2686659 M 4.1034539 21.905664 c 0 -1.30896 0 -2.61792 0.1304544 -3.772022 C 4.3643629 16.97954 4.6252718 15.980295 4.6690572 15.230862 4.7128424 14.481429 4.5395039 13.981806 4.376362 13.533165 4.21322 13.084525 4.0602745 12.686866 4.0347835 12.294306 4.0092925 11.901745 4.1112564 11.514283 4.2743984 11.147214 4.4375403 10.780144 4.6618605 10.433467 4.4222458 9.9032561 4.1826311 9.3730451 3.479081 8.6592982 2.7755312 7.9455524 M 13.376845 10.127583 C 14.049806 8.2718435 14.705236 6.3162834 15.429233 4.4329011 15.64838 3.8628177 15.97831 2.0944263 16.122586 2.736892 c 0.150566 0.6704785 0.654277 0.9808409 0.892183 1.410511 0.335648 0.6061937 1.182167 0.1493474 1.627559 0.5013091 1.011202 0.7990815 2.538932 1.2270835 2.620955 2.2731913 0.0906 1.1554389 -0.43547 1.7331964 -1.07388 2.2785897 -0.632064 0.539972 -1.922459 -0.4548694 -2.394312 0.697815 -0.467147 1.1411899 -0.215406 1.9832969 -0.377566 2.9669949 -0.136226 0.82638 -0.356873 1.6875 -0.499622 2.462424 -0.142749 0.774925 -0.183534 1.621224 -0.06118 2.620469 0.122357 0.999245 0.407855 2.151435 0.545507 2.824396 0.137651 0.67296 0.127455 0.866691 0.117259 1.060422" />
  <path
     fill="none"
     stroke="currentColor"
     stroke-linecap="round"
     stroke-linejoin="round"
     stroke-width="1.5"
     d="M 12.665932 9.9535601 C 11.660475 8.3576294 10.634341 6.7288765 9.649562 5.1657664 9.4555925 4.96386 9.1881265 4.8485297 8.9574088 4.6899113 6.8809503 3.8247203 4.8044918 2.9595291 2.7280333 2.094338"
     id="path2" />
</svg>
