<?xml version="1.0" encoding="UTF-8" standalone="no"?>
<svg
   width="198"
   height="198"
   overflow="hidden"
   version="1.1"
   id="svg6"
   sodipodi:docname="loxbuddy.svg"
   inkscape:version="1.3.2 (091e20e, 2023-11-25, custom)"
   xmlns:inkscape="http://www.inkscape.org/namespaces/inkscape"
   xmlns:sodipodi="http://sodipodi.sourceforge.net/DTD/sodipodi-0.dtd"
   xmlns="http://www.w3.org/2000/svg"
   xmlns:svg="http://www.w3.org/2000/svg">
  <defs
     id="defs6" />
  <sodipodi:namedview
     id="namedview6"
     pagecolor="#ffffff"
     bordercolor="#666666"
     borderopacity="1.0"
     inkscape:showpageshadow="2"
     inkscape:pageopacity="0.0"
     inkscape:pagecheckerboard="0"
     inkscape:deskcolor="#d1d1d1"
     inkscape:zoom="2.1942407"
     inkscape:cx="74.968985"
     inkscape:cy="146.97567"
     inkscape:window-width="1920"
     inkscape:window-height="1009"
     inkscape:window-x="-8"
     inkscape:window-y="-8"
     inkscape:window-maximized="1"
     inkscape:current-layer="g6" />
  <g
     id="g6"
     transform="translate(-394,-231)">
    <g
       id="g7"
       transform="translate(4.5)">
      <path
         d="M 394,429 V 325.5 L 488.5,231 583,325.5 V 429 Z"
         fill="#4ea72e"
         fill-rule="evenodd"
         id="path1" />
      <path
         d="M 413,411 V 332.5 L 488.5,257 564,332.5 V 411 Z"
         fill="#747474"
         fill-rule="evenodd"
         id="path2" />
      <path
         d="M 413,327.802 C 413,321.836 417.836,317 423.802,317 h 46.396 c 5.966,0 10.802,4.836 10.802,10.802 v 15.396 C 481,349.164 476.164,354 470.198,354 H 423.802 C 417.836,354 413,349.164 413,343.198 Z"
         fill-rule="evenodd"
         id="path3" />
      <path
         d="M 497,327.802 C 497,321.836 501.836,317 507.802,317 h 45.396 c 5.966,0 10.802,4.836 10.802,10.802 v 15.396 C 564,349.164 559.164,354 553.198,354 H 507.802 C 501.836,354 497,349.164 497,343.198 Z"
         fill-rule="evenodd"
         id="path4" />
      <rect
         x="480"
         y="-331.54984"
         width="18"
         height="5"
         stroke="#000000"
         stroke-width="2"
         stroke-miterlimit="8"
         transform="scale(1,-1)"
         id="rect4" />
      <rect
         x="395.06491"
         y="-331.55139"
         width="17.935085"
         height="5.0031099"
         stroke="#000000"
         stroke-width="2.05491"
         stroke-miterlimit="8"
         transform="scale(1,-1)"
         id="rect5" />
      <rect
         x="564"
         y="-331.54984"
         width="18"
         height="5"
         stroke="#000000"
         stroke-width="2"
         stroke-miterlimit="8"
         transform="scale(1,-1)"
         id="rect6" />
      <path
         d="m 522,377 c 0,9.941 -14.999,18 -33.5,18 -18.502,0 -33.5,-8.059 -33.5,-18 13.876,9.941 40.123,11.956 58.625,4.5 3.174,-1.279 5.994,-2.794 8.375,-4.5 z"
         fill-rule="evenodd"
         id="path6" />
    </g>
  </g>
</svg>
