<svg
   width="24"
   height="24"
   viewBox="0 0 24 24"
   xmlns="http://www.w3.org/2000/svg">
  <path
     id="path1"
     fill="none"
     stroke="currentColor"
     stroke-width="1.5"
     stroke-linecap="round"
     stroke-linejoin="round"
     d="m 2.0000247 21.537604 c 6.6666667 0 13.3333333 0 20.0000003 0 M 1.9999752 3.4623962 c 0.6 0.5 1.2 1 2.5 1 2.5 0 2.5 -2 5 -2 2.6000008 0 2.4000008 2 5.0000008 2 2.5 0 2.5 -2 5 -2 1.3 0 1.900049 0.5 2.500049 1 m -20.0000003 4 c 0.6 0.5 1.1999505 1 2.4999505 1 2.5 0 2.5 -2 5 -2 2.6000008 0 2.4000008 2 5.0000008 2 2.5 0 2.5 -2 5 -2 1.3 0 1.9 0.5 2.5 1" />
  <path
     id="path2"
     fill="none"
     stroke="currentColor"
     stroke-width="1.5"
     stroke-linecap="round"
     stroke-linejoin="round"
     d="m 18.987229 16.383908 a 1.389626 1.389626 0 0 1 -1.389626 1.389626 1.389626 1.389626 0 0 1 -1.389626 -1.389626 1.389626 1.389626 0 0 1 1.389626 -1.389626 1.389626 1.389626 0 0 1 1.389626 1.389626 z m -11.0012061 0 a 1.389626 1.389626 0 0 1 -1.389626 1.389626 1.389626 1.389626 0 0 1 -1.389626 -1.389626 1.389626 1.389626 0 0 1 1.389626 -1.389626 1.389626 1.389626 0 0 1 1.389626 1.389626 z" />
  <path
     id="path3"
     fill="none"
     stroke="currentColor"
     stroke-width="1.5"
     stroke-linecap="round"
     stroke-linejoin="round"
     d="m 20.170204 13.873872 c 0 0 0.781665 -0.781665 0.781665 -0.781665 m -6.120866 0.781664 c 0 0 -0.781665 -0.781664 -0.781665 -0.781664 m 3.548265 -0.359167 c 0 0 0 -1.105442 0 -1.105442 m -8.4286058 2.246274 c 0 0 0.7816648 -0.781665 0.7816648 -0.781665 m -6.1208658 0.781665 c 0 0 -0.7816648 -0.781665 -0.7816648 -0.781665 M 6.5963966 12.73304 c 0 0 2e-7 -1.105441 2e-7 -1.105441" />
</svg>
