<svg
   width="24"
   height="24"
   viewBox="0 0 24 24"
   xmlns="http://www.w3.org/2000/svg">
  <path
     fill="none"
     stroke="currentColor"
     stroke-linecap="round"
     stroke-width="1.5"
     d="m 17.20863 16.666172 v 0.0087 m -10.4172346 -0.0087 v 0.0087"
     id="path1" />
  <path
     fill="none"
     stroke="currentColor"
     stroke-linecap="round"
     stroke-width="1.5"
     d="m 20.681042 17.900614 v 2.672021 c 0 0.404536 0 0.606804 -0.06598 0.766535 -0.08829 0.212285 -0.257195 0.380874 -0.469644 0.468775 -0.159731 0.06684 -0.361998 0.06684 -0.766534 0.06684 -0.404536 0 -0.606804 0 -0.766535 -0.06597 -0.212285 -0.08829 -0.380874 -0.257196 -0.468776 -0.469644 -0.06684 -0.159731 -0.06684 -0.361999 -0.06684 -0.766535 0 -0.404536 0 -0.606804 -0.06598 -0.766535 -0.08829 -0.212285 -0.257195 -0.380874 -0.469643 -0.468775 -0.159731 -0.06684 -0.361999 -0.06684 -0.766535 -0.06684 H 7.2254468 c -0.4045359 0 -0.6068039 0 -0.7665349 0.06597 -0.2122851 0.08829 -0.3808743 0.257196 -0.4687755 0.469644 -0.066844 0.159731 -0.066844 0.361999 -0.066844 0.766535 0 0.404536 0 0.606804 -0.065976 0.766535 -0.088294 0.212285 -0.2571955 0.380874 -0.4696436 0.468775 -0.159731 0.06684 -0.361999 0.06684 -0.7665349 0.06684 -0.404536 0 -0.6068039 0 -0.7665349 -0.06597 C 3.6423181 21.72052 3.4737289 21.551618 3.3858276 21.33917 3.3189837 21.179439 3.3189837 20.977171 3.3189837 20.572635 v -2.672021 c 0 -1.043459 0 -1.565189 0.1493137 -2.057404 0.1493137 -0.492214 0.438392 -0.926265 1.0174166 -1.794368 L 5.0551895 13.19376 5.8903045 11.190179 C 6.5370412 9.6362746 6.8608436 8.8601906 7.5171294 8.4226667 m 0 0 C 8.1734152 7.9851428 9.0137388 7.9851428 10.697858 7.9851428 h 2.604309 c 1.683252 0 2.524443 0 3.180729 0.4375239 0.656286 0.4375239 0.980088 1.214476 1.626825 2.7675123 l 0.835115 2.003581 0.569476 0.855082 c 0.579024 0.868103 0.868103 1.302154 1.017416 1.794368 0.149314 0.492215 0.149314 1.013945 0.149314 2.057404"
     id="path2" />
  <path
     fill="none"
     stroke="currentColor"
     stroke-linecap="round"
     stroke-width="1.5"
     d="m 3.3189837 11.891606 1.7362058 1.302154 1.5287293 0.381966 q 0.2083447 0.05209 0.4210299 0.05209 h 9.9901283 q 0.212685 0 0.42103 -0.05209 l 1.528729 -0.381966 1.736206 -1.302154"
     id="path3" />
  <path
     id="path4"
     fill="none"
     stroke="currentColor"
     stroke-linecap="round"
	 stroke-linejoin="round"
     stroke-width="1.5"
     d="M 10.115413 3.5773869 A 1.8238842 1.8238842 0 0 1 8.2915287 5.4012711 1.8238842 1.8238842 0 0 1 6.4676445 3.5773869 1.8238842 1.8238842 0 0 1 8.2915287 1.7535026 1.8238842 1.8238842 0 0 1 10.115413 3.5773869 Z m 0 -10e-8 v 0 m 0 0 h 7.416942 v 1.854236 m -2.472314 -1.854236 v 1.854236" />
</svg>
