<?xml version="1.0" encoding="UTF-8" standalone="no"?>
<svg
   width="24"
   height="24"
   viewBox="0 0 24 24"
   version="1.1"
   id="svg1"
   sodipodi:docname="loxbuddy--shop-windows-half-down.svg"
   inkscape:version="1.4.3 (0d15f75, 2025-12-25)"
   xmlns:inkscape="http://www.inkscape.org/namespaces/inkscape"
   xmlns:sodipodi="http://sodipodi.sourceforge.net/DTD/sodipodi-0.dtd"
   xmlns="http://www.w3.org/2000/svg"
   xmlns:svg="http://www.w3.org/2000/svg">
  <defs
     id="defs1" />
  <sodipodi:namedview
     id="namedview1"
     pagecolor="#ffffff"
     bordercolor="#666666"
     borderopacity="1.0"
     inkscape:showpageshadow="2"
     inkscape:pageopacity="0.0"
     inkscape:pagecheckerboard="0"
     inkscape:deskcolor="#d1d1d1"
     inkscape:zoom="23.776466"
     inkscape:cx="6.8134601"
     inkscape:cy="10.577687"
     inkscape:window-width="1920"
     inkscape:window-height="1009"
     inkscape:window-x="-8"
     inkscape:window-y="-8"
     inkscape:window-maximized="1"
     inkscape:current-layer="svg1" />
  <path
     id="path1"
     style="fill:none;stroke:#000000;stroke-width:1.5;stroke-linecap:round;stroke-linejoin:round;stroke-dasharray:none;stroke-opacity:1"
     d="M 12,18.806414 V 13.87908 M 7.493,3 H 3.502 C 3.2087501,2.9998906 2.9583862,3.2117695 2.91,3.501 l -0.705,7.351677 c -0.034293,0.170539 0.022516,0.346646 0.15,0.465 0.328,0.29 1.061,0.806 2.138,0.806 1.5,0 2.5,-1 2.5,-1 z m 4.5,0 v 8.122677 c 0,0 -1,1 -2.5,1 -1.5,0 -2.5,-1 -2.5,-1 L 7.493,3 Z m 4.5,0 0.5,8.122677 c 0,0 -1,1 -2.5,1 -1.5,0 -2.5,-1 -2.5,-1 V 3 Z m 3.992,0 h -3.992 l 0.5,8.122677 c 0,0 1,1 2.5,1 0.787409,0.001 1.548078,-0.285592 2.139,-0.806 0.127484,-0.118354 0.184293,-0.294461 0.15,-0.465 L 21.076,3.5 C 21.027241,3.2115396 20.777552,3.0002965 20.485,3 Z M 12,13.87908 10.202857,15.368258 M 12,13.87908 13.797143,15.368258 M 3,12.122677 V 19 c 0,1.104569 0.8954305,2 2,2 h 14 c 1.104569,0 2,-0.895431 2,-2 v -6.877323" />
</svg>
