<svg
   width="24"
   height="24"
   viewBox="0 0 24 24"
   xmlns="http://www.w3.org/2000/svg">
  <path
     fill="none"
     stroke="currentColor"
     stroke-linecap="round"
     stroke-linejoin="round"
     stroke-width="1.5"
     id="path1"
     d="m 13.502173 13.110417 h 4.857155 v 4.857156 h -4.857155 z m 8.645067 2.428578 a 6.2164907 6.2164907 0 0 1 -6.21649 6.21649 6.2164907 6.2164907 0 0 1 -6.2164907 -6.21649 6.2164907 6.2164907 0 0 1 6.2164907 -6.2164899 6.2164907 6.2164907 0 0 1 6.21649 6.2164899 z M 7.2058361 14.322505 H 3.93075 c -1.108 0 -2 -0.892 -2 -2 v -8 c 0 -1.108 0.892 -2 2 -2 h 10 c 1.108 0 2 0.892 2 2 v 2.5000001 m 6 2.1644045 V 4.1925051 c 1.14e-4 -0.3859946 -0.418615 -0.6265413 -0.752 -0.432 l -5.248 3.062" />
</svg>
