<svg
   width="24"
   height="24"
   viewBox="0 0 24 24"
   xmlns="http://www.w3.org/2000/svg">
  <path
     id="use23"
     fill="none"
     stroke="currentColor"
     stroke-linecap="round"
     stroke-linejoin="round"
     stroke-width="1.5"
     d="M 19.780167 8.6686467 V 4.6566643 M 4.2198327 8.6686467 V 4.6566643 m 7.7469843 9.6733397 c -0.451814 0 -0.903628 0 -1.355442 0 m 1.355442 -2.628237 c -0.457566 0 -0.915133 0 -1.3727 0 m 4.363525 3.703303 h 3.119213 m -6.110038 -3.703303 c 0.725768 0 1.314118 0.588351 1.314118 1.314119 0 0.725767 -0.588351 1.314118 -1.314118 1.314118 m 4.521869 -2.576746 c 0.712304 1.527541 1.424609 3.055084 2.136913 4.582625 m -2.136914 -4.582626 c -0.712305 1.527542 -1.42461 3.055085 -2.136914 4.582626 m -3.757654 -4.634116 c -0.0031 1.561869 -0.0063 3.123739 -0.0094 4.685607 M 8.2491232 11.701767 c 0 0 -0.840387 -0.06436 -1.8793463 -0.0028 -0.705237 0.04179 -0.928019 0.16892 -1.089 1.170621 -0.207277 1.289775 2.9003083 0.812615 3.0179763 2.045311 0.104653 1.096356 -0.243501 1.313774 -0.993403 1.34445 -0.9207093 0.03766 -2.1193053 0.03208 -2.1193053 0.03208 M 1.5343786 4.6566643 H 22.465621 M 3.6628258 8.8133993 H 20.337174 c 0.581294 0 1.049266 0.3997078 1.049266 0.8962057 v 8.767465 c 0 0.496498 -0.467972 0.896206 -1.049266 0.896206 H 3.6628258 c -0.5812934 0 -1.0492661 -0.399708 -1.0492661 -0.896206 V 9.709605 c 0 -0.4964979 0.4679727 -0.8962057 1.0492661 -0.8962057 z" />
</svg>
