<svg
   width="24"
   height="24"
   viewBox="0 0 24 24"
   xmlns="http://www.w3.org/2000/svg">
  <path
     id="path1"
     fill="none"
     stroke="currentColor"
     stroke-width="1.5"
     stroke-linecap="round"
     stroke-linejoin="round"
     d="M 15.613917 6.6178966 C 15.137461 7.6463507 13.058083 7.8737807 10.515115 7.9625835 7.9721462 8.0513863 6.2059337 8.3147378 5.8960829 6.8266932 5.5523553 5.1759572 7.1951191 4.4361202 10.263916 4.1613163 14.051631 3.822135 16.505891 4.6925288 15.613917 6.6178966 Z m 2.635737 5.9001134 c -0.05019 1.437274 -3.078268 1.405439 -6.724852 1.246846 -3.6453603 -0.15854 -5.8314756 0.28886 -6.4805945 -1.70799 -0.6989181 -2.1500462 2.474604 -3.336889 6.6027225 -3.336889 5.695331 0 7.174578 1.0365368 6.602724 3.798033 m 2.594886 5.04303 c 0.07972 0.984082 0.434845 2.263907 -2.49753 2.371223 -0.181491 0.0066 -12.0784556 0.0027 -12.2513313 0.0027 -2.2830389 0 -3.311233 -0.777865 -2.9497719 -2.373975 0.3720436 -1.642836 3.9619739 -2.974619 8.8493172 -2.974619 4.887341 0 8.716727 1.337992 8.849316 2.974619 z" />
</svg>
