<svg
   width="24"
   height="24"
   viewBox="0 0 24 24"
   xmlns="http://www.w3.org/2000/svg">
   <path
     id="path1"
     fill="none"
     stroke="currentColor"
     stroke-linecap="round"
     stroke-linejoin="round"
     stroke-width="1.5"
     d="m 1.867316 13.627816 h 4.995071 c 0.14179 0 0.282133 -0.01736 0.42103 -0.05209 l 1.528729 -0.381966 1.736206 -1.302154 m 0 6.009008 v 2.672021 c 0 0.404536 0 0.606804 -0.06598 0.766535 -0.08829 0.212285 -0.257195 0.380874 -0.469644 0.468775 -0.159731 0.06684 -0.361998 0.06684 -0.766534 0.06684 -0.404536 0 -0.606804 0 -0.766535 -0.06597 -0.212285 -0.08829 -0.380874 -0.257196 -0.468776 -0.469644 -0.06684 -0.159731 -0.06684 -0.361999 -0.06684 -0.766535 0 -0.404536 0 -0.606804 -0.06598 -0.766535 C 7.789773 19.593816 7.620868 19.425227 7.40842 19.337326 7.248689 19.270486 7.046421 19.270486 6.641885 19.270486 H 1.867321 m 8.681031 -1.369872 c 0 -1.043459 0 -1.565189 -0.149314 -2.057404 C 10.249725 15.350996 9.960646 14.916945 9.381622 14.048842 L 8.812146 13.19376 7.977031 11.190179 C 7.330294 9.6371427 7.006492 8.8601906 6.350206 8.4226667 5.69392 7.9851428 4.852729 7.9851428 3.169477 7.9851428 H 1.86731 m 5.20863 8.6810292 v 0.0087" />
  <path
     id="path2"
     fill="none"
     stroke="currentColor"
     stroke-linecap="round"
     stroke-linejoin="round"
     stroke-width="1.5"
     d="m 15.306684 21.874785 c 0.669217 0 1.338434 0 2.007651 0 0.669217 0 1.338433 0 2.00765 0 M 17.314334 11.285053 c 0 3.52991 0 7.059822 0 10.589732 M 16.056684 9.1882679 V 7.132211 m 0 0 V 4.2531696 h 2.236524 a 1.0533078 1.0533078 0 0 1 1.053308 1.0533078 V 6.0789032 A 1.0533078 1.0533078 0 0 1 18.293208 7.132211 Z M 19.772052 2.1563848 H 14.856615 A 2.1066157 2.1066157 0 0 0 12.75 4.2630005 V 9.178437 a 2.1066157 2.1066157 0 0 0 2.106615 2.106616 h 4.915437 A 2.1066157 2.1066157 0 0 0 21.878668 9.178437 V 4.2630005 A 2.1066157 2.1066157 0 0 0 19.772052 2.1563848" />
</svg>
