<svg
   width="24"
   height="24"
   viewBox="0 0 24 24"
   xmlns="http://www.w3.org/2000/svg">
  <path
     id="path1"
     fill="none"
     stroke="currentColor"
     stroke-linecap="round"
     stroke-linejoin="round"
     stroke-width="1.5"
     d="m 7.5399586 13.148181 c 0.978005 0 1.7708326 -0.792829 1.7708326 -1.770833 0 -0.978005 -0.7928276 -1.7708336 -1.7708326 -1.7708336 -2.3611102 0 -2.3611102 3.5416666 0 3.5416666 m -1.8763297 7.085343 4.1756254 -5.58875 c 0.2890867 -0.387044 0.8722777 -0.377513 1.1485627 0.01877 l 1.277374 1.877322 m -2.798746 3.745905 5.365117 -7.180794 c 0.371437 -0.497298 1.12076 -0.485051 1.475748 0.02412 l 3.993122 5.725977 M 19.523382 7.53677 H 17.44924 4.4766184 c -0.5868025 0 -1.0625 0.4756975 -1.0625 1.0625 v 10.625 c 0 0.586803 0.4756975 1.0625 1.0625 1.0625 H 19.523382 c 0.586802 0 1.0625 -0.475697 1.0625 -1.0625 v -10.625 c 0 -0.5868025 -0.475698 -1.0625 -1.0625 -1.0625 M 12 3.7132292 c 1.816413 1.2745136 3.632827 2.5490273 5.44924 3.8235408 M 12 3.7132292 C 10.183587 4.9877428 8.3671733 6.2622565 6.55076 7.53677" />
</svg>
