<svg
   width="24"
   height="24"
   viewBox="0 0 24 24"
   xmlns="http://www.w3.org/2000/svg">
  <path
     id="path2"
     fill="none"
     stroke="currentColor"
     stroke-linecap="round"
     stroke-linejoin="round"
     stroke-width="1.5"
     d="M 21.931004 7.1797353 V 16.820266 M 2.0689958 7.179735 l -1e-7 9.640531 M 18.773796 15.176068 c -1e-6 0.908066 -3.032733 1.644198 -6.773797 1.644198 -3.741063 0 -6.7737941 -0.736132 -6.7737951 -1.644198 m 16.7048001 1.644198 c -1e-6 1.632239 -4.446264 2.95543 -9.931005 2.95543 -5.4847404 0 -9.9310018 -1.323191 -9.9310033 -2.95543 -4e-7 -1.632239 4.4462616 -2.955431 9.9310033 -2.955431 5.484743 0 9.931005 1.323192 9.931005 2.955431 z M 2.0689958 7.1797353 c -6e-7 -1.632239 4.4462614 -2.955431 9.9310032 -2.9554311 5.484743 -10e-8 9.931006 1.3231911 9.931005 2.9554311"/>
</svg>
