<svg
   viewBox="0 0 24 24"
   width="24"
   height="24"
   xmlns="http://www.w3.org/2000/svg">
  <path
     fill="currentColor"
     d="m 9.2343671 11.766047 c 0.2385452 -0.23002 0.5739992 -0.345029 1.0212719 -0.345029 0.447271 0 0.782725 0.115009 1.013816 0.345029 0.231091 0.230019 0.357818 0.536711 0.357818 0.950746 v 0.613385 c 0.01805 0.348894 -0.109397 0.689149 -0.350363 0.935411 -0.238546 0.23002 -0.581454 0.345029 -1.021271 0.345029 -0.4398177 0 -0.7827267 -0.122677 -1.0212719 -0.352696 C 8.9958217 14.027902 8.8765493 13.72121 8.8765493 13.32251 v -0.613384 c 0 -0.406368 0.1192724 -0.720727 0.3578178 -0.950746 z M 14.541996 11.64337 c 0.02236 0.06134 0.0075 0.130344 -0.04473 0.19935 l -3.950904 5.620137 c -0.07455 0.115009 -0.14909 0.184015 -0.208727 0.214684 -0.05964 0.03067 -0.171454 0.04601 -0.3429087 0.04601 h -0.320541 c -0.104364 0 -0.164 -0.03067 -0.186364 -0.08434 -0.02236 -0.05367 -0.01491 -0.130345 0.04473 -0.214685 l 3.9509037 -5.620137 c 0.07455 -0.11501 0.134182 -0.176348 0.193818 -0.207017 0.05964 -0.023 0.171454 -0.03833 0.327999 -0.03833 h 0.357818 c 0.09691 0 0.149091 0.03067 0.178909 0.08434 z m -4.286357 0.582715 c -0.3876367 0 -0.5739997 0.176348 -0.5739997 0.536712 v 0.513709 c 0 0.352697 0.186363 0.536712 0.5739997 0.536712 0.387635 0 0.566544 -0.184015 0.566544 -0.536712 V 12.75513 c 0 -0.352697 -0.186364 -0.529045 -0.566544 -0.529045 z m 2.489814 2.7909 c 0.231091 -0.230019 0.573999 -0.345028 1.013817 -0.345028 0.439817 0 0.782726 0.115009 1.021271 0.345028 0.238546 0.23002 0.357818 0.544379 0.357818 0.950747 v 0.613384 c 0 0.406368 -0.119272 0.71306 -0.357818 0.943079 -0.238545 0.230019 -0.573999 0.337361 -1.021271 0.337361 -0.447272 0 -0.782726 -0.115009 -1.013817 -0.337361 -0.238545 -0.230019 -0.357818 -0.536711 -0.357818 -0.935412 v -0.613384 c 0 -0.414035 0.119273 -0.728394 0.357818 -0.958414 z m 1.013817 0.460039 c -0.372727 0 -0.566545 0.184015 -0.566545 0.536711 v 0.51371 c 0 0.352696 0.186364 0.536712 0.566545 0.536712 0.380181 0 0.573999 -0.184016 0.573999 -0.536712 v -0.51371 c 0 -0.352696 -0.186363 -0.536711 -0.573999 -0.536711 z"
     id="path2-8"
     style="stroke-width:0.075602" />
  <path
     fill="none"
     stroke="currentColor"
     stroke-miterlimit="10"
     stroke-width="1.5"
     d="M 12 3.0314504 C 8.3696408 8.5519111 6.0363717 12.0022 6.0363717 15.352813 c 0 3.350614 2.6687237 6.080175 5.9636283 6.080175 3.294904 0 5.963628 -2.721894 5.963628 -6.080175 0 -3.358281 -2.33327 -6.8085687 -5.963628 -12.3213626 z"
     id="path1-2" />
</svg>
