<?xml version="1.0" encoding="UTF-8" standalone="no"?>
<svg
   width="24"
   height="24"
   viewBox="0 0 24 24"
   version="1.1"
   id="svg1"
   xmlns="http://www.w3.org/2000/svg"
   xmlns:svg="http://www.w3.org/2000/svg">
  <defs
     id="defs1" />
  <path
     d="M 3.000006,3.5996659 V 20.399656 a 1.1999993,1.1999993 0 0 0 1.1999992,1.199999 H 7.8000029 V 19.199657 H 5.4000044 V 4.7996652 H 7.8000029 V 2.3996668 H 4.2000052 A 1.1999993,1.1999993 0 0 0 3.000006,3.5996659 M 20.090395,2.4356668 10.490401,0.03566834 A 1.1999993,1.1999993 0 0 0 9.000002,1.1996676 V 22.799654 a 1.1975992,1.1975992 0 0 0 1.490399,1.164001 l 9.599994,-2.4 a 1.1999993,1.1999993 0 0 0 0.909599,-1.163999 V 3.5996659 A 1.1999993,1.1999993 0 0 0 20.090395,2.4356668 m -5.090398,9.7895942 a 1.2011992,1.2011992 0 0 1 -2.399997,0 v -0.4524 a 1.1999994,1.1999994 0 1 1 2.399997,0.0012 z"
     id="path1"
     style="stroke-width:1.09904" />
</svg>
